<?xml version="1.0" encoding="utf-8"?>
<!-- Generator: Adobe Illustrator 18.0.0, SVG Export Plug-In . SVG Version: 6.00 Build 0)  -->
<!DOCTYPE svg PUBLIC "-//W3C//DTD SVG 1.1//EN" "http://www.w3.org/Graphics/SVG/1.1/DTD/svg11.dtd">
<svg version="1.1" id="Layer_1" xmlns="http://www.w3.org/2000/svg" xmlns:xlink="http://www.w3.org/1999/xlink" x="0px" y="0px"
	 viewBox="0 0 378.3 82.3" enable-background="new 0 0 378.3 82.3" xml:space="preserve">
<g>
	<path fill="#384B5D" d="M203.9,82.2c-22.7,0-41.1-18.4-41.1-41.1S181.2,0,203.9,0s41.1,18.4,41.1,41.1S226.5,82.2,203.9,82.2z
		 M203.9,18.2c-12.6,0-22.9,10.3-22.9,22.9S191.2,64,203.9,64c12.6,0,22.9-10.3,22.9-22.9S216.5,18.2,203.9,18.2z"/>
</g>
<path fill="#384B5D" d="M86.9,0.1h12.4c1.7,0,3,1.3,3,3v43.6c0,10,2.6,17.2,12.7,17.2c14.8,0,22.2-8.3,22.2-28.1V3.1
	c0-1.7,1.3-3,3-3h12.3c1.7,0,3,1.3,3,3v76.1c0,1.7-1.3,3-3,3h-12.3c-1.7,0-3-1.3-3-3v-7.7c-4,8.5-13.7,10.6-27.7,10.6
	c-17.6,0-25.7-8.9-25.7-31.2V3.1C83.9,1.5,85.2,0.1,86.9,0.1z"/>
<g>
	<path fill="#384B5D" d="M254.4,0.1h12.3c1.7,0,3,1.3,3,3v7.7c0,0,2.5-10.4,25.1-10.7c0.1,0,0.3,0,0.4,0c1.8,0,3.3,1.5,3,3.3
		l-1.6,12.9c0,1.7-1.4,3-3,2.9c-0.6,0-1.2,0-1.8,0c-8.7,0-16.5,5.8-20.4,18c-1.3,4-1.8,8.5-1.8,13.4v28.7c0,1.7-1.3,3-3,3h-12.3
		c-1.7,0-3-1.3-3-3V3.1C251.4,1.5,252.7,0.1,254.4,0.1z"/>
</g>
<path fill="#384B5D" d="M378.2,39.7c-0.4-10.2-4.2-19.1-11.3-26.6c-13.5-14.4-34.8-16.7-50.8-7.4c-14.6,8.5-23.3,25.5-19.8,43.7
	c3,15.4,14.8,28.3,30.7,32.2c0,0,0,0,0,0c25.6,4,33.2-10.2,32.7-10c0.2-0.1,0.1,7.6,0.1,7.6c0,1.7,1.7,3,3.4,3h11.9c1.7,0,3-1.4,3-3
	L378.2,39.7C378.3,39.7,378.2,39.7,378.2,39.7z M314.1,41.3c0.1-12.6,10.5-22.7,23.2-22.7c12.3,0.1,22.5,10.4,22.4,22.9
	c0.1,12.9-10.9,22.4-23.1,22.2C324.2,63.5,314,53.8,314.1,41.3z"/>
<path fill="#384B5D" d="M85.7,80.2C85.7,80.2,85.7,80.2,85.7,80.2C85.7,80.2,85.7,80.2,85.7,80.2C81.5,77,80,71.4,78,64.7
	c-0.1-0.5-0.6-0.8-1.1-0.8L34.7,64c-1,0-1.5-1.1-0.9-1.9L76.6,12c0.2-0.2,0.3-0.5,0.4-0.8V3c0-0.2,0-0.4,0-0.6c0-0.2,0-0.4-0.1-0.5
	c-0.4-1.1-1.5-1.8-4.1-1.8H4.6c-2.1,0-3.8,1.7-3.8,3.8v10.9c0,2.1,1.7,3.8,3.8,3.8h18.9v0h20.6c1,0,1.5,1.1,0.9,1.9L6.4,65.7
	c-3.5,4-7.1,7.9-6.2,12.2c0.2,1.3,0.8,2.5,1.6,3.5c0.5,0.6,1.2,0.9,1.9,0.9l81.3,0C86,82.2,86.5,80.9,85.7,80.2z"/>
</svg>
