<svg width="23" height="23" viewBox="0 0 23 23" fill="none" xmlns="http://www.w3.org/2000/svg">
<g id="Crunchbase">
<path id="Crunchbase icon" d="M19.2882 1.76807H3.72772C2.6581 1.77111 1.78722 2.64199 1.78418 3.7116V19.272C1.78722 20.3417 2.6581 21.2125 3.72772 21.2156H19.2882C20.3578 21.2125 21.2287 20.3417 21.2317 19.272V3.7116C21.2287 2.64199 20.3578 1.77111 19.2882 1.76807ZM7.49446 13.4888C8.35197 13.8814 9.36506 13.5016 9.75766 12.6435H11.1032C10.2645 16.0778 5.20937 15.4701 5.20937 11.9343C5.20937 8.39541 10.2645 7.78768 11.1032 11.225H9.75766C9.26357 10.1396 7.83661 9.8795 6.99429 10.7249C6.14893 11.5666 6.40843 12.9948 7.49446 13.4888ZM16.6864 14.1725C16.43 14.3944 16.1419 14.5651 15.8253 14.6855C14.9167 15.0367 13.8915 14.9231 13.0808 14.3755V14.6855H11.8556V6.12006H13.071V9.44983C13.505 9.15569 14.0082 8.98127 14.5302 8.93994H14.7484C17.5148 8.93387 18.7874 12.3773 16.6858 14.1719L16.6864 14.1725ZM16.5059 11.9318C16.5248 12.8878 15.756 13.676 14.8 13.676C13.8441 13.676 13.0747 12.8878 13.0972 11.9318C13.1446 9.70995 16.4555 9.70995 16.5059 11.9318Z" fill="white"/>
</g>
</svg>
