<svg width="23" height="23" viewBox="0 0 23 23" fill="none" xmlns="http://www.w3.org/2000/svg">
<g id="github icon on dark bg">
<path id="Vector" d="M11.1381 0.884033C4.98605 0.884033 0 5.63265 0 11.4918C0 17.3509 4.98605 22.0995 11.1381 22.0995C17.2902 22.0995 22.2762 17.3509 22.2762 11.4918C22.2762 5.63265 17.2902 0.884033 11.1381 0.884033ZM20.7926 11.4918C20.7926 15.6934 17.8384 19.2362 13.7965 20.3343L13.7269 20.3509V16.9117C13.7269 16.0954 13.4963 15.4987 13.0394 15.1216C13.5485 15.0719 14.014 14.9931 14.4622 14.8813L14.3969 14.8937C14.8711 14.7694 15.2845 14.5995 15.6673 14.3882L15.6412 14.4006C16.0633 14.181 16.4157 13.8992 16.7115 13.5677L16.7159 13.5636C17.003 13.2321 17.238 12.7887 17.4164 12.2376C17.5991 11.6865 17.6861 11.0525 17.6861 10.3398C17.6861 9.3205 17.3381 8.45447 16.6376 7.74177C16.9639 6.97519 16.9291 6.11746 16.5331 5.16856C16.2852 5.09398 15.9284 5.13956 15.4585 5.3053C14.9886 5.47105 14.5883 5.65751 14.2098 5.87713L14.2403 5.86055L13.7356 6.16304C12.9742 5.95586 12.0953 5.83569 11.1903 5.83569C10.2854 5.83569 9.41084 5.95586 8.57983 6.17961L8.6451 6.16304C8.06209 5.10227 6.57845 5.03182 5.83446 5.16442C5.33847 5.91442 5.39938 7.0995 5.74309 7.73762C5.04696 8.45447 4.69454 9.3205 4.69454 10.3357C4.69454 11.0525 4.78591 11.6824 4.9643 12.2293C5.14703 12.7763 5.37762 13.2155 5.66043 13.5553C5.95193 13.8992 6.3087 14.181 6.70898 14.3923L6.72638 14.4006C7.08315 14.5995 7.49648 14.7694 7.93156 14.8854L7.97072 14.8937C8.35794 14.9931 8.81913 15.0719 9.28902 15.1175L9.32818 15.1216C8.97576 15.4241 8.75822 15.8592 8.6799 16.4227C8.51022 16.5014 8.31008 16.5677 8.10124 16.6092L8.08384 16.6133C7.87065 16.6548 7.627 16.6755 7.37901 16.6755H7.33115C7.03964 16.6755 6.74814 16.5843 6.46098 16.402C6.17383 16.2197 5.93018 15.9586 5.72569 15.6147C5.56036 15.3495 5.34717 15.1299 5.09047 14.9641L5.08177 14.96C4.82072 14.7901 4.60318 14.6907 4.42479 14.6575L4.30297 14.6327L4.23771 14.6244C4.12023 14.6244 4.01581 14.6865 3.9636 14.7818L3.9462 14.8108L3.9114 14.9434C3.9114 15.0594 3.98536 15.163 4.08978 15.2086C4.28557 15.2915 4.477 15.4531 4.66409 15.6893C4.82072 15.8757 4.95994 16.0871 5.07307 16.315L5.08177 16.3357L5.21664 16.6257C5.32977 16.9407 5.5299 17.2059 5.7953 17.4006L5.79965 17.4048C6.04765 17.5912 6.34786 17.7238 6.67417 17.7818H6.68722C6.96133 17.8315 7.27894 17.8647 7.60525 17.8688H7.73142C7.94896 17.8688 8.1578 17.8523 8.36664 17.8191L8.34489 17.8233L8.64945 17.7735C8.64945 18.0926 8.6538 18.4655 8.65815 18.8965C8.6625 19.1575 8.6625 19.8661 8.6625 20.3882C4.50746 19.3067 1.48798 15.7349 1.48798 11.4918C1.48798 7.70862 3.88964 4.45586 7.31809 3.04287L7.37901 3.02215C8.48847 2.56221 9.78066 2.29702 11.1381 2.29702C16.4679 2.29702 20.7883 6.41166 20.7883 11.4876L20.7926 11.4918Z" fill="white"/>
</g>
</svg>
