<svg width="24" height="23" viewBox="0 0 24 23" fill="none" xmlns="http://www.w3.org/2000/svg">
<g id="Instagram">
<path id="Instagram icon" d="M11.6511 6.50583C8.89112 6.50583 6.6649 8.73205 6.6649 11.492C6.6649 14.252 8.89112 16.4782 11.6511 16.4782C14.4111 16.4782 16.6373 14.252 16.6373 11.492C16.6373 8.73205 14.4111 6.50583 11.6511 6.50583ZM11.6511 14.7337C9.86753 14.7337 8.40942 13.28 8.40942 11.492C8.40942 9.70412 9.86319 8.25035 11.6511 8.25035C13.439 8.25035 14.8928 9.70412 14.8928 11.492C14.8928 13.28 13.4347 14.7337 11.6511 14.7337ZM18.0043 6.30187C18.0043 6.94847 17.4835 7.46488 16.8413 7.46488C16.199 7.46488 15.6783 6.94413 15.6783 6.30187C15.6783 5.65961 16.199 5.13886 16.8413 5.13886C17.4835 5.13886 18.0043 5.65961 18.0043 6.30187ZM21.3067 7.48224C21.233 5.92432 20.8771 4.54433 19.7358 3.40735C18.5984 2.27038 17.2184 1.91409 15.6605 1.83642C14.0548 1.74528 9.2422 1.74528 7.63654 1.83642C6.08296 1.91019 4.70297 2.26604 3.56165 3.40301C2.42033 4.53999 2.06883 5.91999 1.99071 7.47747C1.89958 9.08312 1.89958 13.8957 1.99071 15.5014C2.06449 17.0593 2.42033 18.4393 3.56165 19.5763C4.70297 20.7133 6.07862 21.0691 7.63654 21.1472C9.2422 21.2384 14.0548 21.2384 15.6605 21.1472C17.2184 21.0735 18.5984 20.7176 19.7354 19.5763C20.8723 18.4393 21.2282 17.0593 21.3063 15.5014C21.3974 13.8957 21.3979 9.0879 21.3067 7.48224ZM19.2324 17.2247C18.8939 18.0752 18.2386 18.7305 17.3837 19.0733C16.1035 19.5811 13.0658 19.4639 11.6511 19.4639C10.2364 19.4639 7.19433 19.5767 5.91849 19.0733C5.06793 18.7348 4.41265 18.0796 4.06982 17.2247C3.56208 15.9445 3.67925 12.9068 3.67925 11.492C3.67925 10.0773 3.56642 7.03526 4.06982 5.75942C4.40831 4.90886 5.06359 4.25358 5.91849 3.91075C7.19867 3.40301 10.2364 3.52018 11.6511 3.52018C13.0658 3.52018 16.1079 3.40735 17.3837 3.91075C18.2343 4.24924 18.8896 4.90452 19.2324 5.75942C19.7401 7.0396 19.623 10.0773 19.623 11.492C19.623 12.9068 19.7401 15.9488 19.2324 17.2247Z" fill="white"/>
</g>
</svg>
