<svg width="24" height="23" viewBox="0 0 24 23" fill="none" xmlns="http://www.w3.org/2000/svg">
<g id="Linkedin">
<g id="Lnkedin icon">
<path d="M20.6524 20.3314H16.9861V14.5879C16.9861 13.2182 16.9622 11.4556 15.0781 11.4556C13.194 11.4556 12.8771 12.9469 12.8771 14.488V20.3314H9.21084V8.5209H12.7295V10.1359H12.7772C13.1289 9.53459 13.639 9.03751 14.2511 8.70323C14.8632 8.36678 15.5535 8.20398 16.2503 8.23003C19.9664 8.23003 20.6524 10.6742 20.6524 13.8542V20.3314Z" fill="white"/>
<path d="M5.07358 6.9081C4.65248 6.9081 4.24222 6.78438 3.89058 6.54995C3.5411 6.31552 3.2676 5.98341 3.10697 5.59486C2.94417 5.20631 2.90293 4.77652 2.98541 4.3641C3.0679 3.95168 3.26977 3.57181 3.56715 3.27443C3.86453 2.97705 4.24439 2.77518 4.65682 2.6927C5.06924 2.61021 5.49686 2.65363 5.88541 2.81425C6.27395 2.97488 6.60606 3.24838 6.84049 3.59786C7.07492 3.94733 7.19865 4.35976 7.19865 4.78086C7.19865 5.34523 6.97507 5.88573 6.57567 6.28513C6.17627 6.68453 5.63578 6.9081 5.07141 6.9081H5.07358Z" fill="white"/>
<path d="M6.90561 8.5209H3.23504V20.3292H6.90561V8.5209Z" fill="white"/>
</g>
</g>
</svg>
