<svg width="161" height="37" viewBox="0 0 161 37" fill="none" xmlns="http://www.w3.org/2000/svg">
<path d="M91.526 28.179C91.0512 27.6401 90.7072 27.0236 90.4979 26.3259C90.2848 25.6282 90.1839 24.6905 90.1839 23.5092V5.81187H94.113V23.0921C94.113 24.4321 94.2588 25.4658 94.5579 26.1967C94.857 26.9092 95.242 27.5183 95.7168 28.024V28.1827H91.5222H91.526V28.179Z" fill="#080216"/>
<path d="M100.382 28.179C99.9749 27.7102 99.6534 27.1454 99.4067 26.4846C99.1786 25.8238 99.0628 24.8308 99.0628 23.5092V15.613H96.8982V12.5305H99.1151V8.20031H102.943V12.5305H105.553V15.613H102.966V23.0662C102.966 24.4543 103.126 25.5174 103.441 26.2484C103.758 26.9608 104.136 27.5515 104.577 28.024V28.1827H100.382V28.179Z" fill="#080216"/>
<path d="M46.1744 12.5158H49.9092V14.4206H50.1185C50.8101 13.2282 52.2569 12.1281 54.4252 12.1281C56.5936 12.1281 58.2198 13.051 59.1245 14.5092H59.3675C60.4517 12.8738 62.0181 12.1281 64.0668 12.1281C67.5623 12.1281 69.8502 14.4834 69.8502 17.7836V28.1754H65.936V19.1236C65.936 16.9788 64.9416 15.7569 63.0761 15.7569C61.2106 15.7569 60.0031 17.097 60.0031 19.2122V28.1754H56.0851V18.8837C56.0851 16.9788 54.9412 15.7569 53.1355 15.7569C51.3298 15.7569 50.0961 17.1856 50.0961 19.179V28.1754H46.1819V12.5158H46.1744Z" fill="#080216"/>
<path d="M72.1083 20.4342C72.1083 15.4911 75.4505 12.1244 80.0899 12.1244C85.178 12.1244 87.9482 15.8492 87.9482 20.257V21.4752H75.8991C76.0187 23.8562 77.6786 25.4658 80.2058 25.4658C82.1312 25.4658 83.6116 24.5687 84.1537 23.2914H87.7987C87.0174 26.4809 84.1836 28.563 80.0862 28.563C75.4168 28.563 72.1045 25.1077 72.1045 20.4305H72.1083V20.4342ZM84.2172 18.7397C84.0378 16.6245 82.3816 15.2254 80.0899 15.2254C77.7983 15.2254 76.2057 16.7721 75.9627 18.7397H84.2172Z" fill="#080216"/>
<path d="M107.377 20.4342C107.377 15.5207 110.39 12.1244 114.727 12.1244C117.467 12.1244 119.004 13.734 119.546 14.535H119.755V12.5084H123.673V28.1717H119.815V26.1782H119.606C119.153 26.8353 117.736 28.5593 114.847 28.5593C110.42 28.5593 107.377 25.2849 107.377 20.4268V20.4342ZM119.849 20.3788C119.849 17.4292 118.043 15.6425 115.572 15.6425C113.101 15.6425 111.355 17.6064 111.355 20.3788C111.355 23.1511 113.071 25.0818 115.602 25.0818C118.133 25.0818 119.845 22.9998 119.845 20.3788H119.849Z" fill="#080216"/>
<path d="M126.929 12.5158H130.664V14.4206H130.874C131.505 13.2578 133.075 12.1281 135.334 12.1281C138.885 12.1281 141.053 14.6015 141.053 17.935V28.179H137.139V18.9465C137.139 17.0416 135.906 15.7569 134.096 15.7569C132.201 15.7569 130.844 17.2483 130.844 19.2122V28.1754H126.929V12.5158Z" fill="#080216"/>
<path d="M143.311 20.3456C143.311 15.6979 146.747 12.1244 151.745 12.1244C156.744 12.1244 160.18 15.6979 160.18 20.3456C160.18 24.9932 156.684 28.5667 151.745 28.5667C146.807 28.5667 143.311 25.0228 143.311 20.3456ZM156.205 20.3456C156.205 17.6359 154.336 15.6425 151.745 15.6425C149.155 15.6425 147.285 17.6359 147.285 20.3456C147.285 23.0552 149.155 25.0486 151.745 25.0486C154.336 25.0486 156.205 23.0847 156.205 20.3456Z" fill="#080216"/>
<path d="M39.1087 7.38817C37.6058 9.40746 34.3757 9.86152 34.0169 8.65807C33.6505 7.45462 35.5309 6.62033 36.5179 6.50589C30.8018 4.95912 31.8373 9.07521 28.6783 9.47021C30.4242 10.3267 32.2411 11.7553 33.4673 11.9288C35.5721 12.2315 38.5217 11.076 39.1087 7.38448" fill="#080216"/>
<path fill-rule="evenodd" clip-rule="evenodd" d="M16.5619 2.21998C16.4535 1.58134 16.0048 1.37831 15.2945 1.09406H15.2908C19.9302 -1.07658 22.8911 0.48864 24.0874 1.4669C24.7492 2.00956 24.9996 2.52638 25.2389 3.01367C25.4296 3.40497 25.609 3.77782 25.9866 4.13221C26.5511 4.6638 27.6054 5.42057 28.0278 5.72328C28.0689 5.75281 28.1063 5.77865 28.1362 5.8008C28.4503 6.02968 28.5848 6.65724 28.297 7.08915C28.0091 7.51737 27.2539 8.39966 26.3417 8.252C25.4333 8.10433 23.4407 7.76102 21.7957 7.48046C20.1546 7.19621 19.0143 6.28439 19.0143 6.28439C18.8087 7.43247 19.5041 8.44765 20.8125 8.78727C21.0667 8.85372 21.3696 8.92017 21.7135 8.99769C23.2538 9.3447 25.5567 9.86521 27.4633 11.076C30.0503 12.7188 32.099 15.3176 32.899 19.3082C33.6991 23.2988 32.7009 31.7525 25.5978 35.2226C18.4947 38.6926 11.7654 36.0052 11.7654 36.0052C18.132 35.7098 21.8593 33.1405 23.2837 31.4313C24.2818 30.2316 25.2239 28.0757 24.652 25.5913C24.0239 22.8669 21.7098 20.7996 19.3545 21.1466C16.9993 21.4936 16.0011 24.026 15.56 25.2553C15.1188 26.4846 14.4309 27.3927 13.829 27.4924C13.2271 27.5921 12.3635 27.6253 11.6046 25.8054C10.8457 23.9854 8.8232 20.7258 6.13897 21.9514C3.45474 23.1733 2.96874 28.8398 2.96874 28.8398C-0.328607 23.6126 -1.16603 16.9124 1.9257 10.4042C5.01743 3.89595 11.4663 1.50013 11.4663 1.50013C10.3111 2.98783 9.0363 7.48784 10.3336 11.5375C11.6308 15.5871 14.8309 17.6175 16.6665 17.8907C18.5021 18.1675 20.6892 17.0859 20.5695 14.8636C20.4723 13.04 18.8947 11.7442 17.2236 10.9838C16.031 10.4411 14.8496 9.19334 14.7674 7.27742C14.6851 5.35781 15.53 4.14698 15.9413 3.66338C16.2665 3.28315 16.6479 2.75895 16.5544 2.21629L16.5619 2.21998ZM21.2163 4.06207C19.863 4.06207 19.2461 4.74501 19.2461 4.74501C19.2498 4.71179 19.2536 4.67118 19.2611 4.62688C19.3171 4.14329 19.4368 3.13549 19.934 2.64451C20.4761 2.10924 21.392 1.70686 22.6818 2.64451C23.9715 3.58217 24.3753 5.29136 24.3753 5.29136C23.9229 4.91113 22.5734 4.06207 21.22 4.06207H21.2163Z" fill="#080216"/>
</svg>
