<svg width="20" height="21" viewBox="0 0 20 21" fill="none" xmlns="http://www.w3.org/2000/svg">
<g id="Slack icon on dark bg">
<path id="Vector" d="M7.32999 0.767822C6.25422 0.767822 5.38752 1.63764 5.38752 2.71257C5.38752 3.22535 5.59279 3.72293 5.95392 4.08757C6.31884 4.45221 6.81301 4.65733 7.32999 4.65733H9.27246V2.71257C9.27246 1.64144 8.40576 0.771621 7.32999 0.767822ZM7.32999 5.95256H2.1412C1.06543 5.95256 0.19873 6.82238 0.19873 7.89731C0.19873 8.97224 1.06923 9.84206 2.1412 9.84206H7.32619C8.40196 9.84206 9.26866 8.97224 9.26866 7.89731C9.27246 6.82618 8.40196 5.95256 7.32999 5.95256ZM12.515 9.84206C13.5908 9.84206 14.4613 8.97224 14.4575 7.89731V2.71257C14.4575 1.63764 13.587 0.767822 12.515 0.767822C11.443 0.767822 10.5725 1.63764 10.5725 2.71257V7.89731C10.5725 8.97604 11.4392 9.84206 12.515 9.84206ZM19.6462 7.89731C19.6462 6.82238 18.7757 5.95256 17.7038 5.95256C16.6318 5.95256 15.7613 6.82238 15.7613 7.89731V9.84206H17.7038C18.7757 9.84206 19.6462 8.97224 19.6462 7.89731ZM17.7 11.1411H12.515C11.4392 11.1411 10.5725 12.0109 10.5725 13.0858C10.5725 13.5986 10.7778 14.0962 11.1389 14.4608C11.5038 14.8255 11.998 15.0306 12.515 15.0306H17.7C18.7757 15.0306 19.6424 14.1608 19.6424 13.0858C19.6462 12.0109 18.7757 11.1411 17.7 11.1411ZM12.515 16.3258H10.5725V18.2706C10.5725 19.3455 11.443 20.2153 12.515 20.2153C13.587 20.2153 14.4613 19.3455 14.4575 18.2706C14.4613 17.1957 13.5908 16.3296 12.515 16.3258ZM7.32999 11.1411C6.25422 11.1411 5.38752 12.0109 5.38752 13.0858V18.2706C5.38752 19.3455 6.25802 20.2153 7.32999 20.2153C8.40196 20.2153 9.27626 19.3455 9.27246 18.2706V13.0858C9.27246 12.5731 9.06719 12.0755 8.70607 11.7108C8.34114 11.3462 7.84317 11.1411 7.32999 11.1411ZM0.19873 13.0858C0.19873 13.5986 0.404001 14.0962 0.765126 14.4608C1.13005 14.8255 1.62422 15.0306 2.1412 15.0306C3.21697 15.0306 4.08747 14.1608 4.08367 13.0858V11.1411H2.1412C1.06923 11.1411 0.19873 12.0109 0.19873 13.0858Z" fill="white"/>
</g>
</svg>
