<svg width="24" height="23" viewBox="0 0 24 23" fill="none" xmlns="http://www.w3.org/2000/svg">
<g id="twitter">
<path id="twitter icon" d="M22.1325 5.41591C21.4116 5.73903 20.642 5.95445 19.8334 6.05237C20.6615 5.55299 21.2947 4.76965 21.5869 3.82964C20.8173 4.28985 19.9601 4.62277 19.0443 4.80882C18.3137 4.02548 17.2811 3.53589 16.1218 3.53589C13.9104 3.53589 12.1276 5.33757 12.1276 7.55051C12.1276 7.86384 12.1666 8.16739 12.2348 8.47093C8.91285 8.30447 5.97083 6.70842 3.99325 4.27027C3.65228 4.86757 3.44771 5.55299 3.44771 6.28737C3.44771 7.6778 4.14911 8.91156 5.23045 9.63615C4.57775 9.61657 3.95428 9.43053 3.41848 9.13677C3.41848 9.15636 3.41848 9.16615 3.41848 9.18573C3.41848 11.1343 4.79207 12.7597 6.62353 13.122C6.29231 13.2101 5.93186 13.2591 5.57142 13.2591C5.31813 13.2591 5.06484 13.2297 4.8213 13.1906C5.32787 14.7866 6.80863 15.9518 8.55241 15.9812C7.18856 17.0583 5.46426 17.7046 3.58409 17.7046C3.26261 17.7046 2.94113 17.685 2.62939 17.6458C4.4024 18.7817 6.49689 19.4475 8.75699 19.4475C16.112 19.4475 20.1257 13.3276 20.1257 8.02051C20.1257 7.84426 20.1257 7.6778 20.1159 7.50155C20.9147 6.93363 21.5967 6.22862 22.1325 5.41591Z" fill="white"/>
</g>
</svg>
