<svg width="24" height="23" viewBox="0 0 24 23" fill="none" xmlns="http://www.w3.org/2000/svg">
<g id="youtube icon">
<path d="M12.0777 19.4872C11.3799 19.4872 5.24008 19.4708 3.52453 19.0029C2.32611 18.6746 1.38215 17.7142 1.06202 16.4994C0.585938 14.7182 0.585938 11.205 0.585938 11.0572C0.585938 10.9095 0.585938 7.38808 1.06202 5.61508C1.37394 4.41665 2.3179 3.46448 3.52453 3.13615C5.24008 2.66827 11.3799 2.65186 12.0777 2.65186C12.7754 2.65186 18.9152 2.66827 20.6308 3.13615C21.8374 3.46448 22.7814 4.41665 23.0933 5.61508C23.5612 7.39629 23.5694 10.9095 23.5694 11.0572C23.5694 11.205 23.5694 14.7182 23.0933 16.4994C22.7732 17.7224 21.8292 18.6828 20.6308 19.0111C18.907 19.479 12.7672 19.4954 12.0777 19.4954V19.4872ZM12.0777 4.29353C10.2554 4.29353 5.23187 4.3674 3.95958 4.72036C3.31112 4.90095 2.81861 5.38524 2.64624 6.0337C2.23582 7.60971 2.22761 11.0244 2.22761 11.0572C2.22761 11.0901 2.22761 14.5129 2.64624 16.0807C2.81861 16.7374 3.31932 17.2463 3.95137 17.4187C5.23187 17.7717 10.2472 17.8455 12.0777 17.8455C13.9081 17.8455 18.9234 17.7717 20.2039 17.4187C20.8442 17.2463 21.3449 16.7292 21.5091 16.0807C21.9195 14.5047 21.9277 11.0901 21.9277 11.0572C21.9277 11.0244 21.9277 7.6015 21.5091 6.0337C21.3367 5.39345 20.8524 4.90095 20.2039 4.72857C18.9234 4.37561 13.9081 4.30174 12.0777 4.30174V4.29353Z" fill="white"/>
<path d="M9.89423 14.2667L15.4677 11.049L9.89423 7.83133V14.2667Z" fill="white"/>
</g>
</svg>
