<?xml version="1.0" encoding="UTF-8"?> <svg xmlns="http://www.w3.org/2000/svg" width="32" height="32" viewBox="0 0 32 32" fill="none"><g clip-path="url(#clip0_4083_41170)"><path d="M30.5984 17.8465C30.9267 16.7995 31.1131 15.6814 31.1131 14.5279C31.1131 8.47644 26.2062 3.56958 20.1547 3.56958C14.1032 3.56958 9.1875 8.47644 9.1875 14.5279" stroke="#F963BC" stroke-width="1.77463" stroke-miterlimit="10" stroke-linecap="round"></path><path d="M10.642 9.071C10.1717 8.99114 9.68368 8.94678 9.18678 8.94678C4.6171 8.94678 0.916992 12.6469 0.916992 17.2166C0.916992 21.7862 4.6171 25.4864 9.18678 25.4864H13.6855" stroke="#F963BC" stroke-width="1.77463" stroke-miterlimit="10" stroke-linecap="round"></path><path d="M27.836 23.0419L29 22.6262V20.3738L27.836 19.9581C27.7227 19.5576 27.564 19.1797 27.3674 18.8169L27.8965 17.6983L26.3017 16.1035L25.1831 16.6326C24.8203 16.436 24.4424 16.2773 24.0419 16.164L23.6262 15H21.3738L20.9581 16.164C20.5576 16.2773 20.1797 16.436 19.8169 16.6326L18.6983 16.1035L17.1035 17.6983L17.6326 18.8169C17.436 19.1797 17.2773 19.5576 17.164 19.9581L16 20.3738V22.6262L17.164 23.0419C17.2773 23.4424 17.436 23.8203 17.6326 24.1831L17.1035 25.3017L18.6983 26.8965L19.8169 26.3674C20.1797 26.564 20.5576 26.7227 20.9581 26.836L21.3738 28H23.6262L24.0419 26.836C24.4424 26.7227 24.8203 26.564 25.1831 26.3674L26.3017 26.8965L27.8965 25.3017L27.3674 24.1831C27.564 23.8203 27.7227 23.4424 27.836 23.0419ZM22.5076 24.5006C20.8523 24.5006 19.507 23.1552 19.507 21.5C19.507 19.8448 20.8523 18.4994 22.5076 18.4994C24.1628 18.4994 25.5081 19.8448 25.5081 21.5C25.5081 23.1552 24.1628 24.5006 22.5076 24.5006Z" fill="#F963BC"></path></g><defs><clipPath id="clip0_4083_41170"><rect width="31.97" height="26.4953" fill="white" transform="translate(0.0302734 2.68237)"></rect></clipPath></defs></svg>
