<?xml version="1.0" encoding="UTF-8"?> <svg xmlns="http://www.w3.org/2000/svg" width="32" height="32" viewBox="0 0 32 32" fill="none"><path d="M2.87988 5.5V25.62" stroke="#F963BC" stroke-width="1.75"></path><path d="M29.25 5.62C29.25 5.62 29.25 5.64 29.25 5.65C29.25 5.67 29.22 5.71 29.17 5.77C29.07 5.89 28.89 6.05 28.59 6.23C27.99 6.59 27.05 6.94 25.82 7.25C23.37 7.86 19.95 8.25 16.13 8.25C12.31 8.25 8.89 7.86 6.44 7.25C5.21 6.94 4.28 6.59 3.67 6.23C3.37 6.05 3.19 5.89 3.09 5.77C3.04 5.71 3.02 5.67 3.01 5.65C3.01 5.64 3.01 5.63 3.01 5.63H3C3 5.63 3 5.61 3 5.6C3 5.58 3.03 5.54 3.08 5.48C3.18 5.36 3.36 5.2 3.66 5.02C4.26 4.66 5.2 4.31 6.43 4C8.88 3.39 12.3 3 16.12 3C19.94 3 23.36 3.39 25.81 4C27.04 4.31 27.97 4.66 28.58 5.02C28.88 5.2 29.06 5.36 29.16 5.48C29.21 5.54 29.23 5.58 29.24 5.6C29.24 5.61 29.24 5.62 29.24 5.62H29.25Z" stroke="#F963BC" stroke-width="1.75"></path><path d="M29.25 25.74C29.25 27.67 23.37 29.24 16.13 29.24C8.89 29.24 3 27.68 3 25.74" stroke="#F963BC" stroke-width="1.75"></path><path d="M29.25 15.24C29.25 17.17 23.37 18.74 16.13 18.74C8.89 18.74 3 17.18 3 15.24" stroke="#F963BC" stroke-width="1.75"></path><path d="M29.25 5.62012V25.7401" stroke="#F963BC" stroke-width="1.75"></path></svg> 