<?xml version="1.0" encoding="UTF-8"?> <svg xmlns="http://www.w3.org/2000/svg" width="32" height="32" viewBox="0 0 32 32" fill="none"><path d="M2.87988 5.5V25.62" stroke="#3A64FA" stroke-width="1.75"></path><path d="M29.1299 5.49988C29.1299 5.49988 29.1299 5.51988 29.1299 5.52988C29.1299 5.54988 29.0999 5.58988 29.0499 5.64988C28.9499 5.76988 28.7699 5.92988 28.4699 6.10988C27.8699 6.46988 26.9299 6.81988 25.6999 7.12988C23.2499 7.73988 19.8299 8.12988 16.0099 8.12988C12.1899 8.12988 8.76988 7.73988 6.31988 7.12988C5.08988 6.81988 4.15988 6.46988 3.54988 6.10988C3.24988 5.92988 3.06988 5.76988 2.96988 5.64988C2.91988 5.58988 2.89988 5.54988 2.88988 5.52988C2.88988 5.51988 2.88988 5.50988 2.88988 5.50988H2.87988C2.87988 5.50988 2.87988 5.48988 2.87988 5.47988C2.87988 5.45988 2.90988 5.41988 2.95988 5.35988C3.05988 5.23988 3.23988 5.07988 3.53988 4.89988C4.13988 4.53988 5.07988 4.18988 6.30988 3.87988C8.75988 3.26988 12.1799 2.87988 15.9999 2.87988C19.8199 2.87988 23.2399 3.26988 25.6899 3.87988C26.9199 4.18988 27.8499 4.53988 28.4599 4.89988C28.7599 5.07988 28.9399 5.23988 29.0399 5.35988C29.0899 5.41988 29.1099 5.45988 29.1199 5.47988C29.1199 5.48988 29.1199 5.49988 29.1199 5.49988H29.1299Z" stroke="#3A64FA" stroke-width="1.75"></path><path d="M29.1299 25.6199C29.1299 27.5499 23.2499 29.1199 16.0099 29.1199C8.76988 29.1199 2.87988 27.5599 2.87988 25.6199" stroke="#3A64FA" stroke-width="1.75"></path><path d="M29.1299 15.1199C29.1299 17.0499 23.2499 18.6199 16.0099 18.6199C8.76988 18.6199 2.87988 17.0599 2.87988 15.1199" stroke="#3A64FA" stroke-width="1.75"></path><path d="M29.1299 5.5V25.62" stroke="#3A64FA" stroke-width="1.75"></path></svg>
