<?xml version="1.0" encoding="UTF-8"?> <svg xmlns="http://www.w3.org/2000/svg" width="32" height="33" viewBox="0 0 32 33" fill="none"><path d="M1.87988 3.5V23.62" stroke="#3A64FA" stroke-width="1.75"></path><path d="M28.1299 3.49988C28.1299 3.49988 28.1299 3.51988 28.1299 3.52988C28.1299 3.54988 28.0999 3.58988 28.0499 3.64988C27.9499 3.76988 27.7699 3.92988 27.4699 4.10988C26.8699 4.46988 25.9299 4.81988 24.6999 5.12988C22.2499 5.73988 18.8299 6.12988 15.0099 6.12988C11.1899 6.12988 7.76988 5.73988 5.31988 5.12988C4.08988 4.81988 3.15988 4.46988 2.54988 4.10988C2.24988 3.92988 2.06988 3.76988 1.96988 3.64988C1.91988 3.58988 1.89988 3.54988 1.88988 3.52988C1.88988 3.51988 1.88988 3.50988 1.88988 3.50988H1.87988C1.87988 3.50988 1.87988 3.48988 1.87988 3.47988C1.87988 3.45988 1.90988 3.41988 1.95988 3.35988C2.05988 3.23988 2.23988 3.07988 2.53988 2.89988C3.13988 2.53988 4.07988 2.18988 5.30988 1.87988C7.75988 1.26988 11.1799 0.879883 14.9999 0.879883C18.8199 0.879883 22.2399 1.26988 24.6899 1.87988C25.9199 2.18988 26.8499 2.53988 27.4599 2.89988C27.7599 3.07988 27.9399 3.23988 28.0399 3.35988C28.0899 3.41988 28.1099 3.45988 28.1199 3.47988C28.1199 3.48988 28.1199 3.49988 28.1199 3.49988H28.1299Z" stroke="#3A64FA" stroke-width="1.75"></path><path d="M15.0096 27.1199C7.75965 27.1199 1.88965 25.5499 1.88965 23.6199" stroke="#3A64FA" stroke-width="1.75"></path><path d="M28.1299 13.1199C28.1299 15.0499 22.2499 16.6199 15.0099 16.6199C7.76988 16.6199 1.87988 15.0599 1.87988 13.1199" stroke="#3A64FA" stroke-width="1.75"></path><path d="M28.1299 3.5V13.12" stroke="#3A64FA" stroke-width="1.75"></path><path d="M24.1696 31.5999C27.6821 31.5999 30.5296 28.7524 30.5296 25.2399C30.5296 21.7274 27.6821 18.8799 24.1696 18.8799C20.657 18.8799 17.8096 21.7274 17.8096 25.2399C17.8096 28.7524 20.657 31.5999 24.1696 31.5999Z" stroke="#3A64FA" stroke-width="1.75"></path><path d="M21.5195 25.24H26.8295" stroke="#3A64FA" stroke-width="1.75"></path><path d="M23.7695 28.1701L26.8295 25.2401L23.7695 22.3201" stroke="#3A64FA" stroke-width="1.75"></path></svg>
