<?xml version="1.0" encoding="UTF-8"?> <svg xmlns="http://www.w3.org/2000/svg" width="32" height="34" viewBox="0 0 32 34" fill="none"><g clip-path="url(#clip0_4083_41271)"><path d="M6.31934 13.9175V25.1062" stroke="#3A64FA" stroke-width="1.75"></path><path d="M25.6807 13.9175V25.1062" stroke="#3A64FA" stroke-width="1.75"></path><path d="M25.6809 13.9173V13.9402C25.6809 13.9402 25.6579 13.9858 25.6233 14.0315C25.5543 14.1228 25.4162 14.237 25.1974 14.3626C24.7485 14.6252 24.0579 14.8764 23.16 15.1047C21.3528 15.55 18.832 15.8354 16.0118 15.8354C13.1917 15.8354 10.6708 15.55 8.86364 15.1047C7.95428 14.8764 7.26364 14.6252 6.82623 14.3626C6.60752 14.237 6.46939 14.1114 6.40033 14.0315C6.36579 13.9858 6.35428 13.963 6.34277 13.9402V13.9173V13.8945C6.34277 13.8945 6.36579 13.8488 6.40033 13.8032C6.46939 13.7118 6.60752 13.5977 6.82623 13.4721C7.27515 13.2095 7.96579 12.9583 8.86364 12.73C10.6708 12.2847 13.1917 11.9993 16.0118 11.9993C18.832 11.9993 21.3528 12.2847 23.16 12.73C24.0694 12.9583 24.76 13.2095 25.1974 13.4721C25.4162 13.5977 25.5543 13.7232 25.6233 13.8032C25.6579 13.8488 25.6694 13.8717 25.6809 13.8945V13.9173Z" stroke="#3A64FA" stroke-width="1.75"></path><path d="M25.6805 19.2949C25.6805 20.7106 21.3524 21.8523 15.9999 21.8523C10.6474 21.8523 6.31934 20.7106 6.31934 19.2949" stroke="#3A64FA" stroke-width="1.75"></path><path d="M25.6805 25.1062C25.6805 26.5219 21.3524 27.6636 15.9999 27.6636C10.6474 27.6636 6.31934 26.5219 6.31934 25.1062" stroke="#3A64FA" stroke-width="1.75"></path><path d="M30.9868 25.6771V12.0679L15.9997 1.23315L1.0127 12.0679V25.6771C1.0127 32.0478 10.4055 32.9954 15.9997 32.9954C21.594 32.9954 30.9868 32.0478 30.9868 25.6771Z" stroke="#3A64FA" stroke-width="1.75"></path></g><defs><clipPath id="clip0_4083_41271"><rect width="32" height="34" fill="white"></rect></clipPath></defs></svg> 