<?xml version="1.0" encoding="utf-8"?>
<!-- Generator: Adobe Illustrator 27.8.1, SVG Export Plug-In . SVG Version: 6.00 Build 0)  -->
<svg version="1.1" id="Layer_1" xmlns="http://www.w3.org/2000/svg" xmlns:xlink="http://www.w3.org/1999/xlink" x="0px" y="0px"
	 viewBox="0 0 527.4 320.8" style="enable-background:new 0 0 527.4 320.8;" xml:space="preserve">
<style type="text/css">
	.st0{fill:url(#SVGID_1_);}
	.st1{fill:none;stroke:#FFFFFF;stroke-width:1.2754;stroke-opacity:0.15;}
	.st2{fill:#080216;fill-opacity:0.75;}
	.st3{fill:#FF5F3C;}
	.st4{fill:none;stroke:#FFFFFF;stroke-width:0.7113;stroke-opacity:0.15;}
	.st5{fill:#FBCC54;}
	.st6{fill:#99CE55;}
	.st7{opacity:0.15;fill:none;stroke:#FFFFFF;stroke-width:1.2754;enable-background:new    ;}

		.st8{fill:none;stroke:url(#SVGID_00000119802956921874550750000000317882286539341499_);stroke-width:1.2754;stroke-linecap:round;stroke-linejoin:round;stroke-dasharray:10.2,10.2;}

		.st9{fill:none;stroke:url(#SVGID_00000178895215663161431590000004503751959692578184_);stroke-width:1.2754;stroke-linecap:round;stroke-linejoin:round;}

		.st10{fill:none;stroke:url(#SVGID_00000163761891829214637230000010348871959529037482_);stroke-width:1.2754;stroke-linecap:round;stroke-linejoin:round;}

		.st11{fill:none;stroke:url(#SVGID_00000035522986974865526590000001517099458075897762_);stroke-width:1.2754;stroke-linecap:round;stroke-linejoin:round;}

		.st12{fill:none;stroke:url(#SVGID_00000089553706122910046980000015159669322049450625_);stroke-width:1.2754;stroke-linecap:round;stroke-linejoin:round;stroke-dasharray:10.2,10.2;}

		.st13{fill:none;stroke:url(#SVGID_00000068659907992107390590000010289249777942021556_);stroke-width:1.2754;stroke-linecap:round;stroke-linejoin:round;stroke-dasharray:10.2,10.2;}

		.st14{fill:none;stroke:url(#SVGID_00000082341286799031817140000000003748841297005213_);stroke-width:1.2754;stroke-linecap:round;stroke-linejoin:round;}

		.st15{fill:none;stroke:url(#SVGID_00000155852180120831503190000003780580932140338853_);stroke-width:1.2754;stroke-linecap:round;stroke-linejoin:round;stroke-dasharray:7.65,7.65;}

		.st16{fill:none;stroke:url(#SVGID_00000063632884656601728460000011775247458643187619_);stroke-width:1.2754;stroke-linecap:round;stroke-linejoin:round;}
	.st17{opacity:0.5;}
	.st18{fill:#FFFFFF;}
	.st19{fill:#18C3FA;}
	.st20{fill:#FFFFFF;fill-opacity:0.7;}
	.st21{fill-rule:evenodd;clip-rule:evenodd;fill:#FFFFFF;fill-opacity:0.7;}
</style>
<g>
	<g>

			<radialGradient id="SVGID_1_" cx="-696.8667" cy="726.9439" r="1.0001" gradientTransform="matrix(-527.9999 -320.827 -450.5298 741.4578 -39908.1484 -762250.75)" gradientUnits="userSpaceOnUse">
			<stop  offset="0" style="stop-color:#FFFFFF;stop-opacity:0.25"/>
			<stop  offset="0.315" style="stop-color:#FFFFFF;stop-opacity:5.000000e-02"/>
		</radialGradient>
		<path class="st0" d="M5.2,0.2h516.3c3.2,0,5.9,2.6,5.9,5.9v309.1c0,3.2-2.6,5.9-5.9,5.9H5.2c-3.2,0-5.9-2.6-5.9-5.9V6
			C-0.6,2.8,2,0.2,5.2,0.2z"/>
		<path class="st1" d="M5.2,0.8h516.3c2.9,0,5.2,2.3,5.2,5.2v309.1c0,2.9-2.3,5.2-5.2,5.2H5.2c-2.9,0-5.2-2.3-5.2-5.2V6
			C0,3.2,2.3,0.8,5.2,0.8z"/>
	</g>
	<path class="st2" d="M201.3,44h311.7c1.6,0,2.9,1.3,2.9,2.9v260.5c0,1.6-1.3,2.9-2.9,2.9H201.3c-1.6,0-2.9-1.3-2.9-2.9V46.9
		C198.3,45.3,199.6,44,201.3,44z"/>
	<path class="st1" d="M201.3,44.6H513c1.3,0,2.3,1,2.3,2.3v260.5c0,1.3-1,2.3-2.3,2.3H201.3c-1.3,0-2.3-1-2.3-2.3V46.9
		C199,45.6,200,44.6,201.3,44.6z"/>
	<circle class="st3" cx="17.4" cy="17.3" r="4.3"/>
	<circle class="st4" cx="17.4" cy="17.3" r="3.9"/>
	<circle class="st5" cx="31.7" cy="17.3" r="4.3"/>
	<circle class="st4" cx="31.7" cy="17.3" r="3.9"/>
	<circle class="st6" cx="45.9" cy="17.3" r="4.3"/>
	<circle class="st4" cx="45.9" cy="17.3" r="3.9"/>
	<path class="st7" d="M525.8,33.3H-0.6"/>
	<path class="st7" d="M186.8,310.3v-277"/>

		<linearGradient id="SVGID_00000083772098360676913200000008119920452067660725_" gradientUnits="userSpaceOnUse" x1="406.9554" y1="315.9491" x2="257.9184" y2="230.6111" gradientTransform="matrix(1 0 0 -1 0 374)">
		<stop  offset="0" style="stop-color:#3A64FA"/>
		<stop  offset="0.9427" style="stop-color:#F963BC"/>
	</linearGradient>

		<path style="fill:none;stroke:url(#SVGID_00000083772098360676913200000008119920452067660725_);stroke-width:1.2754;stroke-linecap:round;stroke-linejoin:round;stroke-dasharray:10.2,10.2;" d="
		M281.2,89.6v50.3h53.6"/>

		<linearGradient id="SVGID_00000166635417362025496620000008747790813170757032_" gradientUnits="userSpaceOnUse" x1="399.0256" y1="300.7084" x2="254.6296" y2="219.1044" gradientTransform="matrix(1 0 0 -1 0 374)">
		<stop  offset="0" style="stop-color:#3A64FA"/>
		<stop  offset="0.9427" style="stop-color:#F963BC"/>
	</linearGradient>

		<path style="fill:none;stroke:url(#SVGID_00000166635417362025496620000008747790813170757032_);stroke-width:1.2754;stroke-linecap:round;stroke-linejoin:round;" d="
		M310.6,112.6h-58.7v54.5h58.7V112.6z"/>

		<linearGradient id="SVGID_00000146471858214249870370000004760324185447061927_" gradientUnits="userSpaceOnUse" x1="336.3368" y1="272.7714" x2="304.2798" y2="200.6164" gradientTransform="matrix(1 0 0 -1 0 374)">
		<stop  offset="0" style="stop-color:#3A64FA"/>
		<stop  offset="0.9427" style="stop-color:#F963BC"/>
	</linearGradient>

		<path style="fill:none;stroke:url(#SVGID_00000146471858214249870370000004760324185447061927_);stroke-width:1.2754;stroke-linecap:round;stroke-linejoin:round;" d="
		M310.6,112.6v54.5l29.3-27.2V85.4L310.6,112.6z"/>

		<linearGradient id="SVGID_00000106835300688051774940000010516836295387032500_" gradientUnits="userSpaceOnUse" x1="316.4928" y1="259.9131" x2="271.1188" y2="293.0721" gradientTransform="matrix(1 0 0 -1 0 374)">
		<stop  offset="0" style="stop-color:#3A64FA"/>
		<stop  offset="0.9427" style="stop-color:#F963BC"/>
	</linearGradient>

		<path style="fill:none;stroke:url(#SVGID_00000106835300688051774940000010516836295387032500_);stroke-width:1.2754;stroke-linecap:round;stroke-linejoin:round;" d="
		M310.6,112.6h-58.7l29.3-27.2h58.7L310.6,112.6z"/>

		<linearGradient id="SVGID_00000010269595530182646050000001627771797655433381_" gradientUnits="userSpaceOnUse" x1="269.8198" y1="184.2728" x2="268.7568" y2="210.8398" gradientTransform="matrix(1 0 0 -1 0 374)">
		<stop  offset="0" style="stop-color:#3A64FA"/>
		<stop  offset="0.9427" style="stop-color:#F963BC"/>
	</linearGradient>

		<path style="fill:none;stroke:url(#SVGID_00000010269595530182646050000001627771797655433381_);stroke-width:1.2754;stroke-linecap:round;stroke-linejoin:round;stroke-dasharray:10.2,10.2;" d="
		M255.7,163.5l25.2-23.8"/>

		<linearGradient id="SVGID_00000144320294757608442270000010094840988275496094_" gradientUnits="userSpaceOnUse" x1="425.9125" y1="285.5679" x2="291.7775" y2="164.5499" gradientTransform="matrix(1 0 0 -1 0 374)">
		<stop  offset="0" style="stop-color:#3A64FA"/>
		<stop  offset="0.9427" style="stop-color:#F963BC"/>
	</linearGradient>

		<path style="fill:none;stroke:url(#SVGID_00000144320294757608442270000010094840988275496094_);stroke-width:1.2754;stroke-linecap:round;stroke-linejoin:round;stroke-dasharray:10.2,10.2;" d="
		M393.5,139.9h-49.1"/>

		<linearGradient id="SVGID_00000049213598254134676490000008252326904540789649_" gradientUnits="userSpaceOnUse" x1="470.7654" y1="255.5276" x2="314.9654" y2="153.4906" gradientTransform="matrix(1 0 0 -1 0 374)">
		<stop  offset="0" style="stop-color:#3A64FA"/>
		<stop  offset="0.9427" style="stop-color:#F963BC"/>
	</linearGradient>

		<path style="fill:none;stroke:url(#SVGID_00000049213598254134676490000008252326904540789649_);stroke-width:1.2754;stroke-linecap:round;stroke-linejoin:round;" d="
		M397.8,164.8c-0.1,8.8,15.2,16.1,34.2,16.2c19,0.1,34.4-6.9,34.5-15.7l0.4-47.8c-0.1,8.8-15.5,15.8-34.5,15.7
		c-19-0.1-34.3-7.4-34.2-16.2L397.8,164.8L397.8,164.8z"/>

		<linearGradient id="SVGID_00000026845089888956021380000017157472870540110482_" gradientUnits="userSpaceOnUse" x1="444.7743" y1="227.017" x2="327.1953" y2="114.161" gradientTransform="matrix(1 0 0 -1 0 374)">
		<stop  offset="0" style="stop-color:#3A64FA"/>
		<stop  offset="0.9427" style="stop-color:#F963BC"/>
	</linearGradient>

		<path style="fill:none;stroke:url(#SVGID_00000026845089888956021380000017157472870540110482_);stroke-width:1.2754;stroke-linecap:round;stroke-linejoin:round;stroke-dasharray:7.65,7.65;" d="
		M403.3,159.2c5.1-5,16.2-8.5,29.1-8.4c12.5,0.1,23.2,3.5,28.5,8.4"/>

		<linearGradient id="SVGID_00000002367995761107611130000004903518372483933585_" gradientUnits="userSpaceOnUse" x1="444.2618" y1="267.9836" x2="317.5148" y2="146.3536" gradientTransform="matrix(1 0 0 -1 0 374)">
		<stop  offset="0" style="stop-color:#3A64FA"/>
		<stop  offset="0.9427" style="stop-color:#F963BC"/>
	</linearGradient>

		<path style="fill:none;stroke:url(#SVGID_00000002367995761107611130000004903518372483933585_);stroke-width:1.2754;stroke-linecap:round;stroke-linejoin:round;" d="
		M467,117.4c-0.1,8.8-15.5,15.8-34.5,15.7c-19-0.1-34.3-7.4-34.2-16.2c0.1-8.8,15.5-15.8,34.5-15.7
		C451.7,101.4,467.1,108.6,467,117.4z"/>
	<g class="st17">
		<path class="st5" d="M16.5,56c-0.3,0-0.6,0-0.8-0.1s-0.4-0.2-0.6-0.4c-0.2-0.2-0.3-0.4-0.4-0.6c-0.1-0.3-0.1-0.5-0.1-0.9
			s0-0.6,0.1-0.9c0.1-0.3,0.2-0.5,0.4-0.7c0.2-0.2,0.4-0.3,0.6-0.4s0.5-0.1,0.8-0.1c0.3,0,0.5,0,0.7,0.1c0.2,0.1,0.4,0.2,0.6,0.4
			c0.2,0.2,0.3,0.4,0.4,0.6c0.1,0.2,0.1,0.5,0.1,0.8v0.3h-2.8v0.1c0,0.3,0.1,0.6,0.3,0.8c0.2,0.2,0.5,0.3,0.8,0.3
			c0.3,0,0.5-0.1,0.7-0.2c0.2-0.1,0.3-0.3,0.4-0.4l0.5,0.5c-0.1,0.2-0.3,0.4-0.6,0.6C17.3,55.9,16.9,56,16.5,56z M16.5,52.5
			c-0.1,0-0.3,0-0.4,0.1c-0.1,0.1-0.2,0.1-0.3,0.2c-0.1,0.1-0.2,0.2-0.2,0.3c-0.1,0.1-0.1,0.3-0.1,0.4v0.1h2v-0.1
			c0-0.3-0.1-0.6-0.3-0.7C17,52.6,16.8,52.5,16.5,52.5z M19.1,55.9l1.5-2L19.1,52h1l0.5,0.7l0.4,0.6h0l0.4-0.6L22,52h0.9l-1.4,1.9
			l1.5,2h-1l-0.6-0.8L21,54.5h0l-0.4,0.6L20,55.9H19.1z M23.9,52h0.8v0.7h0c0.1-0.2,0.3-0.4,0.5-0.6c0.2-0.1,0.4-0.2,0.7-0.2
			c0.5,0,0.8,0.2,1.1,0.5c0.3,0.3,0.4,0.9,0.4,1.5c0,0.7-0.1,1.2-0.4,1.5C26.8,55.8,26.5,56,26,56c-0.3,0-0.5-0.1-0.7-0.2
			c-0.2-0.1-0.3-0.3-0.5-0.6h0v2.2h-0.8V52z M25.7,55.3c0.3,0,0.6-0.1,0.7-0.3c0.2-0.2,0.3-0.5,0.3-0.8v-0.6c0-0.3-0.1-0.6-0.3-0.8
			c-0.2-0.2-0.4-0.3-0.7-0.3c-0.1,0-0.2,0-0.3,0c-0.1,0-0.2,0.1-0.3,0.1c-0.1,0.1-0.1,0.1-0.2,0.2c0,0.1-0.1,0.2-0.1,0.3v1.3
			c0,0.1,0,0.2,0.1,0.3c0.1,0.1,0.1,0.2,0.2,0.2s0.2,0.1,0.3,0.1C25.4,55.3,25.5,55.3,25.7,55.3z M30.2,56c-0.3,0-0.6,0-0.8-0.1
			c-0.2-0.1-0.4-0.2-0.6-0.4c-0.2-0.2-0.3-0.4-0.4-0.7c-0.1-0.3-0.1-0.5-0.1-0.9s0-0.6,0.1-0.9c0.1-0.3,0.2-0.5,0.4-0.7
			c0.2-0.2,0.4-0.3,0.6-0.4c0.2-0.1,0.5-0.1,0.8-0.1c0.3,0,0.6,0,0.8,0.1c0.2,0.1,0.4,0.2,0.6,0.4c0.2,0.2,0.3,0.4,0.4,0.7
			c0.1,0.3,0.1,0.5,0.1,0.9s0,0.6-0.1,0.9c-0.1,0.3-0.2,0.5-0.4,0.7c-0.2,0.2-0.4,0.3-0.6,0.4C30.8,56,30.5,56,30.2,56z M30.2,55.3
			c0.3,0,0.5-0.1,0.7-0.3c0.2-0.2,0.3-0.5,0.3-0.8v-0.6c0-0.4-0.1-0.6-0.3-0.8c-0.2-0.2-0.4-0.3-0.7-0.3c-0.3,0-0.6,0.1-0.7,0.3
			c-0.2,0.2-0.3,0.5-0.3,0.8v0.6c0,0.4,0.1,0.6,0.3,0.8C29.7,55.3,29.9,55.3,30.2,55.3z M33.1,55.2h1v-2.6h-1V52H35v1h0
			c0-0.1,0.1-0.3,0.2-0.4c0.1-0.1,0.2-0.2,0.3-0.3c0.1-0.1,0.2-0.2,0.4-0.2c0.1-0.1,0.3-0.1,0.5-0.1h0.5v0.8H36
			c-0.3,0-0.6,0.1-0.7,0.3c-0.2,0.2-0.3,0.4-0.3,0.7v1.5h1.4v0.7h-3.3V55.2z M39.6,55.9c-0.3,0-0.6-0.1-0.8-0.3
			c-0.2-0.2-0.2-0.4-0.2-0.7v-2.3h-1.2V52h0.9c0.1,0,0.3,0,0.3-0.1c0.1-0.1,0.1-0.2,0.1-0.3v-1h0.8V52h1.7v0.7h-1.7v2.6h1.7v0.7
			H39.6z"/>
		<path class="st18" d="M132,55.2L132,55.2c-0.2,0.2-0.3,0.4-0.5,0.6c-0.2,0.1-0.4,0.2-0.7,0.2c-0.5,0-0.8-0.2-1.1-0.5
			c-0.3-0.3-0.4-0.9-0.4-1.5c0-0.7,0.1-1.2,0.4-1.5c0.3-0.3,0.6-0.5,1.1-0.5c0.3,0,0.5,0.1,0.7,0.2c0.2,0.1,0.3,0.3,0.5,0.6h0v-2.4
			h0.8v5.7H132V55.2z M131.1,55.3c0.1,0,0.2,0,0.3,0c0.1,0,0.2-0.1,0.3-0.1s0.1-0.1,0.2-0.2c0.1-0.1,0.1-0.2,0.1-0.3v-1.3
			c0-0.1,0-0.2-0.1-0.3c0-0.1-0.1-0.2-0.2-0.2c-0.1-0.1-0.2-0.1-0.3-0.1c-0.1,0-0.2,0-0.3,0c-0.3,0-0.6,0.1-0.7,0.3
			c-0.2,0.2-0.3,0.5-0.3,0.8v0.6c0,0.3,0.1,0.6,0.3,0.8C130.5,55.2,130.8,55.3,131.1,55.3z M135.8,56c-0.3,0-0.6,0-0.8-0.1
			c-0.2-0.1-0.4-0.2-0.6-0.4c-0.2-0.2-0.3-0.4-0.4-0.6c-0.1-0.3-0.1-0.5-0.1-0.9s0-0.6,0.1-0.9c0.1-0.3,0.2-0.5,0.4-0.7
			c0.2-0.2,0.4-0.3,0.6-0.4c0.2-0.1,0.5-0.1,0.8-0.1c0.3,0,0.5,0,0.8,0.1c0.2,0.1,0.4,0.2,0.6,0.4c0.2,0.2,0.3,0.4,0.4,0.6
			c0.1,0.2,0.1,0.5,0.1,0.8v0.3h-2.8v0.1c0,0.3,0.1,0.6,0.3,0.8c0.2,0.2,0.5,0.3,0.8,0.3c0.3,0,0.5-0.1,0.6-0.2
			c0.2-0.1,0.3-0.3,0.4-0.4l0.5,0.5c-0.1,0.2-0.3,0.4-0.6,0.6C136.6,55.9,136.2,56,135.8,56z M135.8,52.5c-0.1,0-0.3,0-0.4,0.1
			c-0.1,0.1-0.2,0.1-0.3,0.2c-0.1,0.1-0.2,0.2-0.2,0.3c-0.1,0.1-0.1,0.3-0.1,0.4v0.1h2v-0.1c0-0.3-0.1-0.6-0.3-0.7
			C136.3,52.6,136,52.5,135.8,52.5z M138.6,50.2h0.8v2.4h0c0.1-0.2,0.3-0.4,0.5-0.6c0.2-0.1,0.4-0.2,0.7-0.2c0.5,0,0.8,0.2,1.1,0.5
			c0.3,0.3,0.4,0.9,0.4,1.5c0,0.7-0.1,1.2-0.4,1.5c-0.3,0.3-0.6,0.5-1.1,0.5c-0.3,0-0.5-0.1-0.7-0.2c-0.2-0.1-0.3-0.3-0.5-0.6h0v0.7
			h-0.8V50.2z M140.4,55.3c0.3,0,0.6-0.1,0.7-0.3c0.2-0.2,0.3-0.5,0.3-0.8v-0.6c0-0.3-0.1-0.6-0.3-0.8c-0.2-0.2-0.4-0.3-0.7-0.3
			c-0.1,0-0.2,0-0.3,0c-0.1,0-0.2,0.1-0.3,0.1c-0.1,0.1-0.1,0.1-0.2,0.2c0,0.1-0.1,0.2-0.1,0.3v1.3c0,0.1,0,0.2,0.1,0.3
			c0.1,0.1,0.1,0.2,0.2,0.2c0.1,0.1,0.2,0.1,0.3,0.1C140.1,55.3,140.2,55.3,140.4,55.3z M145.7,55.2L145.7,55.2
			c-0.1,0.1-0.1,0.2-0.2,0.3c-0.1,0.1-0.1,0.2-0.2,0.2c-0.1,0.1-0.2,0.1-0.3,0.2c-0.1,0-0.3,0.1-0.4,0.1c-0.4,0-0.7-0.1-1-0.4
			c-0.2-0.3-0.4-0.6-0.4-1.1V52h0.8v2.4c0,0.6,0.3,0.9,0.8,0.9c0.1,0,0.2,0,0.3,0c0.1,0,0.2-0.1,0.3-0.1c0.1-0.1,0.1-0.1,0.2-0.2
			c0.1-0.1,0.1-0.2,0.1-0.3V52h0.8v3.9h-0.8V55.2z M151.6,56.3c0,0.4-0.2,0.7-0.5,0.9c-0.3,0.2-0.9,0.3-1.6,0.3
			c-0.3,0-0.6,0-0.9-0.1c-0.2,0-0.4-0.1-0.6-0.2c-0.1-0.1-0.2-0.2-0.3-0.3c-0.1-0.1-0.1-0.2-0.1-0.4c0-0.2,0.1-0.4,0.2-0.5
			c0.1-0.1,0.3-0.2,0.5-0.3v-0.1c-0.1-0.1-0.2-0.1-0.3-0.2c-0.1-0.1-0.1-0.2-0.1-0.4c0-0.2,0.1-0.3,0.2-0.4c0.1-0.1,0.3-0.2,0.5-0.2
			v0c-0.2-0.1-0.4-0.3-0.6-0.5c-0.1-0.2-0.2-0.4-0.2-0.7c0-0.2,0-0.4,0.1-0.6c0.1-0.2,0.2-0.3,0.3-0.4c0.1-0.1,0.3-0.2,0.5-0.3
			c0.2-0.1,0.4-0.1,0.7-0.1c0.3,0,0.5,0,0.7,0.1v-0.1c0-0.2,0-0.3,0.1-0.4c0.1-0.1,0.2-0.2,0.4-0.2h0.7V52h-0.9v0.2
			c0.2,0.1,0.3,0.3,0.4,0.5c0.1,0.2,0.1,0.4,0.1,0.6c0,0.2,0,0.4-0.1,0.6c-0.1,0.2-0.2,0.3-0.3,0.4c-0.1,0.1-0.3,0.2-0.5,0.3
			c-0.2,0.1-0.4,0.1-0.7,0.1c-0.2,0-0.3,0-0.5,0c-0.1,0-0.2,0.1-0.3,0.1c-0.1,0.1-0.1,0.1-0.1,0.3c0,0.1,0.1,0.2,0.2,0.2
			c0.1,0,0.3,0,0.4,0h0.9c0.5,0,0.9,0.1,1.1,0.3C151.4,55.8,151.6,56,151.6,56.3z M150.8,56.4c0-0.1-0.1-0.2-0.2-0.3
			c-0.1-0.1-0.3-0.1-0.6-0.1h-1.4c-0.2,0.1-0.3,0.2-0.3,0.4c0,0.1,0.1,0.3,0.2,0.4c0.1,0.1,0.3,0.2,0.6,0.2h0.6c0.3,0,0.6,0,0.7-0.1
			C150.7,56.7,150.8,56.6,150.8,56.4z M149.5,54.1c0.3,0,0.5-0.1,0.6-0.2c0.1-0.1,0.2-0.3,0.2-0.5v-0.2c0-0.2-0.1-0.4-0.2-0.5
			c-0.1-0.1-0.3-0.2-0.6-0.2c-0.3,0-0.5,0.1-0.6,0.2c-0.1,0.1-0.2,0.3-0.2,0.5v0.2c0,0.2,0.1,0.4,0.2,0.5
			C149,54,149.2,54.1,149.5,54.1z M14.5,81.9V78h0.7v0.5h0c0.1-0.2,0.1-0.3,0.3-0.4c0.1-0.1,0.3-0.2,0.5-0.2c0.2,0,0.4,0.1,0.5,0.2
			c0.1,0.1,0.2,0.3,0.2,0.5h0c0.1-0.2,0.2-0.3,0.3-0.5c0.1-0.1,0.3-0.2,0.6-0.2c0.3,0,0.5,0.1,0.6,0.3c0.1,0.2,0.2,0.5,0.2,0.9v2.8
			h-0.7v-2.7c0-0.3,0-0.5-0.1-0.6c-0.1-0.1-0.2-0.2-0.3-0.2c-0.1,0-0.2,0-0.3,0.1c-0.1,0.1-0.1,0.2-0.1,0.4v2.9h-0.7v-2.7
			c0-0.3,0-0.5-0.1-0.6c-0.1-0.1-0.2-0.2-0.3-0.2c-0.1,0-0.3,0-0.3,0.1c-0.1,0.1-0.1,0.2-0.1,0.4v2.9H14.5z M21.1,82
			c-0.3,0-0.6,0-0.8-0.1c-0.2-0.1-0.4-0.2-0.6-0.4c-0.2-0.2-0.3-0.4-0.4-0.6c-0.1-0.3-0.1-0.5-0.1-0.9s0-0.6,0.1-0.9
			c0.1-0.3,0.2-0.5,0.4-0.7c0.2-0.2,0.4-0.3,0.6-0.4c0.2-0.1,0.5-0.1,0.8-0.1c0.3,0,0.5,0,0.8,0.1c0.2,0.1,0.4,0.2,0.6,0.4
			c0.2,0.2,0.3,0.4,0.4,0.6c0.1,0.2,0.1,0.5,0.1,0.8v0.3H20v0.1c0,0.3,0.1,0.6,0.3,0.8c0.2,0.2,0.5,0.3,0.8,0.3
			c0.3,0,0.5-0.1,0.7-0.2c0.2-0.1,0.3-0.3,0.4-0.4l0.5,0.5c-0.1,0.2-0.3,0.4-0.6,0.6C21.9,81.9,21.5,82,21.1,82z M21,78.5
			c-0.1,0-0.3,0-0.4,0.1c-0.1,0.1-0.2,0.1-0.3,0.2c-0.1,0.1-0.2,0.2-0.2,0.3c-0.1,0.1-0.1,0.3-0.1,0.4v0.1h2v-0.1
			c0-0.3-0.1-0.6-0.3-0.7C21.6,78.6,21.3,78.5,21,78.5z M23.9,81.2h1.3v-4.3h-1.3v-0.7H26v5h1.3v0.7h-3.5V81.2z M30.4,81.9
			c-0.3,0-0.6-0.1-0.8-0.3c-0.2-0.2-0.2-0.4-0.2-0.7v-2.3h-1.2V78h0.9c0.1,0,0.3,0,0.3-0.1c0.1-0.1,0.1-0.2,0.1-0.3v-1h0.8V78h1.7
			v0.7h-1.7v2.6h1.7v0.7H30.4z M36.3,81.9c-0.2,0-0.4-0.1-0.5-0.2c-0.1-0.1-0.2-0.3-0.2-0.5h0c-0.1,0.2-0.2,0.4-0.4,0.6
			c-0.2,0.1-0.5,0.2-0.8,0.2c-0.4,0-0.7-0.1-1-0.3c-0.2-0.2-0.4-0.5-0.4-0.9c0-0.4,0.1-0.7,0.4-0.9c0.3-0.2,0.7-0.3,1.3-0.3h0.8
			v-0.3c0-0.5-0.3-0.8-0.8-0.8c-0.3,0-0.5,0.1-0.6,0.2c-0.2,0.1-0.3,0.2-0.4,0.4l-0.5-0.4c0.1-0.2,0.3-0.4,0.6-0.6
			c0.3-0.2,0.6-0.2,1-0.2c0.5,0,0.9,0.1,1.2,0.4c0.3,0.2,0.4,0.6,0.4,1v2h0.5v0.7H36.3z M34.5,81.4c0.3,0,0.5-0.1,0.7-0.2
			c0.2-0.1,0.3-0.3,0.3-0.5v-0.6h-0.7c-0.6,0-0.9,0.2-0.9,0.5v0.2c0,0.2,0.1,0.3,0.2,0.4C34.1,81.3,34.3,81.4,34.5,81.4z M37.7,81.9
			V78h0.8v0.7h0c0-0.1,0.1-0.2,0.2-0.3c0.1-0.1,0.1-0.2,0.2-0.2c0.1-0.1,0.2-0.1,0.3-0.2c0.1,0,0.3-0.1,0.4-0.1c0.4,0,0.7,0.1,1,0.4
			c0.2,0.3,0.4,0.6,0.4,1.1v2.5h-0.8v-2.4c0-0.6-0.3-0.9-0.8-0.9c-0.1,0-0.2,0-0.3,0c-0.1,0-0.2,0.1-0.3,0.1s-0.1,0.1-0.2,0.2
			c0,0.1-0.1,0.2-0.1,0.3v2.7H37.7z M44,82c-0.3,0-0.6,0-0.8-0.1c-0.2-0.1-0.4-0.2-0.6-0.4c-0.2-0.2-0.3-0.4-0.4-0.7
			c-0.1-0.3-0.1-0.5-0.1-0.9c0-0.3,0-0.6,0.1-0.9c0.1-0.3,0.2-0.5,0.4-0.7c0.2-0.2,0.4-0.3,0.6-0.4c0.2-0.1,0.5-0.1,0.8-0.1
			c0.3,0,0.6,0,0.8,0.1c0.2,0.1,0.4,0.2,0.6,0.4c0.2,0.2,0.3,0.4,0.4,0.7c0.1,0.3,0.1,0.5,0.1,0.9c0,0.3,0,0.6-0.1,0.9
			c-0.1,0.3-0.2,0.5-0.4,0.7c-0.2,0.2-0.4,0.3-0.6,0.4C44.5,82,44.3,82,44,82z M44,81.3c0.3,0,0.5-0.1,0.7-0.3
			c0.2-0.2,0.3-0.5,0.3-0.8v-0.6c0-0.4-0.1-0.6-0.3-0.8c-0.2-0.2-0.4-0.3-0.7-0.3c-0.3,0-0.6,0.1-0.7,0.3C43.1,79,43,79.3,43,79.6
			v0.6c0,0.4,0.1,0.6,0.3,0.8C43.4,81.3,43.7,81.3,44,81.3z M51.4,81.2h1v-2.6h-1V78h1.9v1h0c0-0.1,0.1-0.3,0.2-0.4
			c0.1-0.1,0.2-0.2,0.3-0.3c0.1-0.1,0.2-0.2,0.4-0.2c0.1-0.1,0.3-0.1,0.5-0.1h0.5v0.8h-0.8c-0.3,0-0.6,0.1-0.7,0.3
			c-0.2,0.2-0.3,0.4-0.3,0.7v1.5h1.4v0.7h-3.3V81.2z M58.5,81.2L58.5,81.2c-0.1,0.1-0.1,0.2-0.2,0.3c-0.1,0.1-0.1,0.2-0.2,0.2
			c-0.1,0.1-0.2,0.1-0.3,0.2c-0.1,0-0.3,0.1-0.4,0.1c-0.4,0-0.7-0.1-1-0.4C56.2,81.4,56,81,56,80.5V78h0.8v2.4
			c0,0.6,0.3,0.9,0.8,0.9c0.1,0,0.2,0,0.3,0c0.1,0,0.2-0.1,0.3-0.1c0.1-0.1,0.1-0.1,0.2-0.2c0.1-0.1,0.1-0.2,0.1-0.3V78h0.8v3.9
			h-0.8V81.2z M60.7,81.9V78h0.8v0.7h0c0-0.1,0.1-0.2,0.2-0.3c0.1-0.1,0.1-0.2,0.2-0.2c0.1-0.1,0.2-0.1,0.3-0.2
			c0.1,0,0.3-0.1,0.4-0.1c0.4,0,0.7,0.1,1,0.4c0.2,0.3,0.4,0.6,0.4,1.1v2.5h-0.8v-2.4c0-0.6-0.3-0.9-0.8-0.9c-0.1,0-0.2,0-0.3,0
			c-0.1,0-0.2,0.1-0.3,0.1c-0.1,0.1-0.1,0.1-0.2,0.2c0,0.1-0.1,0.2-0.1,0.3v2.7H60.7z M71.7,81.9c-0.3,0-0.6-0.1-0.8-0.3
			c-0.2-0.2-0.2-0.4-0.2-0.7v-2.3h-1.2V78h0.9c0.1,0,0.3,0,0.3-0.1c0.1-0.1,0.1-0.2,0.1-0.3v-1h0.8V78h1.7v0.7h-1.7v2.6h1.7v0.7
			H71.7z M77.6,81.9c-0.2,0-0.4-0.1-0.5-0.2c-0.1-0.1-0.2-0.3-0.2-0.5h0c-0.1,0.2-0.2,0.4-0.4,0.6c-0.2,0.1-0.5,0.2-0.8,0.2
			c-0.4,0-0.7-0.1-1-0.3c-0.2-0.2-0.4-0.5-0.4-0.9c0-0.4,0.1-0.7,0.4-0.9c0.3-0.2,0.7-0.3,1.3-0.3h0.8v-0.3c0-0.5-0.3-0.8-0.8-0.8
			c-0.3,0-0.5,0.1-0.6,0.2c-0.2,0.1-0.3,0.2-0.4,0.4l-0.5-0.4c0.1-0.2,0.3-0.4,0.6-0.6c0.3-0.2,0.6-0.2,1-0.2c0.5,0,0.9,0.1,1.2,0.4
			c0.3,0.2,0.4,0.6,0.4,1v2h0.5v0.7H77.6z M75.8,81.4c0.3,0,0.5-0.1,0.7-0.2c0.2-0.1,0.3-0.3,0.3-0.5v-0.6H76
			c-0.6,0-0.9,0.2-0.9,0.5v0.2c0,0.2,0.1,0.3,0.2,0.4C75.4,81.3,75.6,81.4,75.8,81.4z M79,78h0.8v0.7h0c0.1-0.2,0.3-0.4,0.5-0.6
			c0.2-0.1,0.4-0.2,0.7-0.2c0.5,0,0.8,0.2,1.1,0.5c0.3,0.3,0.4,0.9,0.4,1.5c0,0.7-0.1,1.2-0.4,1.5c-0.3,0.3-0.6,0.5-1.1,0.5
			c-0.3,0-0.5-0.1-0.7-0.2c-0.2-0.1-0.3-0.3-0.5-0.6h0v2.2H79V78z M80.7,81.3c0.3,0,0.6-0.1,0.7-0.3c0.2-0.2,0.3-0.5,0.3-0.8v-0.6
			c0-0.3-0.1-0.6-0.3-0.8c-0.2-0.2-0.4-0.3-0.7-0.3c-0.1,0-0.2,0-0.3,0s-0.2,0.1-0.3,0.1c-0.1,0.1-0.1,0.1-0.2,0.2
			c0,0.1-0.1,0.2-0.1,0.3v1.3c0,0.1,0,0.2,0.1,0.3c0.1,0.1,0.1,0.2,0.2,0.2c0.1,0.1,0.2,0.1,0.3,0.1C80.5,81.3,80.6,81.3,80.7,81.3z
			 M84.1,80v-0.8h2.3V80H84.1z M91.9,82.3c0,0.4-0.2,0.7-0.5,0.9c-0.3,0.2-0.9,0.3-1.6,0.3c-0.3,0-0.6,0-0.9-0.1
			c-0.2,0-0.4-0.1-0.6-0.2c-0.1-0.1-0.2-0.2-0.3-0.3C88,82.9,88,82.7,88,82.6c0-0.2,0.1-0.4,0.2-0.5c0.1-0.1,0.3-0.2,0.5-0.3v-0.1
			c-0.1-0.1-0.2-0.1-0.3-0.2c-0.1-0.1-0.1-0.2-0.1-0.4c0-0.2,0.1-0.3,0.2-0.4c0.1-0.1,0.3-0.2,0.5-0.2v0c-0.2-0.1-0.4-0.3-0.6-0.5
			c-0.1-0.2-0.2-0.4-0.2-0.7c0-0.2,0-0.4,0.1-0.6c0.1-0.2,0.2-0.3,0.3-0.4c0.1-0.1,0.3-0.2,0.5-0.3c0.2-0.1,0.4-0.1,0.7-0.1
			c0.3,0,0.5,0,0.7,0.1v-0.1c0-0.2,0-0.3,0.1-0.4c0.1-0.1,0.2-0.2,0.4-0.2h0.7V78h-0.9v0.2c0.2,0.1,0.3,0.3,0.4,0.5
			c0.1,0.2,0.1,0.4,0.1,0.6c0,0.2,0,0.4-0.1,0.6c-0.1,0.2-0.2,0.3-0.3,0.4c-0.1,0.1-0.3,0.2-0.5,0.3c-0.2,0.1-0.4,0.1-0.7,0.1
			c-0.2,0-0.3,0-0.5,0c-0.1,0-0.2,0.1-0.3,0.1c-0.1,0.1-0.1,0.1-0.1,0.3c0,0.1,0.1,0.2,0.2,0.2c0.1,0,0.3,0,0.4,0h0.9
			c0.5,0,0.9,0.1,1.1,0.3C91.8,81.8,91.9,82,91.9,82.3z M91.1,82.4c0-0.1-0.1-0.2-0.2-0.3C90.9,82,90.7,82,90.4,82H89
			c-0.2,0.1-0.3,0.2-0.3,0.4c0,0.1,0.1,0.3,0.2,0.4c0.1,0.1,0.3,0.2,0.6,0.2h0.6c0.3,0,0.6,0,0.7-0.1C91.1,82.7,91.1,82.6,91.1,82.4
			z M89.8,80.1c0.3,0,0.5-0.1,0.6-0.2c0.1-0.1,0.2-0.3,0.2-0.5v-0.2c0-0.2-0.1-0.4-0.2-0.5c-0.1-0.1-0.3-0.2-0.6-0.2
			c-0.3,0-0.5,0.1-0.6,0.2c-0.1,0.1-0.2,0.3-0.2,0.5v0.2c0,0.2,0.1,0.4,0.2,0.5C89.3,80,89.5,80.1,89.8,80.1z M94.7,77.2
			c-0.2,0-0.4,0-0.5-0.1c-0.1-0.1-0.1-0.2-0.1-0.3v-0.2c0-0.1,0-0.2,0.1-0.3c0.1-0.1,0.2-0.1,0.4-0.1c0.2,0,0.4,0,0.4,0.1
			c0.1,0.1,0.1,0.2,0.1,0.3v0.2c0,0.1,0,0.2-0.1,0.3C95,77.2,94.9,77.2,94.7,77.2z M92.9,81.2h1.3v-2.6h-1.3V78h2.2v3.3h1.3v0.7
			h-3.4V81.2z M99.3,81.9c-0.3,0-0.6-0.1-0.8-0.3c-0.2-0.2-0.2-0.4-0.2-0.7v-2.3H97V78h0.9c0.1,0,0.3,0,0.3-0.1
			c0.1-0.1,0.1-0.2,0.1-0.3v-1h0.8V78h1.7v0.7h-1.7v2.6h1.7v0.7H99.3z M102,76.2h0.8v2.4h0c0-0.1,0.1-0.2,0.2-0.3
			c0.1-0.1,0.1-0.2,0.2-0.2c0.1-0.1,0.2-0.1,0.3-0.2c0.1,0,0.3-0.1,0.4-0.1c0.4,0,0.7,0.1,1,0.4c0.2,0.3,0.4,0.6,0.4,1.1v2.5h-0.8
			v-2.4c0-0.6-0.3-0.9-0.8-0.9c-0.1,0-0.2,0-0.3,0c-0.1,0-0.2,0.1-0.3,0.1c-0.1,0.1-0.1,0.1-0.2,0.2c0,0.1-0.1,0.2-0.1,0.3v2.7H102
			V76.2z M109,81.2L109,81.2c-0.1,0.1-0.1,0.2-0.2,0.3c-0.1,0.1-0.1,0.2-0.2,0.2c-0.1,0.1-0.2,0.1-0.3,0.2c-0.1,0-0.3,0.1-0.4,0.1
			c-0.4,0-0.7-0.1-1-0.4c-0.2-0.3-0.4-0.6-0.4-1.1V78h0.8v2.4c0,0.6,0.3,0.9,0.8,0.9c0.1,0,0.2,0,0.3,0c0.1,0,0.2-0.1,0.3-0.1
			c0.1-0.1,0.1-0.1,0.2-0.2c0.1-0.1,0.1-0.2,0.1-0.3V78h0.8v3.9H109V81.2z M111.1,76.2h0.8v2.4h0c0.1-0.2,0.3-0.4,0.5-0.6
			c0.2-0.1,0.4-0.2,0.7-0.2c0.5,0,0.8,0.2,1.1,0.5c0.3,0.3,0.4,0.9,0.4,1.5c0,0.7-0.1,1.2-0.4,1.5c-0.3,0.3-0.6,0.5-1.1,0.5
			c-0.3,0-0.5-0.1-0.7-0.2c-0.2-0.1-0.3-0.3-0.5-0.6h0v0.7h-0.8V76.2z M112.8,81.3c0.3,0,0.6-0.1,0.7-0.3c0.2-0.2,0.3-0.5,0.3-0.8
			v-0.6c0-0.3-0.1-0.6-0.3-0.8c-0.2-0.2-0.4-0.3-0.7-0.3c-0.1,0-0.2,0-0.3,0c-0.1,0-0.2,0.1-0.3,0.1c-0.1,0.1-0.1,0.1-0.2,0.2
			c0,0.1-0.1,0.2-0.1,0.3v1.3c0,0.1,0,0.2,0.1,0.3c0.1,0.1,0.1,0.2,0.2,0.2c0.1,0.1,0.2,0.1,0.3,0.1
			C112.6,81.3,112.7,81.3,112.8,81.3z M122.2,81.9c-0.3,0-0.6-0.1-0.8-0.3c-0.2-0.2-0.2-0.4-0.2-0.7v-2.3H120V78h0.9
			c0.1,0,0.3,0,0.3-0.1c0.1-0.1,0.1-0.2,0.1-0.3v-1h0.8V78h1.7v0.7H122v2.6h1.7v0.7H122.2z M128,81.9c-0.2,0-0.4-0.1-0.5-0.2
			c-0.1-0.1-0.2-0.3-0.2-0.5h0c-0.1,0.2-0.2,0.4-0.4,0.6c-0.2,0.1-0.5,0.2-0.8,0.2c-0.4,0-0.7-0.1-1-0.3c-0.2-0.2-0.4-0.5-0.4-0.9
			c0-0.4,0.1-0.7,0.4-0.9c0.3-0.2,0.7-0.3,1.3-0.3h0.8v-0.3c0-0.5-0.3-0.8-0.8-0.8c-0.3,0-0.5,0.1-0.6,0.2c-0.2,0.1-0.3,0.2-0.4,0.4
			l-0.5-0.4c0.1-0.2,0.3-0.4,0.6-0.6c0.3-0.2,0.6-0.2,1-0.2c0.5,0,0.9,0.1,1.2,0.4c0.3,0.2,0.4,0.6,0.4,1v2h0.5v0.7H128z
			 M126.3,81.4c0.3,0,0.5-0.1,0.7-0.2c0.2-0.1,0.3-0.3,0.3-0.5v-0.6h-0.7c-0.6,0-0.9,0.2-0.9,0.5v0.2c0,0.2,0.1,0.3,0.2,0.4
			C125.9,81.3,126.1,81.4,126.3,81.4z M129.4,81.2h1v-2.6h-1V78h1.9v1h0c0-0.1,0.1-0.3,0.2-0.4c0.1-0.1,0.2-0.2,0.3-0.3
			c0.1-0.1,0.2-0.2,0.4-0.2c0.1-0.1,0.3-0.1,0.5-0.1h0.5v0.8h-0.8c-0.3,0-0.6,0.1-0.8,0.3c-0.2,0.2-0.3,0.4-0.3,0.7v1.5h1.4v0.7
			h-3.3V81.2z M137.8,82.3c0,0.4-0.2,0.7-0.5,0.9c-0.3,0.2-0.9,0.3-1.6,0.3c-0.3,0-0.6,0-0.9-0.1c-0.2,0-0.4-0.1-0.6-0.2
			c-0.1-0.1-0.2-0.2-0.3-0.3c-0.1-0.1-0.1-0.2-0.1-0.4c0-0.2,0.1-0.4,0.2-0.5c0.1-0.1,0.3-0.2,0.5-0.3v-0.1
			c-0.1-0.1-0.2-0.1-0.3-0.2c-0.1-0.1-0.1-0.2-0.1-0.4c0-0.2,0.1-0.3,0.2-0.4c0.1-0.1,0.3-0.2,0.5-0.2v0c-0.2-0.1-0.4-0.3-0.6-0.5
			c-0.1-0.2-0.2-0.4-0.2-0.7c0-0.2,0-0.4,0.1-0.6c0.1-0.2,0.2-0.3,0.3-0.4c0.1-0.1,0.3-0.2,0.5-0.3c0.2-0.1,0.4-0.1,0.7-0.1
			c0.3,0,0.5,0,0.7,0.1v-0.1c0-0.2,0-0.3,0.1-0.4c0.1-0.1,0.2-0.2,0.4-0.2h0.7V78h-0.9v0.2c0.2,0.1,0.3,0.3,0.4,0.5
			c0.1,0.2,0.1,0.4,0.1,0.6c0,0.2,0,0.4-0.1,0.6c-0.1,0.2-0.2,0.3-0.3,0.4c-0.1,0.1-0.3,0.2-0.5,0.3c-0.2,0.1-0.4,0.1-0.7,0.1
			c-0.2,0-0.3,0-0.5,0c-0.1,0-0.2,0.1-0.3,0.1c-0.1,0.1-0.1,0.1-0.1,0.3c0,0.1,0.1,0.2,0.2,0.2c0.1,0,0.3,0,0.4,0h0.9
			c0.5,0,0.9,0.1,1.1,0.3C137.7,81.8,137.8,82,137.8,82.3z M137,82.4c0-0.1-0.1-0.2-0.2-0.3c-0.1-0.1-0.3-0.1-0.6-0.1h-1.4
			c-0.2,0.1-0.3,0.2-0.3,0.4c0,0.1,0.1,0.3,0.2,0.4c0.1,0.1,0.3,0.2,0.6,0.2h0.6c0.3,0,0.6,0,0.7-0.1C136.9,82.7,137,82.6,137,82.4z
			 M135.7,80.1c0.3,0,0.5-0.1,0.6-0.2c0.1-0.1,0.2-0.3,0.2-0.5v-0.2c0-0.2-0.1-0.4-0.2-0.5c-0.1-0.1-0.3-0.2-0.6-0.2
			c-0.3,0-0.5,0.1-0.6,0.2c-0.1,0.1-0.2,0.3-0.2,0.5v0.2c0,0.2,0.1,0.4,0.2,0.5C135.2,80,135.4,80.1,135.7,80.1z M140.4,82
			c-0.3,0-0.6,0-0.8-0.1c-0.2-0.1-0.4-0.2-0.6-0.4c-0.2-0.2-0.3-0.4-0.4-0.6c-0.1-0.3-0.1-0.5-0.1-0.9s0-0.6,0.1-0.9
			c0.1-0.3,0.2-0.5,0.4-0.7c0.2-0.2,0.4-0.3,0.6-0.4c0.2-0.1,0.5-0.1,0.8-0.1c0.3,0,0.5,0,0.8,0.1c0.2,0.1,0.4,0.2,0.6,0.4
			c0.2,0.2,0.3,0.4,0.4,0.6c0.1,0.2,0.1,0.5,0.1,0.8v0.3h-2.8v0.1c0,0.3,0.1,0.6,0.3,0.8c0.2,0.2,0.5,0.3,0.8,0.3
			c0.3,0,0.5-0.1,0.6-0.2c0.2-0.1,0.3-0.3,0.4-0.4l0.5,0.5c-0.1,0.2-0.3,0.4-0.6,0.6C141.2,81.9,140.8,82,140.4,82z M140.3,78.5
			c-0.1,0-0.3,0-0.4,0.1c-0.1,0.1-0.2,0.1-0.3,0.2c-0.1,0.1-0.2,0.2-0.2,0.3c-0.1,0.1-0.1,0.3-0.1,0.4v0.1h2v-0.1
			c0-0.3-0.1-0.6-0.3-0.7C140.9,78.6,140.6,78.5,140.3,78.5z M145.1,81.9c-0.3,0-0.6-0.1-0.8-0.3c-0.2-0.2-0.2-0.4-0.2-0.7v-2.3
			h-1.2V78h0.9c0.1,0,0.3,0,0.3-0.1c0.1-0.1,0.1-0.2,0.1-0.3v-1h0.8V78h1.7v0.7H145v2.6h1.7v0.7H145.1z M148.3,80v-0.8h2.3V80H148.3
			z M17.3,94.2L17.3,94.2c-0.2,0.2-0.3,0.4-0.5,0.6c-0.2,0.1-0.4,0.2-0.7,0.2c-0.5,0-0.8-0.2-1.1-0.5c-0.3-0.3-0.4-0.9-0.4-1.5
			c0-0.7,0.1-1.2,0.4-1.5c0.3-0.3,0.6-0.5,1.1-0.5c0.3,0,0.5,0.1,0.7,0.2c0.2,0.1,0.3,0.3,0.5,0.6h0v-2.4h0.8v5.7h-0.8V94.2z
			 M16.4,94.3c0.1,0,0.2,0,0.3,0c0.1,0,0.2-0.1,0.3-0.1c0.1-0.1,0.1-0.1,0.2-0.2c0.1-0.1,0.1-0.2,0.1-0.3v-1.3c0-0.1,0-0.2-0.1-0.3
			c0-0.1-0.1-0.2-0.2-0.2c-0.1-0.1-0.2-0.1-0.3-0.1c-0.1,0-0.2,0-0.3,0c-0.3,0-0.6,0.1-0.7,0.3c-0.2,0.2-0.3,0.5-0.3,0.8v0.6
			c0,0.3,0.1,0.6,0.3,0.8C15.8,94.2,16.1,94.3,16.4,94.3z M21.8,94.2L21.8,94.2c-0.1,0.1-0.1,0.2-0.2,0.3c-0.1,0.1-0.1,0.2-0.2,0.2
			c-0.1,0.1-0.2,0.1-0.3,0.2C21,95,20.8,95,20.7,95c-0.4,0-0.7-0.1-1-0.4c-0.2-0.3-0.4-0.6-0.4-1.1V91h0.8v2.4
			c0,0.6,0.3,0.9,0.8,0.9c0.1,0,0.2,0,0.3,0c0.1,0,0.2-0.1,0.3-0.1c0.1-0.1,0.1-0.1,0.2-0.2c0.1-0.1,0.1-0.2,0.1-0.3V91h0.8v3.9
			h-0.8V94.2z M25.8,95c-0.3,0-0.6,0-0.8-0.1c-0.2-0.1-0.4-0.2-0.6-0.4c-0.2-0.2-0.3-0.4-0.4-0.7c-0.1-0.3-0.1-0.5-0.1-0.9
			c0-0.3,0-0.6,0.1-0.9c0.1-0.3,0.2-0.5,0.4-0.7c0.2-0.2,0.4-0.3,0.6-0.4c0.2-0.1,0.5-0.1,0.8-0.1c0.4,0,0.7,0.1,1,0.3
			c0.2,0.2,0.4,0.4,0.6,0.7l-0.7,0.4c-0.1-0.2-0.2-0.3-0.3-0.4c-0.1-0.1-0.3-0.2-0.6-0.2c-0.3,0-0.6,0.1-0.7,0.3
			c-0.2,0.2-0.3,0.4-0.3,0.8v0.7c0,0.3,0.1,0.6,0.3,0.8c0.2,0.2,0.4,0.3,0.7,0.3c0.2,0,0.4-0.1,0.6-0.2c0.2-0.1,0.3-0.3,0.4-0.5
			l0.6,0.4c-0.1,0.3-0.3,0.5-0.6,0.7C26.5,94.9,26.2,95,25.8,95z M28.6,89.2h0.8v3.4h0l0.6-0.6l1.1-1.1h1l-1.6,1.6l1.8,2.4h-1L30,93
			l-0.6,0.5v1.4h-0.8V89.2z M35.6,94.2L35.6,94.2c-0.2,0.2-0.3,0.4-0.5,0.6c-0.2,0.1-0.4,0.2-0.7,0.2c-0.5,0-0.8-0.2-1.1-0.5
			c-0.3-0.3-0.4-0.9-0.4-1.5c0-0.7,0.1-1.2,0.4-1.5c0.3-0.3,0.6-0.5,1.1-0.5c0.3,0,0.5,0.1,0.7,0.2c0.2,0.1,0.3,0.3,0.5,0.6h0v-2.4
			h0.8v5.7h-0.8V94.2z M34.8,94.3c0.1,0,0.2,0,0.3,0c0.1,0,0.2-0.1,0.3-0.1c0.1-0.1,0.1-0.1,0.2-0.2c0.1-0.1,0.1-0.2,0.1-0.3v-1.3
			c0-0.1,0-0.2-0.1-0.3c0-0.1-0.1-0.2-0.2-0.2c-0.1-0.1-0.2-0.1-0.3-0.1c-0.1,0-0.2,0-0.3,0c-0.3,0-0.6,0.1-0.7,0.3
			c-0.2,0.2-0.3,0.5-0.3,0.8v0.6c0,0.3,0.1,0.6,0.3,0.8C34.2,94.2,34.4,94.3,34.8,94.3z M37.7,89.2h0.8v2.4h0
			c0.1-0.2,0.3-0.4,0.5-0.6c0.2-0.1,0.4-0.2,0.7-0.2c0.5,0,0.8,0.2,1.1,0.5c0.3,0.3,0.4,0.9,0.4,1.5c0,0.7-0.1,1.2-0.4,1.5
			c-0.3,0.3-0.6,0.5-1.1,0.5c-0.3,0-0.5-0.1-0.7-0.2c-0.2-0.1-0.3-0.3-0.5-0.6h0v0.7h-0.8V89.2z M39.4,94.3c0.3,0,0.6-0.1,0.7-0.3
			c0.2-0.2,0.3-0.5,0.3-0.8v-0.6c0-0.3-0.1-0.6-0.3-0.8c-0.2-0.2-0.4-0.3-0.7-0.3c-0.1,0-0.2,0-0.3,0c-0.1,0-0.2,0.1-0.3,0.1
			c-0.1,0.1-0.1,0.1-0.2,0.2c0,0.1-0.1,0.2-0.1,0.3v1.3c0,0.1,0,0.2,0.1,0.3c0.1,0.1,0.1,0.2,0.2,0.2c0.1,0.1,0.2,0.1,0.3,0.1
			C39.2,94.3,39.3,94.3,39.4,94.3z M14.5,120.9V117h0.7v0.5h0c0.1-0.2,0.1-0.3,0.3-0.4c0.1-0.1,0.3-0.2,0.5-0.2
			c0.2,0,0.4,0.1,0.5,0.2c0.1,0.1,0.2,0.3,0.2,0.5h0c0.1-0.2,0.2-0.3,0.3-0.5c0.1-0.1,0.3-0.2,0.6-0.2c0.3,0,0.5,0.1,0.6,0.3
			c0.1,0.2,0.2,0.5,0.2,0.9v2.8h-0.7v-2.7c0-0.3,0-0.5-0.1-0.6c-0.1-0.1-0.2-0.2-0.3-0.2c-0.1,0-0.2,0-0.3,0.1
			c-0.1,0.1-0.1,0.2-0.1,0.4v2.9h-0.7v-2.7c0-0.3,0-0.5-0.1-0.6c-0.1-0.1-0.2-0.2-0.3-0.2c-0.1,0-0.3,0-0.3,0.1
			c-0.1,0.1-0.1,0.2-0.1,0.4v2.9H14.5z M21.1,121c-0.3,0-0.6,0-0.8-0.1c-0.2-0.1-0.4-0.2-0.6-0.4c-0.2-0.2-0.3-0.4-0.4-0.6
			c-0.1-0.3-0.1-0.5-0.1-0.9c0-0.3,0-0.6,0.1-0.9c0.1-0.3,0.2-0.5,0.4-0.7c0.2-0.2,0.4-0.3,0.6-0.4c0.2-0.1,0.5-0.1,0.8-0.1
			c0.3,0,0.5,0,0.8,0.1c0.2,0.1,0.4,0.2,0.6,0.4c0.2,0.2,0.3,0.4,0.4,0.6c0.1,0.2,0.1,0.5,0.1,0.8v0.3H20v0.1c0,0.3,0.1,0.6,0.3,0.8
			c0.2,0.2,0.5,0.3,0.8,0.3c0.3,0,0.5-0.1,0.7-0.2c0.2-0.1,0.3-0.3,0.4-0.4l0.5,0.5c-0.1,0.2-0.3,0.4-0.6,0.6
			C21.9,120.9,21.5,121,21.1,121z M21,117.5c-0.1,0-0.3,0-0.4,0.1c-0.1,0.1-0.2,0.1-0.3,0.2c-0.1,0.1-0.2,0.2-0.2,0.3
			c-0.1,0.1-0.1,0.3-0.1,0.4v0.1h2v-0.1c0-0.3-0.1-0.6-0.3-0.7C21.6,117.6,21.3,117.5,21,117.5z M23.9,120.2h1.3v-4.3h-1.3v-0.7H26
			v5h1.3v0.7h-3.5V120.2z M30.4,120.9c-0.3,0-0.6-0.1-0.8-0.3c-0.2-0.2-0.2-0.4-0.2-0.7v-2.3h-1.2V117h0.9c0.1,0,0.3,0,0.3-0.1
			c0.1-0.1,0.1-0.2,0.1-0.3v-1h0.8v1.4h1.7v0.7h-1.7v2.6h1.7v0.7H30.4z M36.3,120.9c-0.2,0-0.4-0.1-0.5-0.2
			c-0.1-0.1-0.2-0.3-0.2-0.5h0c-0.1,0.2-0.2,0.4-0.4,0.6c-0.2,0.1-0.5,0.2-0.8,0.2c-0.4,0-0.7-0.1-1-0.3c-0.2-0.2-0.4-0.5-0.4-0.9
			c0-0.4,0.1-0.7,0.4-0.9c0.3-0.2,0.7-0.3,1.3-0.3h0.8v-0.3c0-0.5-0.3-0.8-0.8-0.8c-0.3,0-0.5,0.1-0.6,0.2c-0.2,0.1-0.3,0.2-0.4,0.4
			l-0.5-0.4c0.1-0.2,0.3-0.4,0.6-0.6c0.3-0.2,0.6-0.2,1-0.2c0.5,0,0.9,0.1,1.2,0.4c0.3,0.2,0.4,0.6,0.4,1v2h0.5v0.7H36.3z
			 M34.5,120.4c0.3,0,0.5-0.1,0.7-0.2c0.2-0.1,0.3-0.3,0.3-0.5v-0.6h-0.7c-0.6,0-0.9,0.2-0.9,0.5v0.2c0,0.2,0.1,0.3,0.2,0.4
			C34.1,120.3,34.3,120.4,34.5,120.4z M37.7,120.9V117h0.8v0.7h0c0-0.1,0.1-0.2,0.2-0.3c0.1-0.1,0.1-0.2,0.2-0.2
			c0.1-0.1,0.2-0.1,0.3-0.2c0.1,0,0.3-0.1,0.4-0.1c0.4,0,0.7,0.1,1,0.4c0.2,0.3,0.4,0.6,0.4,1.1v2.5h-0.8v-2.4
			c0-0.6-0.3-0.9-0.8-0.9c-0.1,0-0.2,0-0.3,0c-0.1,0-0.2,0.1-0.3,0.1c-0.1,0.1-0.1,0.1-0.2,0.2c0,0.1-0.1,0.2-0.1,0.3v2.7H37.7z
			 M44,121c-0.3,0-0.6,0-0.8-0.1c-0.2-0.1-0.4-0.2-0.6-0.4c-0.2-0.2-0.3-0.4-0.4-0.7c-0.1-0.3-0.1-0.5-0.1-0.9c0-0.3,0-0.6,0.1-0.9
			c0.1-0.3,0.2-0.5,0.4-0.7c0.2-0.2,0.4-0.3,0.6-0.4c0.2-0.1,0.5-0.1,0.8-0.1c0.3,0,0.6,0,0.8,0.1c0.2,0.1,0.4,0.2,0.6,0.4
			c0.2,0.2,0.3,0.4,0.4,0.7c0.1,0.3,0.1,0.5,0.1,0.9c0,0.3,0,0.6-0.1,0.9c-0.1,0.3-0.2,0.5-0.4,0.7c-0.2,0.2-0.4,0.3-0.6,0.4
			C44.5,121,44.3,121,44,121z M44,120.3c0.3,0,0.5-0.1,0.7-0.3c0.2-0.2,0.3-0.5,0.3-0.8v-0.6c0-0.4-0.1-0.6-0.3-0.8
			c-0.2-0.2-0.4-0.3-0.7-0.3c-0.3,0-0.6,0.1-0.7,0.3c-0.2,0.2-0.3,0.5-0.3,0.8v0.6c0,0.4,0.1,0.6,0.3,0.8
			C43.4,120.3,43.7,120.3,44,120.3z M51.4,120.2h1.3v-4.3h-1.3v-0.7h2.1v5h1.3v0.7h-3.5V120.2z M57.7,121c-0.3,0-0.6,0-0.8-0.1
			c-0.2-0.1-0.4-0.2-0.6-0.4c-0.2-0.2-0.3-0.4-0.4-0.7c-0.1-0.3-0.1-0.5-0.1-0.9c0-0.3,0-0.6,0.1-0.9c0.1-0.3,0.2-0.5,0.4-0.7
			c0.2-0.2,0.4-0.3,0.6-0.4c0.2-0.1,0.5-0.1,0.8-0.1c0.3,0,0.6,0,0.8,0.1c0.2,0.1,0.4,0.2,0.6,0.4c0.2,0.2,0.3,0.4,0.4,0.7
			c0.1,0.3,0.1,0.5,0.1,0.9c0,0.3,0,0.6-0.1,0.9c-0.1,0.3-0.2,0.5-0.4,0.7c-0.2,0.2-0.4,0.3-0.6,0.4C58.3,121,58,121,57.7,121z
			 M57.7,120.3c0.3,0,0.5-0.1,0.7-0.3c0.2-0.2,0.3-0.5,0.3-0.8v-0.6c0-0.4-0.1-0.6-0.3-0.8c-0.2-0.2-0.4-0.3-0.7-0.3
			s-0.6,0.1-0.7,0.3c-0.2,0.2-0.3,0.5-0.3,0.8v0.6c0,0.4,0.1,0.6,0.3,0.8C57.2,120.3,57.4,120.3,57.7,120.3z M64.4,121.3
			c0,0.4-0.2,0.7-0.5,0.9c-0.3,0.2-0.9,0.3-1.6,0.3c-0.3,0-0.6,0-0.9-0.1c-0.2,0-0.4-0.1-0.6-0.2c-0.1-0.1-0.2-0.2-0.3-0.3
			c-0.1-0.1-0.1-0.2-0.1-0.4c0-0.2,0.1-0.4,0.2-0.5c0.1-0.1,0.3-0.2,0.5-0.3v-0.1c-0.1-0.1-0.2-0.1-0.3-0.2
			c-0.1-0.1-0.1-0.2-0.1-0.4c0-0.2,0.1-0.3,0.2-0.4c0.1-0.1,0.3-0.2,0.5-0.2v0c-0.2-0.1-0.4-0.3-0.6-0.5c-0.1-0.2-0.2-0.4-0.2-0.7
			c0-0.2,0-0.4,0.1-0.6c0.1-0.2,0.2-0.3,0.3-0.4c0.1-0.1,0.3-0.2,0.5-0.3c0.2-0.1,0.4-0.1,0.7-0.1c0.3,0,0.5,0,0.7,0.1v-0.1
			c0-0.2,0-0.3,0.1-0.4c0.1-0.1,0.2-0.2,0.4-0.2h0.7v0.7h-0.9v0.2c0.2,0.1,0.3,0.3,0.4,0.5c0.1,0.2,0.1,0.4,0.1,0.6
			c0,0.2,0,0.4-0.1,0.6c-0.1,0.2-0.2,0.3-0.3,0.4c-0.1,0.1-0.3,0.2-0.5,0.3c-0.2,0.1-0.4,0.1-0.7,0.1c-0.2,0-0.3,0-0.5,0
			c-0.1,0-0.2,0.1-0.3,0.1c-0.1,0.1-0.1,0.1-0.1,0.3c0,0.1,0.1,0.2,0.2,0.2c0.1,0,0.3,0,0.4,0h0.9c0.5,0,0.9,0.1,1.1,0.3
			C64.3,120.8,64.4,121,64.4,121.3z M63.6,121.4c0-0.1-0.1-0.2-0.2-0.3c-0.1-0.1-0.3-0.1-0.6-0.1h-1.4c-0.2,0.1-0.3,0.2-0.3,0.4
			c0,0.1,0.1,0.3,0.2,0.4c0.1,0.1,0.3,0.2,0.6,0.2h0.6c0.3,0,0.6,0,0.7-0.1C63.5,121.7,63.6,121.6,63.6,121.4z M62.3,119.1
			c0.3,0,0.5-0.1,0.6-0.2c0.1-0.1,0.2-0.3,0.2-0.5v-0.2c0-0.2-0.1-0.4-0.2-0.5c-0.1-0.1-0.3-0.2-0.6-0.2s-0.5,0.1-0.6,0.2
			c-0.1,0.1-0.2,0.3-0.2,0.5v0.2c0,0.2,0.1,0.4,0.2,0.5C61.8,119,62,119.1,62.3,119.1z M66.9,121c-0.4,0-0.8-0.1-1.1-0.2
			c-0.3-0.1-0.6-0.3-0.7-0.6l0.5-0.5c0.2,0.2,0.4,0.3,0.6,0.4c0.2,0.1,0.5,0.1,0.8,0.1c0.3,0,0.5,0,0.7-0.1c0.2-0.1,0.3-0.2,0.3-0.4
			c0-0.1,0-0.2,0-0.2c0-0.1-0.1-0.1-0.1-0.1c-0.1,0-0.1-0.1-0.2-0.1c-0.1,0-0.1,0-0.2,0l-0.6-0.1c-0.2,0-0.3-0.1-0.5-0.1
			c-0.2,0-0.3-0.1-0.4-0.2c-0.1-0.1-0.2-0.2-0.3-0.3c-0.1-0.1-0.1-0.3-0.1-0.5c0-0.4,0.2-0.7,0.5-0.9c0.3-0.2,0.7-0.3,1.2-0.3
			c0.4,0,0.7,0.1,0.9,0.2c0.3,0.1,0.5,0.3,0.7,0.5l-0.5,0.5c-0.1-0.1-0.2-0.2-0.4-0.3c-0.2-0.1-0.4-0.2-0.8-0.2
			c-0.6,0-0.8,0.2-0.8,0.5c0,0.2,0.1,0.3,0.2,0.4c0.1,0.1,0.3,0.1,0.4,0.1l0.6,0.1c0.2,0,0.3,0.1,0.5,0.1c0.2,0,0.3,0.1,0.4,0.2
			c0.1,0.1,0.2,0.2,0.3,0.3c0.1,0.1,0.1,0.3,0.1,0.5c0,0.4-0.2,0.7-0.5,0.9C67.9,120.9,67.5,121,66.9,121z M78.2,121.3
			c0,0.4-0.2,0.7-0.5,0.9c-0.3,0.2-0.9,0.3-1.6,0.3c-0.3,0-0.6,0-0.9-0.1c-0.2,0-0.4-0.1-0.6-0.2c-0.1-0.1-0.2-0.2-0.3-0.3
			c-0.1-0.1-0.1-0.2-0.1-0.4c0-0.2,0.1-0.4,0.2-0.5c0.1-0.1,0.3-0.2,0.5-0.3v-0.1c-0.1-0.1-0.2-0.1-0.3-0.2
			c-0.1-0.1-0.1-0.2-0.1-0.4c0-0.2,0.1-0.3,0.2-0.4c0.1-0.1,0.3-0.2,0.5-0.2v0c-0.2-0.1-0.4-0.3-0.6-0.5c-0.1-0.2-0.2-0.4-0.2-0.7
			c0-0.2,0-0.4,0.1-0.6c0.1-0.2,0.2-0.3,0.3-0.4c0.1-0.1,0.3-0.2,0.5-0.3c0.2-0.1,0.4-0.1,0.7-0.1c0.3,0,0.5,0,0.7,0.1v-0.1
			c0-0.2,0-0.3,0.1-0.4s0.2-0.2,0.4-0.2H78v0.7h-0.9v0.2c0.2,0.1,0.3,0.3,0.4,0.5c0.1,0.2,0.1,0.4,0.1,0.6c0,0.2,0,0.4-0.1,0.6
			c-0.1,0.2-0.2,0.3-0.3,0.4c-0.1,0.1-0.3,0.2-0.5,0.3c-0.2,0.1-0.4,0.1-0.7,0.1c-0.2,0-0.3,0-0.5,0c-0.1,0-0.2,0.1-0.3,0.1
			c-0.1,0.1-0.1,0.1-0.1,0.3c0,0.1,0.1,0.2,0.2,0.2c0.1,0,0.3,0,0.4,0h0.9c0.5,0,0.9,0.1,1.1,0.3C78,120.8,78.2,121,78.2,121.3z
			 M77.4,121.4c0-0.1-0.1-0.2-0.2-0.3c-0.1-0.1-0.3-0.1-0.6-0.1h-1.4c-0.2,0.1-0.3,0.2-0.3,0.4c0,0.1,0.1,0.3,0.2,0.4
			c0.1,0.1,0.3,0.2,0.6,0.2h0.6c0.3,0,0.6,0,0.7-0.1C77.3,121.7,77.4,121.6,77.4,121.4z M76.1,119.1c0.3,0,0.5-0.1,0.6-0.2
			c0.1-0.1,0.2-0.3,0.2-0.5v-0.2c0-0.2-0.1-0.4-0.2-0.5c-0.1-0.1-0.3-0.2-0.6-0.2c-0.3,0-0.5,0.1-0.6,0.2c-0.1,0.1-0.2,0.3-0.2,0.5
			v0.2c0,0.2,0.1,0.4,0.2,0.5C75.6,119,75.8,119.1,76.1,119.1z M80.9,116.2c-0.2,0-0.4,0-0.5-0.1c-0.1-0.1-0.1-0.2-0.1-0.3v-0.2
			c0-0.1,0-0.2,0.1-0.3c0.1-0.1,0.2-0.1,0.4-0.1c0.2,0,0.4,0,0.4,0.1c0.1,0.1,0.1,0.2,0.1,0.3v0.2c0,0.1,0,0.2-0.1,0.3
			C81.3,116.2,81.1,116.2,80.9,116.2z M79.2,120.2h1.3v-2.6h-1.3V117h2.2v3.3h1.3v0.7h-3.4V120.2z M85.5,120.9
			c-0.3,0-0.6-0.1-0.8-0.3c-0.2-0.2-0.2-0.4-0.2-0.7v-2.3h-1.2V117h0.9c0.1,0,0.3,0,0.3-0.1c0.1-0.1,0.1-0.2,0.1-0.3v-1h0.8v1.4H87
			v0.7h-1.7v2.6H87v0.7H85.5z M88.2,115.2H89v2.4h0c0-0.1,0.1-0.2,0.2-0.3c0.1-0.1,0.1-0.2,0.2-0.2c0.1-0.1,0.2-0.1,0.3-0.2
			c0.1,0,0.3-0.1,0.4-0.1c0.4,0,0.7,0.1,1,0.4c0.2,0.3,0.4,0.6,0.4,1.1v2.5h-0.8v-2.4c0-0.6-0.3-0.9-0.8-0.9c-0.1,0-0.2,0-0.3,0
			c-0.1,0-0.2,0.1-0.3,0.1c-0.1,0.1-0.1,0.1-0.2,0.2c0,0.1-0.1,0.2-0.1,0.3v2.7h-0.8V115.2z M95.3,120.2L95.3,120.2
			c-0.1,0.1-0.1,0.2-0.2,0.3c-0.1,0.1-0.1,0.2-0.2,0.2c-0.1,0.1-0.2,0.1-0.3,0.2c-0.1,0-0.3,0.1-0.4,0.1c-0.4,0-0.7-0.1-1-0.4
			c-0.2-0.3-0.4-0.6-0.4-1.1V117h0.8v2.4c0,0.6,0.3,0.9,0.8,0.9c0.1,0,0.2,0,0.3,0c0.1,0,0.2-0.1,0.3-0.1c0.1-0.1,0.1-0.1,0.2-0.2
			c0.1-0.1,0.1-0.2,0.1-0.3V117h0.8v3.9h-0.8V120.2z M97.3,115.2h0.8v2.4h0c0.1-0.2,0.3-0.4,0.5-0.6c0.2-0.1,0.4-0.2,0.7-0.2
			c0.5,0,0.8,0.2,1.1,0.5c0.3,0.3,0.4,0.9,0.4,1.5c0,0.7-0.1,1.2-0.4,1.5c-0.3,0.3-0.6,0.5-1.1,0.5c-0.3,0-0.5-0.1-0.7-0.2
			c-0.2-0.1-0.3-0.3-0.5-0.6h0v0.7h-0.8V115.2z M99.1,120.3c0.3,0,0.6-0.1,0.7-0.3c0.2-0.2,0.3-0.5,0.3-0.8v-0.6
			c0-0.3-0.1-0.6-0.3-0.8c-0.2-0.2-0.4-0.3-0.7-0.3c-0.1,0-0.2,0-0.3,0c-0.1,0-0.2,0.1-0.3,0.1c-0.1,0.1-0.1,0.1-0.2,0.2
			c0,0.1-0.1,0.2-0.1,0.3v1.3c0,0.1,0,0.2,0.1,0.3c0.1,0.1,0.1,0.2,0.2,0.2c0.1,0.1,0.2,0.1,0.3,0.1
			C98.8,120.3,98.9,120.3,99.1,120.3z M102.5,119v-0.8h2.3v0.8H102.5z M108.4,120.9c-0.3,0-0.6-0.1-0.8-0.3
			c-0.2-0.2-0.2-0.4-0.2-0.7v-2.3h-1.2V117h0.9c0.1,0,0.3,0,0.3-0.1c0.1-0.1,0.1-0.2,0.1-0.3v-1h0.8v1.4h1.7v0.7h-1.7v2.6h1.7v0.7
			H108.4z M112.8,121c-0.3,0-0.6,0-0.8-0.1c-0.2-0.1-0.4-0.2-0.6-0.4c-0.2-0.2-0.3-0.4-0.4-0.7c-0.1-0.3-0.1-0.5-0.1-0.9
			c0-0.3,0-0.6,0.1-0.9c0.1-0.3,0.2-0.5,0.4-0.7c0.2-0.2,0.4-0.3,0.6-0.4c0.2-0.1,0.5-0.1,0.8-0.1c0.3,0,0.6,0,0.8,0.1
			c0.2,0.1,0.4,0.2,0.6,0.4c0.2,0.2,0.3,0.4,0.4,0.7c0.1,0.3,0.1,0.5,0.1,0.9c0,0.3,0,0.6-0.1,0.9c-0.1,0.3-0.2,0.5-0.4,0.7
			c-0.2,0.2-0.4,0.3-0.6,0.4C113.3,121,113.1,121,112.8,121z M112.8,120.3c0.3,0,0.5-0.1,0.7-0.3c0.2-0.2,0.3-0.5,0.3-0.8v-0.6
			c0-0.4-0.1-0.6-0.3-0.8c-0.2-0.2-0.4-0.3-0.7-0.3c-0.3,0-0.6,0.1-0.7,0.3c-0.2,0.2-0.3,0.5-0.3,0.8v0.6c0,0.4,0.1,0.6,0.3,0.8
			C112.2,120.3,112.5,120.3,112.8,120.3z M116.2,119v-0.8h2.3v0.8H116.2z M122.8,120.2L122.8,120.2c-0.2,0.2-0.3,0.4-0.5,0.6
			c-0.2,0.1-0.4,0.2-0.7,0.2c-0.5,0-0.8-0.2-1.1-0.5c-0.3-0.3-0.4-0.9-0.4-1.5c0-0.7,0.1-1.2,0.4-1.5c0.3-0.3,0.6-0.5,1.1-0.5
			c0.3,0,0.5,0.1,0.7,0.2c0.2,0.1,0.3,0.3,0.5,0.6h0v-2.4h0.8v5.7h-0.8V120.2z M121.9,120.3c0.1,0,0.2,0,0.3,0
			c0.1,0,0.2-0.1,0.3-0.1c0.1-0.1,0.1-0.1,0.2-0.2c0.1-0.1,0.1-0.2,0.1-0.3v-1.3c0-0.1,0-0.2-0.1-0.3c0-0.1-0.1-0.2-0.2-0.2
			c-0.1-0.1-0.2-0.1-0.3-0.1c-0.1,0-0.2,0-0.3,0c-0.3,0-0.6,0.1-0.7,0.3c-0.2,0.2-0.3,0.5-0.3,0.8v0.6c0,0.3,0.1,0.6,0.3,0.8
			C121.4,120.2,121.6,120.3,121.9,120.3z M127.4,120.2L127.4,120.2c-0.1,0.1-0.1,0.2-0.2,0.3c-0.1,0.1-0.1,0.2-0.2,0.2
			c-0.1,0.1-0.2,0.1-0.3,0.2c-0.1,0-0.3,0.1-0.4,0.1c-0.4,0-0.7-0.1-1-0.4c-0.2-0.3-0.4-0.6-0.4-1.1V117h0.8v2.4
			c0,0.6,0.3,0.9,0.8,0.9c0.1,0,0.2,0,0.3,0c0.1,0,0.2-0.1,0.3-0.1c0.1-0.1,0.1-0.1,0.2-0.2c0.1-0.1,0.1-0.2,0.1-0.3V117h0.8v3.9
			h-0.8V120.2z M131.3,121c-0.3,0-0.6,0-0.8-0.1c-0.2-0.1-0.4-0.2-0.6-0.4c-0.2-0.2-0.3-0.4-0.4-0.7c-0.1-0.3-0.1-0.5-0.1-0.9
			c0-0.3,0-0.6,0.1-0.9c0.1-0.3,0.2-0.5,0.4-0.7c0.2-0.2,0.4-0.3,0.6-0.4c0.2-0.1,0.5-0.1,0.8-0.1c0.4,0,0.7,0.1,1,0.3
			c0.2,0.2,0.4,0.4,0.6,0.7l-0.7,0.4c-0.1-0.2-0.2-0.3-0.3-0.4c-0.1-0.1-0.3-0.2-0.6-0.2c-0.3,0-0.6,0.1-0.7,0.3
			c-0.2,0.2-0.3,0.4-0.3,0.8v0.7c0,0.3,0.1,0.6,0.3,0.8s0.4,0.3,0.8,0.3c0.2,0,0.4-0.1,0.6-0.2c0.2-0.1,0.3-0.3,0.4-0.5l0.6,0.4
			c-0.1,0.3-0.3,0.5-0.6,0.7C132,120.9,131.7,121,131.3,121z M134.1,115.2h0.8v3.4h0l0.6-0.6l1.1-1.1h1l-1.6,1.6l1.8,2.4h-1
			l-1.4-1.9l-0.6,0.5v1.4h-0.8V115.2z M141.2,120.2L141.2,120.2c-0.2,0.2-0.3,0.4-0.5,0.6c-0.2,0.1-0.4,0.2-0.7,0.2
			c-0.5,0-0.8-0.2-1.1-0.5c-0.3-0.3-0.4-0.9-0.4-1.5c0-0.7,0.1-1.2,0.4-1.5c0.3-0.3,0.6-0.5,1.1-0.5c0.3,0,0.5,0.1,0.7,0.2
			c0.2,0.1,0.3,0.3,0.5,0.6h0v-2.4h0.8v5.7h-0.8V120.2z M140.3,120.3c0.1,0,0.2,0,0.3,0c0.1,0,0.2-0.1,0.3-0.1
			c0.1-0.1,0.1-0.1,0.2-0.2c0.1-0.1,0.1-0.2,0.1-0.3v-1.3c0-0.1,0-0.2-0.1-0.3c0-0.1-0.1-0.2-0.2-0.2c-0.1-0.1-0.2-0.1-0.3-0.1
			c-0.1,0-0.2,0-0.3,0c-0.3,0-0.6,0.1-0.7,0.3c-0.2,0.2-0.3,0.5-0.3,0.8v0.6c0,0.3,0.1,0.6,0.3,0.8
			C139.7,120.2,140,120.3,140.3,120.3z M143.2,115.2h0.8v2.4h0c0.1-0.2,0.3-0.4,0.5-0.6c0.2-0.1,0.4-0.2,0.7-0.2
			c0.5,0,0.8,0.2,1.1,0.5c0.3,0.3,0.4,0.9,0.4,1.5c0,0.7-0.1,1.2-0.4,1.5c-0.3,0.3-0.6,0.5-1.1,0.5c-0.3,0-0.5-0.1-0.7-0.2
			c-0.2-0.1-0.3-0.3-0.5-0.6h0v0.7h-0.8V115.2z M144.9,120.3c0.3,0,0.6-0.1,0.7-0.3c0.2-0.2,0.3-0.5,0.3-0.8v-0.6
			c0-0.3-0.1-0.6-0.3-0.8c-0.2-0.2-0.4-0.3-0.7-0.3c-0.1,0-0.2,0-0.3,0c-0.1,0-0.2,0.1-0.3,0.1c-0.1,0.1-0.1,0.1-0.2,0.2
			c0,0.1-0.1,0.2-0.1,0.3v1.3c0,0.1,0,0.2,0.1,0.3c0.1,0.1,0.1,0.2,0.2,0.2c0.1,0.1,0.2,0.1,0.3,0.1
			C144.7,120.3,144.8,120.3,144.9,120.3z M148.3,119v-0.8h2.3v0.8H148.3z M14.8,128.2h0.8v2.4h0c0-0.1,0.1-0.2,0.2-0.3
			c0.1-0.1,0.1-0.2,0.2-0.2c0.1-0.1,0.2-0.1,0.3-0.2s0.3-0.1,0.4-0.1c0.4,0,0.7,0.1,1,0.4s0.4,0.6,0.4,1.1v2.5h-0.8v-2.4
			c0-0.6-0.3-0.9-0.8-0.9c-0.1,0-0.2,0-0.3,0c-0.1,0-0.2,0.1-0.3,0.1c-0.1,0.1-0.1,0.1-0.2,0.2c0,0.1-0.1,0.2-0.1,0.3v2.7h-0.8
			V128.2z M21,134c-0.3,0-0.6,0-0.8-0.1c-0.2-0.1-0.4-0.2-0.6-0.4c-0.2-0.2-0.3-0.4-0.4-0.7c-0.1-0.3-0.1-0.5-0.1-0.9
			c0-0.3,0-0.6,0.1-0.9s0.2-0.5,0.4-0.7c0.2-0.2,0.4-0.3,0.6-0.4c0.2-0.1,0.5-0.1,0.8-0.1c0.3,0,0.6,0,0.8,0.1
			c0.2,0.1,0.4,0.2,0.6,0.4c0.2,0.2,0.3,0.4,0.4,0.7c0.1,0.3,0.1,0.5,0.1,0.9c0,0.3,0,0.6-0.1,0.9c-0.1,0.3-0.2,0.5-0.4,0.7
			c-0.2,0.2-0.4,0.3-0.6,0.4C21.6,134,21.3,134,21,134z M21,133.3c0.3,0,0.5-0.1,0.7-0.3c0.2-0.2,0.3-0.5,0.3-0.8v-0.6
			c0-0.4-0.1-0.6-0.3-0.8c-0.2-0.2-0.4-0.3-0.7-0.3s-0.6,0.1-0.7,0.3c-0.2,0.2-0.3,0.5-0.3,0.8v0.6c0,0.4,0.1,0.6,0.3,0.8
			C20.5,133.3,20.7,133.3,21,133.3z M26.4,133.2L26.4,133.2c-0.1,0.1-0.1,0.2-0.2,0.3c-0.1,0.1-0.1,0.2-0.2,0.2
			c-0.1,0.1-0.2,0.1-0.3,0.2c-0.1,0-0.3,0.1-0.4,0.1c-0.4,0-0.7-0.1-1-0.4c-0.2-0.3-0.4-0.6-0.4-1.1V130h0.8v2.4
			c0,0.6,0.3,0.9,0.8,0.9c0.1,0,0.2,0,0.3,0c0.1,0,0.2-0.1,0.3-0.1c0.1-0.1,0.1-0.1,0.2-0.2c0.1-0.1,0.1-0.2,0.1-0.3V130h0.8v3.9
			h-0.8V133.2z M28.5,133.2h1v-2.6h-1V130h1.9v1h0c0-0.1,0.1-0.3,0.2-0.4c0.1-0.1,0.2-0.2,0.3-0.3c0.1-0.1,0.2-0.2,0.4-0.2
			c0.1-0.1,0.3-0.1,0.5-0.1h0.5v0.8h-0.8c-0.3,0-0.6,0.1-0.8,0.3c-0.2,0.2-0.3,0.4-0.3,0.7v1.5h1.4v0.7h-3.3V133.2z M33.1,133.2h1.3
			v-4.3h-1.3v-0.7h2.1v5h1.3v0.7h-3.5V133.2z M40.5,130h0.8l-1.9,4.7c-0.1,0.3-0.2,0.4-0.4,0.6c-0.2,0.1-0.4,0.2-0.7,0.2h-0.7v-0.7
			h0.9l0.4-0.9l-1.6-3.9h0.9l0.6,1.7l0.5,1.4h0l0.5-1.4L40.5,130z M18.4,160.4c0,0.4-0.2,0.7-0.5,0.9c-0.3,0.2-0.8,0.3-1.5,0.3
			c-0.6,0-1.1-0.1-1.4-0.3c-0.3-0.2-0.4-0.4-0.4-0.7c0-0.2,0.1-0.4,0.2-0.5c0.1-0.1,0.3-0.2,0.5-0.3v-0.1c-0.1-0.1-0.2-0.1-0.3-0.2
			c-0.1-0.1-0.1-0.2-0.1-0.3c0-0.2,0.1-0.4,0.2-0.5c0.1-0.1,0.3-0.2,0.5-0.2v0c-0.2-0.1-0.4-0.3-0.6-0.5c-0.1-0.2-0.2-0.5-0.2-0.7
			c0-0.2,0-0.4,0.1-0.6c0.1-0.2,0.2-0.3,0.3-0.4c0.1-0.1,0.3-0.2,0.5-0.3c0.2-0.1,0.4-0.1,0.6-0.1c0.3,0,0.6,0.1,0.8,0.2V156
			c0-0.2,0-0.3,0.1-0.4c0.1-0.1,0.2-0.2,0.4-0.2h0.7v0.5h-0.9v0.3c0.1,0.1,0.3,0.3,0.3,0.4c0.1,0.2,0.1,0.4,0.1,0.6
			c0,0.2,0,0.4-0.1,0.6c-0.1,0.2-0.2,0.3-0.3,0.4c-0.1,0.1-0.3,0.2-0.5,0.3c-0.2,0.1-0.4,0.1-0.6,0.1c-0.1,0-0.1,0-0.2,0
			c-0.1,0-0.1,0-0.2,0c-0.1,0-0.1,0-0.2,0.1c-0.1,0-0.1,0.1-0.2,0.1c-0.1,0-0.1,0.1-0.1,0.1c0,0.1-0.1,0.1-0.1,0.2
			c0,0.1,0.1,0.2,0.2,0.2c0.1,0,0.3,0.1,0.5,0.1H17c0.5,0,0.9,0.1,1.1,0.3C18.3,159.8,18.4,160,18.4,160.4z M17.9,160.4
			c0-0.2-0.1-0.3-0.2-0.4c-0.1-0.1-0.3-0.1-0.7-0.1h-1.4c-0.3,0.1-0.4,0.3-0.4,0.5c0,0.2,0.1,0.3,0.2,0.4c0.1,0.1,0.4,0.2,0.7,0.2
			h0.6c0.4,0,0.6-0.1,0.8-0.2C17.8,160.8,17.9,160.6,17.9,160.4z M16.4,158.1c0.3,0,0.5-0.1,0.7-0.2c0.1-0.1,0.2-0.3,0.2-0.6v-0.2
			c0-0.2-0.1-0.4-0.2-0.6c-0.1-0.1-0.4-0.2-0.7-0.2c-0.3,0-0.5,0.1-0.7,0.2c-0.1,0.1-0.2,0.3-0.2,0.6v0.2c0,0.2,0.1,0.4,0.2,0.6
			C15.9,158,16.1,158.1,16.4,158.1z M21.3,155.1c-0.2,0-0.3,0-0.4-0.1c-0.1-0.1-0.1-0.2-0.1-0.3v-0.1c0-0.1,0-0.2,0.1-0.3
			c0.1-0.1,0.2-0.1,0.4-0.1c0.2,0,0.3,0,0.4,0.1c0.1,0.1,0.1,0.2,0.1,0.3v0.1c0,0.1,0,0.2-0.1,0.3C21.6,155.1,21.4,155.1,21.3,155.1
			z M19.5,159.4H21v-2.9h-1.4V156h2v3.4h1.3v0.5h-3.4V159.4z M25.8,159.9c-0.3,0-0.5-0.1-0.7-0.3c-0.1-0.2-0.2-0.4-0.2-0.7v-2.5
			h-1.3V156h1c0.1,0,0.2,0,0.3-0.1c0.1-0.1,0.1-0.2,0.1-0.3v-1h0.6v1.4h1.8v0.5h-1.8v2.9h1.8v0.5H25.8z M34.9,160
			c-0.3,0-0.5,0-0.8-0.1c-0.2-0.1-0.4-0.2-0.6-0.4c-0.2-0.2-0.3-0.4-0.4-0.6c-0.1-0.3-0.1-0.5-0.1-0.9c0-0.3,0-0.6,0.1-0.8
			s0.2-0.5,0.4-0.7c0.2-0.2,0.3-0.3,0.6-0.4s0.5-0.1,0.7-0.1c0.4,0,0.7,0.1,0.9,0.3c0.2,0.2,0.4,0.4,0.5,0.7l-0.5,0.3
			c-0.1-0.2-0.2-0.4-0.4-0.5c-0.2-0.1-0.4-0.2-0.6-0.2c-0.2,0-0.3,0-0.5,0.1c-0.1,0.1-0.3,0.1-0.4,0.2c-0.1,0.1-0.2,0.2-0.2,0.4
			c0,0.1-0.1,0.3-0.1,0.5v0.7c0,0.2,0,0.3,0.1,0.5c0.1,0.1,0.1,0.3,0.2,0.4c0.1,0.1,0.2,0.2,0.4,0.3c0.1,0.1,0.3,0.1,0.5,0.1
			c0.3,0,0.5-0.1,0.7-0.2c0.2-0.1,0.3-0.3,0.4-0.5l0.4,0.3c-0.1,0.3-0.3,0.5-0.6,0.7C35.6,159.9,35.3,160,34.9,160z M37.7,159.4h1.4
			v-4.6h-1.4v-0.5h2v5.1h1.4v0.5h-3.4V159.4z M44,160c-0.3,0-0.5,0-0.8-0.1c-0.2-0.1-0.4-0.2-0.6-0.4c-0.2-0.2-0.3-0.4-0.4-0.7
			c-0.1-0.3-0.1-0.5-0.1-0.9c0-0.3,0-0.6,0.1-0.8c0.1-0.3,0.2-0.5,0.4-0.7c0.2-0.2,0.3-0.3,0.6-0.4c0.2-0.1,0.5-0.1,0.8-0.1
			c0.3,0,0.5,0,0.7,0.1c0.2,0.1,0.4,0.2,0.6,0.4c0.2,0.2,0.3,0.4,0.4,0.7c0.1,0.3,0.1,0.5,0.1,0.8c0,0.3,0,0.6-0.1,0.9
			c-0.1,0.2-0.2,0.5-0.4,0.7c-0.2,0.2-0.3,0.3-0.6,0.4C44.5,160,44.2,160,44,160z M44,159.5c0.3,0,0.6-0.1,0.8-0.3
			c0.2-0.2,0.3-0.5,0.3-0.9v-0.6c0-0.4-0.1-0.7-0.3-0.9c-0.2-0.2-0.5-0.3-0.8-0.3c-0.3,0-0.6,0.1-0.8,0.3c-0.2,0.2-0.3,0.5-0.3,0.9
			v0.6c0,0.4,0.1,0.7,0.3,0.9C43.3,159.4,43.6,159.5,44,159.5z M47,159.9V156h0.6v0.6h0c0-0.1,0.1-0.2,0.2-0.3
			c0.1-0.1,0.1-0.2,0.2-0.2c0.1-0.1,0.2-0.1,0.3-0.2c0.1,0,0.3-0.1,0.4-0.1c0.4,0,0.7,0.1,1,0.4c0.2,0.3,0.4,0.6,0.4,1.1v2.5h-0.6
			v-2.4c0-0.4-0.1-0.6-0.2-0.8c-0.2-0.2-0.4-0.3-0.7-0.3c-0.1,0-0.2,0-0.4,0c-0.1,0-0.2,0.1-0.3,0.1c-0.1,0.1-0.2,0.1-0.2,0.2
			c-0.1,0.1-0.1,0.2-0.1,0.3v2.7H47z M53.2,160c-0.3,0-0.5,0-0.8-0.1c-0.2-0.1-0.4-0.2-0.6-0.4c-0.2-0.2-0.3-0.4-0.4-0.7
			c-0.1-0.3-0.1-0.5-0.1-0.8c0-0.3,0-0.6,0.1-0.9c0.1-0.3,0.2-0.5,0.4-0.7c0.2-0.2,0.3-0.3,0.6-0.4c0.2-0.1,0.5-0.1,0.7-0.1
			c0.3,0,0.5,0,0.7,0.1c0.2,0.1,0.4,0.2,0.6,0.4c0.2,0.2,0.3,0.4,0.4,0.6c0.1,0.2,0.1,0.5,0.1,0.8v0.3H52v0.2c0,0.2,0,0.3,0.1,0.5
			c0.1,0.1,0.1,0.3,0.2,0.4c0.1,0.1,0.2,0.2,0.4,0.3c0.2,0.1,0.3,0.1,0.5,0.1c0.3,0,0.5-0.1,0.7-0.2c0.2-0.1,0.3-0.3,0.4-0.5
			l0.5,0.3c-0.1,0.3-0.3,0.5-0.6,0.7C53.9,159.9,53.6,160,53.2,160z M53.2,156.4c-0.2,0-0.3,0-0.5,0.1c-0.1,0.1-0.3,0.1-0.4,0.3
			c-0.1,0.1-0.2,0.2-0.2,0.4c-0.1,0.1-0.1,0.3-0.1,0.5v0.1h2.3v-0.1c0-0.2,0-0.3-0.1-0.5c-0.1-0.1-0.1-0.3-0.2-0.4
			c-0.1-0.1-0.2-0.2-0.3-0.2C53.5,156.4,53.3,156.4,53.2,156.4z M60.8,154.2h0.6v2.4h0c0-0.1,0.1-0.2,0.2-0.3
			c0.1-0.1,0.1-0.2,0.2-0.2c0.1-0.1,0.2-0.1,0.3-0.2c0.1,0,0.3-0.1,0.4-0.1c0.4,0,0.7,0.1,1,0.4c0.2,0.3,0.4,0.6,0.4,1.1v2.5h-0.6
			v-2.4c0-0.4-0.1-0.6-0.2-0.8c-0.2-0.2-0.4-0.3-0.7-0.3c-0.1,0-0.2,0-0.4,0c-0.1,0-0.2,0.1-0.3,0.1c-0.1,0.1-0.2,0.1-0.2,0.2
			c-0.1,0.1-0.1,0.2-0.1,0.3v2.7h-0.6V154.2z M67.1,159.9c-0.3,0-0.5-0.1-0.7-0.3c-0.1-0.2-0.2-0.4-0.2-0.7v-2.5h-1.3V156h1
			c0.1,0,0.2,0,0.3-0.1c0.1-0.1,0.1-0.2,0.1-0.3v-1h0.6v1.4h1.8v0.5h-1.8v2.9h1.8v0.5H67.1z M71.7,159.9c-0.3,0-0.5-0.1-0.7-0.3
			c-0.1-0.2-0.2-0.4-0.2-0.7v-2.5h-1.3V156h1c0.1,0,0.2,0,0.3-0.1c0.1-0.1,0.1-0.2,0.1-0.3v-1h0.6v1.4h1.8v0.5h-1.8v2.9h1.8v0.5
			H71.7z M74.5,156h0.6v0.6h0c0.3-0.5,0.7-0.7,1.2-0.7c0.5,0,0.9,0.2,1.1,0.5c0.3,0.4,0.4,0.9,0.4,1.5s-0.1,1.2-0.4,1.5
			c-0.3,0.4-0.6,0.5-1.1,0.5c-0.6,0-1-0.2-1.2-0.7h0v2.2h-0.6V156z M76.1,159.5c0.4,0,0.6-0.1,0.8-0.3c0.2-0.2,0.3-0.5,0.3-0.9v-0.7
			c0-0.4-0.1-0.6-0.3-0.9c-0.2-0.2-0.5-0.3-0.8-0.3c-0.1,0-0.3,0-0.4,0.1c-0.1,0-0.2,0.1-0.3,0.2c-0.1,0.1-0.2,0.2-0.2,0.3
			c-0.1,0.1-0.1,0.2-0.1,0.3v1.4c0,0.1,0,0.2,0.1,0.4c0.1,0.1,0.1,0.2,0.2,0.3c0.1,0.1,0.2,0.1,0.3,0.2
			C75.9,159.4,76,159.5,76.1,159.5z M80.7,160c-0.4,0-0.8-0.1-1.1-0.2c-0.3-0.1-0.5-0.3-0.8-0.6l0.4-0.4c0.2,0.2,0.4,0.4,0.6,0.5
			c0.2,0.1,0.5,0.2,0.8,0.2c0.3,0,0.6-0.1,0.8-0.2c0.2-0.1,0.3-0.3,0.3-0.5c0-0.1,0-0.2-0.1-0.3c0-0.1-0.1-0.1-0.2-0.2
			c-0.1,0-0.1-0.1-0.2-0.1c-0.1,0-0.2,0-0.3-0.1l-0.6-0.1c-0.1,0-0.3,0-0.5-0.1c-0.2,0-0.3-0.1-0.4-0.2c-0.1-0.1-0.2-0.2-0.3-0.3
			c-0.1-0.1-0.1-0.3-0.1-0.5c0-0.2,0-0.4,0.1-0.5c0.1-0.1,0.2-0.3,0.3-0.4c0.1-0.1,0.3-0.2,0.5-0.2c0.2-0.1,0.4-0.1,0.6-0.1
			c0.4,0,0.7,0.1,0.9,0.2c0.3,0.1,0.5,0.3,0.7,0.5l-0.4,0.4c0-0.1-0.1-0.1-0.2-0.2c-0.1-0.1-0.1-0.1-0.3-0.2
			c-0.1-0.1-0.2-0.1-0.3-0.1c-0.1,0-0.3,0-0.5,0c-0.3,0-0.6,0.1-0.7,0.2c-0.2,0.1-0.2,0.3-0.2,0.5c0,0.1,0,0.2,0.1,0.3
			c0,0.1,0.1,0.1,0.2,0.2c0.1,0,0.1,0.1,0.2,0.1c0.1,0,0.2,0,0.3,0.1l0.6,0.1c0.1,0,0.3,0,0.5,0.1c0.2,0,0.3,0.1,0.4,0.2
			c0.1,0.1,0.2,0.2,0.3,0.3c0.1,0.1,0.1,0.3,0.1,0.5c0,0.4-0.2,0.7-0.5,0.9C81.6,159.9,81.2,160,80.7,160z M85.3,160
			c-0.2,0-0.4,0-0.4-0.1c-0.1-0.1-0.1-0.2-0.1-0.3v-0.1c0-0.1,0-0.2,0.1-0.3c0.1-0.1,0.2-0.1,0.4-0.1s0.4,0,0.4,0.1
			c0.1,0.1,0.1,0.2,0.1,0.3v0.1c0,0.1,0,0.2-0.1,0.3C85.6,159.9,85.5,160,85.3,160z M85.3,156.9c-0.2,0-0.4,0-0.4-0.1
			c-0.1-0.1-0.1-0.2-0.1-0.3v-0.1c0-0.1,0-0.2,0.1-0.3c0.1-0.1,0.2-0.1,0.4-0.1s0.4,0,0.4,0.1c0.1,0.1,0.1,0.2,0.1,0.3v0.1
			c0,0.1,0,0.2-0.1,0.3C85.6,156.9,85.5,156.9,85.3,156.9z M88.2,161l2.7-6.9h0.6l-2.7,6.9H88.2z M92.8,161l2.7-6.9H96l-2.7,6.9
			H92.8z M101,160.4c0,0.4-0.2,0.7-0.5,0.9c-0.3,0.2-0.8,0.3-1.5,0.3c-0.6,0-1.1-0.1-1.4-0.3c-0.3-0.2-0.4-0.4-0.4-0.7
			c0-0.2,0.1-0.4,0.2-0.5c0.1-0.1,0.3-0.2,0.5-0.3v-0.1c-0.1-0.1-0.2-0.1-0.3-0.2c-0.1-0.1-0.1-0.2-0.1-0.3c0-0.2,0.1-0.4,0.2-0.5
			c0.1-0.1,0.3-0.2,0.5-0.2v0c-0.2-0.1-0.4-0.3-0.6-0.5c-0.1-0.2-0.2-0.5-0.2-0.7c0-0.2,0-0.4,0.1-0.6c0.1-0.2,0.2-0.3,0.3-0.4
			c0.1-0.1,0.3-0.2,0.5-0.3c0.2-0.1,0.4-0.1,0.6-0.1c0.3,0,0.6,0.1,0.8,0.2V156c0-0.2,0-0.3,0.1-0.4c0.1-0.1,0.2-0.2,0.4-0.2h0.7
			v0.5h-0.9v0.3c0.1,0.1,0.3,0.3,0.3,0.4c0.1,0.2,0.1,0.4,0.1,0.6c0,0.2,0,0.4-0.1,0.6c-0.1,0.2-0.2,0.3-0.3,0.4
			c-0.1,0.1-0.3,0.2-0.5,0.3c-0.2,0.1-0.4,0.1-0.6,0.1c-0.1,0-0.1,0-0.2,0c-0.1,0-0.1,0-0.2,0c-0.1,0-0.1,0-0.2,0.1
			c-0.1,0-0.1,0.1-0.2,0.1c-0.1,0-0.1,0.1-0.1,0.1c0,0.1-0.1,0.1-0.1,0.2c0,0.1,0.1,0.2,0.2,0.2c0.1,0,0.3,0.1,0.5,0.1h0.9
			c0.5,0,0.9,0.1,1.1,0.3C100.9,159.8,101,160,101,160.4z M100.4,160.4c0-0.2-0.1-0.3-0.2-0.4c-0.1-0.1-0.4-0.1-0.7-0.1h-1.4
			c-0.3,0.1-0.4,0.3-0.4,0.5c0,0.2,0.1,0.3,0.2,0.4c0.1,0.1,0.4,0.2,0.7,0.2h0.6c0.4,0,0.6-0.1,0.8-0.2
			C100.3,160.8,100.4,160.6,100.4,160.4z M99,158.1c0.3,0,0.5-0.1,0.7-0.2c0.1-0.1,0.2-0.3,0.2-0.6v-0.2c0-0.2-0.1-0.4-0.2-0.6
			c-0.1-0.1-0.4-0.2-0.7-0.2s-0.5,0.1-0.7,0.2c-0.1,0.1-0.2,0.3-0.2,0.6v0.2c0,0.2,0.1,0.4,0.2,0.6C98.5,158,98.7,158.1,99,158.1z
			 M103.9,155.1c-0.2,0-0.3,0-0.4-0.1c-0.1-0.1-0.1-0.2-0.1-0.3v-0.1c0-0.1,0-0.2,0.1-0.3c0.1-0.1,0.2-0.1,0.4-0.1
			c0.2,0,0.3,0,0.4,0.1c0.1,0.1,0.1,0.2,0.1,0.3v0.1c0,0.1,0,0.2-0.1,0.3C104.2,155.1,104,155.1,103.9,155.1z M102.1,159.4h1.4v-2.9
			h-1.4V156h2v3.4h1.3v0.5h-3.4V159.4z M108.4,159.9c-0.3,0-0.5-0.1-0.7-0.3c-0.1-0.2-0.2-0.4-0.2-0.7v-2.5h-1.3V156h1
			c0.1,0,0.2,0,0.3-0.1c0.1-0.1,0.1-0.2,0.1-0.3v-1h0.6v1.4h1.8v0.5h-1.8v2.9h1.8v0.5H108.4z M111.2,154.2h0.6v2.4h0
			c0-0.1,0.1-0.2,0.2-0.3c0.1-0.1,0.1-0.2,0.2-0.2c0.1-0.1,0.2-0.1,0.3-0.2s0.3-0.1,0.4-0.1c0.4,0,0.7,0.1,1,0.4
			c0.2,0.3,0.4,0.6,0.4,1.1v2.5h-0.6v-2.4c0-0.4-0.1-0.6-0.2-0.8c-0.2-0.2-0.4-0.3-0.7-0.3c-0.1,0-0.2,0-0.4,0
			c-0.1,0-0.2,0.1-0.3,0.1c-0.1,0.1-0.2,0.1-0.2,0.2s-0.1,0.2-0.1,0.3v2.7h-0.6V154.2z M118.3,159.3L118.3,159.3
			c-0.1,0.1-0.1,0.2-0.2,0.3c-0.1,0.1-0.1,0.2-0.2,0.2c-0.1,0.1-0.2,0.1-0.3,0.2c-0.1,0-0.3,0.1-0.4,0.1c-0.4,0-0.7-0.1-1-0.4
			c-0.2-0.3-0.4-0.6-0.4-1.1V156h0.6v2.4c0,0.4,0.1,0.6,0.2,0.8c0.2,0.2,0.4,0.3,0.7,0.3c0.1,0,0.2,0,0.4,0c0.1,0,0.2-0.1,0.3-0.1
			c0.1-0.1,0.2-0.1,0.2-0.2c0.1-0.1,0.1-0.2,0.1-0.3V156h0.6v3.9h-0.6V159.3z M120.4,154.2h0.6v2.4h0c0.3-0.5,0.7-0.7,1.2-0.7
			c0.5,0,0.9,0.2,1.1,0.5c0.3,0.4,0.4,0.9,0.4,1.5s-0.1,1.2-0.4,1.5c-0.3,0.4-0.6,0.5-1.1,0.5c-0.6,0-1-0.2-1.2-0.7h0v0.6h-0.6
			V154.2z M122,159.5c0.4,0,0.6-0.1,0.8-0.3c0.2-0.2,0.3-0.5,0.3-0.9v-0.7c0-0.4-0.1-0.6-0.3-0.9c-0.2-0.2-0.5-0.3-0.8-0.3
			c-0.1,0-0.3,0-0.4,0.1c-0.1,0-0.2,0.1-0.3,0.2c-0.1,0.1-0.2,0.2-0.2,0.3c-0.1,0.1-0.1,0.2-0.1,0.3v1.4c0,0.1,0,0.2,0.1,0.4
			c0.1,0.1,0.1,0.2,0.2,0.3c0.1,0.1,0.2,0.1,0.3,0.2C121.8,159.4,121.9,159.5,122,159.5z M126.6,160c-0.2,0-0.4,0-0.4-0.1
			c-0.1-0.1-0.1-0.2-0.1-0.3v-0.1c0-0.1,0-0.2,0.1-0.3c0.1-0.1,0.2-0.1,0.4-0.1c0.2,0,0.4,0,0.4,0.1c0.1,0.1,0.1,0.2,0.1,0.3v0.1
			c0,0.1,0,0.2-0.1,0.3C126.9,159.9,126.8,160,126.6,160z M131.3,160c-0.3,0-0.5,0-0.8-0.1c-0.2-0.1-0.4-0.2-0.6-0.4
			c-0.2-0.2-0.3-0.4-0.4-0.6c-0.1-0.3-0.1-0.5-0.1-0.9c0-0.3,0-0.6,0.1-0.8c0.1-0.3,0.2-0.5,0.4-0.7c0.2-0.2,0.3-0.3,0.6-0.4
			c0.2-0.1,0.5-0.1,0.8-0.1c0.4,0,0.7,0.1,0.9,0.3c0.2,0.2,0.4,0.4,0.5,0.7l-0.5,0.3c-0.1-0.2-0.2-0.4-0.4-0.5
			c-0.2-0.1-0.4-0.2-0.6-0.2c-0.2,0-0.3,0-0.5,0.1c-0.1,0.1-0.3,0.1-0.4,0.2c-0.1,0.1-0.2,0.2-0.2,0.4c0,0.1-0.1,0.3-0.1,0.5v0.7
			c0,0.2,0,0.3,0.1,0.5c0.1,0.1,0.1,0.3,0.2,0.4c0.1,0.1,0.2,0.2,0.4,0.3c0.1,0.1,0.3,0.1,0.5,0.1c0.3,0,0.5-0.1,0.7-0.2
			c0.2-0.1,0.3-0.3,0.4-0.5l0.4,0.3c-0.1,0.3-0.3,0.5-0.6,0.7C132,159.9,131.7,160,131.3,160z M135.7,160c-0.3,0-0.5,0-0.8-0.1
			c-0.2-0.1-0.4-0.2-0.6-0.4c-0.2-0.2-0.3-0.4-0.4-0.7c-0.1-0.3-0.1-0.5-0.1-0.9c0-0.3,0-0.6,0.1-0.8s0.2-0.5,0.4-0.7
			c0.2-0.2,0.3-0.3,0.6-0.4c0.2-0.1,0.5-0.1,0.8-0.1c0.3,0,0.5,0,0.7,0.1c0.2,0.1,0.4,0.2,0.6,0.4c0.2,0.2,0.3,0.4,0.4,0.7
			c0.1,0.3,0.1,0.5,0.1,0.8c0,0.3,0,0.6-0.1,0.9c-0.1,0.2-0.2,0.5-0.4,0.7c-0.2,0.2-0.3,0.3-0.6,0.4C136.3,160,136,160,135.7,160z
			 M135.7,159.5c0.3,0,0.6-0.1,0.8-0.3c0.2-0.2,0.3-0.5,0.3-0.9v-0.6c0-0.4-0.1-0.7-0.3-0.9c-0.2-0.2-0.5-0.3-0.8-0.3
			c-0.3,0-0.6,0.1-0.8,0.3s-0.3,0.5-0.3,0.9v0.6c0,0.4,0.1,0.7,0.3,0.9C135.1,159.4,135.4,159.5,135.7,159.5z M138.4,159.9V156h0.6
			v0.5h0c0.1-0.2,0.1-0.3,0.3-0.4c0.1-0.1,0.3-0.2,0.5-0.2c0.2,0,0.4,0.1,0.5,0.2c0.1,0.1,0.2,0.3,0.2,0.4h0
			c0.1-0.2,0.2-0.3,0.3-0.4c0.1-0.1,0.3-0.2,0.6-0.2c0.3,0,0.5,0.1,0.6,0.3c0.1,0.2,0.2,0.5,0.2,1v2.7h-0.6v-2.6
			c0-0.3,0-0.6-0.1-0.7c-0.1-0.1-0.2-0.2-0.4-0.2c-0.2,0-0.3,0.1-0.4,0.2c-0.1,0.1-0.2,0.3-0.2,0.5v2.9H140v-2.6
			c0-0.3,0-0.6-0.1-0.7c-0.1-0.1-0.2-0.2-0.4-0.2c-0.2,0-0.3,0.1-0.4,0.2c-0.1,0.1-0.2,0.3-0.2,0.5v2.9H138.4z M143.3,161l2.7-6.9
			h0.6l-2.7,6.9H143.3z M17.6,170.2v-1.7h-0.1l-1.1,2.7l-1.1-2.7h-0.1v1.7v2.7h-0.6v-5.3h0.8l0.9,2.4h0l0.9-2.4h0.8v5.3h-0.6V170.2z
			 M21.1,173c-0.3,0-0.5,0-0.8-0.1c-0.2-0.1-0.4-0.2-0.6-0.4c-0.2-0.2-0.3-0.4-0.4-0.7c-0.1-0.3-0.1-0.5-0.1-0.8
			c0-0.3,0-0.6,0.1-0.9c0.1-0.3,0.2-0.5,0.4-0.7c0.2-0.2,0.3-0.3,0.6-0.4c0.2-0.1,0.5-0.1,0.7-0.1c0.3,0,0.5,0,0.7,0.1
			c0.2,0.1,0.4,0.2,0.6,0.4c0.2,0.2,0.3,0.4,0.4,0.6c0.1,0.2,0.1,0.5,0.1,0.8v0.3h-2.9v0.2c0,0.2,0,0.3,0.1,0.5
			c0.1,0.1,0.1,0.3,0.2,0.4c0.1,0.1,0.2,0.2,0.4,0.3c0.2,0.1,0.3,0.1,0.5,0.1c0.3,0,0.5-0.1,0.7-0.2c0.2-0.1,0.3-0.3,0.4-0.5
			l0.5,0.3c-0.1,0.3-0.3,0.5-0.6,0.7C21.8,172.9,21.5,173,21.1,173z M21.1,169.4c-0.2,0-0.3,0-0.5,0.1c-0.1,0.1-0.3,0.1-0.4,0.3
			c-0.1,0.1-0.2,0.2-0.2,0.4c-0.1,0.1-0.1,0.3-0.1,0.5v0.1h2.3v-0.1c0-0.2,0-0.3-0.1-0.5c-0.1-0.1-0.1-0.3-0.2-0.4
			c-0.1-0.1-0.2-0.2-0.3-0.2C21.4,169.4,21.2,169.4,21.1,169.4z M23.9,172.4h1.4v-4.6h-1.4v-0.5h2v5.1h1.4v0.5h-3.4V172.4z
			 M30.4,172.9c-0.3,0-0.5-0.1-0.7-0.3c-0.1-0.2-0.2-0.4-0.2-0.7v-2.5h-1.3V169h1c0.1,0,0.2,0,0.3-0.1c0.1-0.1,0.1-0.2,0.1-0.3v-1
			h0.6v1.4h1.8v0.5h-1.8v2.9h1.8v0.5H30.4z M36.3,172.9c-0.2,0-0.4-0.1-0.5-0.2c-0.1-0.1-0.2-0.3-0.2-0.5h0
			c-0.1,0.2-0.2,0.4-0.4,0.5c-0.2,0.1-0.4,0.2-0.8,0.2c-0.4,0-0.7-0.1-1-0.3c-0.2-0.2-0.4-0.5-0.4-0.9c0-0.4,0.1-0.7,0.4-0.9
			c0.3-0.2,0.7-0.3,1.3-0.3h0.8v-0.4c0-0.3-0.1-0.5-0.2-0.7c-0.2-0.1-0.4-0.2-0.7-0.2c-0.3,0-0.5,0.1-0.7,0.2
			c-0.2,0.1-0.3,0.2-0.4,0.4l-0.4-0.3c0.1-0.1,0.1-0.2,0.2-0.3s0.2-0.2,0.3-0.3c0.1-0.1,0.3-0.1,0.4-0.2c0.2,0,0.3-0.1,0.5-0.1
			c0.5,0,0.8,0.1,1.1,0.4c0.3,0.2,0.4,0.6,0.4,1v2.2h0.6v0.5H36.3z M34.5,172.5c0.2,0,0.3,0,0.4-0.1c0.1,0,0.2-0.1,0.3-0.2
			c0.1-0.1,0.2-0.1,0.2-0.2c0.1-0.1,0.1-0.2,0.1-0.3v-0.7h-0.8c-0.4,0-0.6,0.1-0.8,0.2c-0.2,0.1-0.3,0.2-0.3,0.4v0.2
			c0,0.2,0.1,0.4,0.2,0.5C34,172.4,34.2,172.5,34.5,172.5z M37.8,172.9V169h0.6v0.6h0c0-0.1,0.1-0.2,0.2-0.3
			c0.1-0.1,0.1-0.2,0.2-0.2c0.1-0.1,0.2-0.1,0.3-0.2c0.1,0,0.3-0.1,0.4-0.1c0.4,0,0.7,0.1,1,0.4c0.2,0.3,0.4,0.6,0.4,1.1v2.5h-0.6
			v-2.4c0-0.4-0.1-0.6-0.2-0.8c-0.2-0.2-0.4-0.3-0.7-0.3c-0.1,0-0.2,0-0.4,0c-0.1,0-0.2,0.1-0.3,0.1c-0.1,0.1-0.2,0.1-0.2,0.2
			c-0.1,0.1-0.1,0.2-0.1,0.3v2.7H37.8z M44,173c-0.3,0-0.5,0-0.8-0.1c-0.2-0.1-0.4-0.2-0.6-0.4c-0.2-0.2-0.3-0.4-0.4-0.7
			c-0.1-0.3-0.1-0.5-0.1-0.9c0-0.3,0-0.6,0.1-0.8c0.1-0.3,0.2-0.5,0.4-0.7c0.2-0.2,0.3-0.3,0.6-0.4c0.2-0.1,0.5-0.1,0.8-0.1
			c0.3,0,0.5,0,0.7,0.1c0.2,0.1,0.4,0.2,0.6,0.4c0.2,0.2,0.3,0.4,0.4,0.7c0.1,0.3,0.1,0.5,0.1,0.8c0,0.3,0,0.6-0.1,0.9
			c-0.1,0.2-0.2,0.5-0.4,0.7c-0.2,0.2-0.3,0.3-0.6,0.4C44.5,173,44.2,173,44,173z M44,172.5c0.3,0,0.6-0.1,0.8-0.3
			c0.2-0.2,0.3-0.5,0.3-0.9v-0.6c0-0.4-0.1-0.7-0.3-0.9c-0.2-0.2-0.5-0.3-0.8-0.3c-0.3,0-0.6,0.1-0.8,0.3c-0.2,0.2-0.3,0.5-0.3,0.9
			v0.6c0,0.4,0.1,0.7,0.3,0.9C43.3,172.4,43.6,172.5,44,172.5z M47.2,172.9v-5.3h0.6v4.8h2.5v0.6H47.2z M54.6,172.9
			c-0.2,0-0.4-0.1-0.5-0.2c-0.1-0.1-0.2-0.3-0.2-0.5h0c-0.1,0.2-0.2,0.4-0.4,0.5c-0.2,0.1-0.4,0.2-0.8,0.2c-0.4,0-0.7-0.1-1-0.3
			c-0.2-0.2-0.4-0.5-0.4-0.9c0-0.4,0.1-0.7,0.4-0.9c0.3-0.2,0.7-0.3,1.3-0.3h0.8v-0.4c0-0.3-0.1-0.5-0.2-0.7
			c-0.2-0.1-0.4-0.2-0.7-0.2c-0.3,0-0.5,0.1-0.7,0.2c-0.2,0.1-0.3,0.2-0.4,0.4l-0.4-0.3c0.1-0.1,0.1-0.2,0.2-0.3s0.2-0.2,0.3-0.3
			c0.1-0.1,0.3-0.1,0.4-0.2c0.2,0,0.3-0.1,0.5-0.1c0.5,0,0.8,0.1,1.1,0.4c0.3,0.2,0.4,0.6,0.4,1v2.2h0.6v0.5H54.6z M52.8,172.5
			c0.2,0,0.3,0,0.4-0.1c0.1,0,0.2-0.1,0.3-0.2c0.1-0.1,0.2-0.1,0.2-0.2c0.1-0.1,0.1-0.2,0.1-0.3v-0.7h-0.8c-0.4,0-0.6,0.1-0.8,0.2
			c-0.2,0.1-0.3,0.2-0.3,0.4v0.2c0,0.2,0.1,0.4,0.2,0.5C52.4,172.4,52.6,172.5,52.8,172.5z M56.2,167.2h0.6v2.4h0
			c0.3-0.5,0.7-0.7,1.2-0.7c0.5,0,0.9,0.2,1.1,0.5c0.3,0.4,0.4,0.9,0.4,1.5s-0.1,1.2-0.4,1.5c-0.3,0.4-0.6,0.5-1.1,0.5
			c-0.6,0-1-0.2-1.2-0.7h0v0.6h-0.6V167.2z M57.8,172.5c0.4,0,0.6-0.1,0.8-0.3c0.2-0.2,0.3-0.5,0.3-0.9v-0.7c0-0.4-0.1-0.6-0.3-0.9
			c-0.2-0.2-0.5-0.3-0.8-0.3c-0.1,0-0.3,0-0.4,0.1c-0.1,0-0.2,0.1-0.3,0.2c-0.1,0.1-0.2,0.2-0.2,0.3c-0.1,0.1-0.1,0.2-0.1,0.3v1.4
			c0,0.1,0,0.2,0.1,0.4c0.1,0.1,0.1,0.2,0.2,0.3c0.1,0.1,0.2,0.1,0.3,0.2C57.5,172.4,57.6,172.5,57.8,172.5z M62.4,173
			c-0.4,0-0.8-0.1-1.1-0.2c-0.3-0.1-0.5-0.3-0.8-0.6l0.4-0.4c0.2,0.2,0.4,0.4,0.6,0.5s0.5,0.2,0.8,0.2c0.3,0,0.6-0.1,0.8-0.2
			c0.2-0.1,0.3-0.3,0.3-0.5c0-0.1,0-0.2-0.1-0.3c0-0.1-0.1-0.1-0.2-0.2c-0.1,0-0.1-0.1-0.2-0.1c-0.1,0-0.2,0-0.3-0.1l-0.6-0.1
			c-0.1,0-0.3,0-0.5-0.1c-0.2,0-0.3-0.1-0.4-0.2c-0.1-0.1-0.2-0.2-0.3-0.3c-0.1-0.1-0.1-0.3-0.1-0.5c0-0.2,0-0.4,0.1-0.5
			c0.1-0.1,0.2-0.3,0.3-0.4c0.1-0.1,0.3-0.2,0.5-0.2c0.2-0.1,0.4-0.1,0.6-0.1c0.4,0,0.7,0.1,0.9,0.2c0.3,0.1,0.5,0.3,0.7,0.5
			l-0.4,0.4c0-0.1-0.1-0.1-0.2-0.2c-0.1-0.1-0.2-0.1-0.3-0.2c-0.1-0.1-0.2-0.1-0.3-0.1c-0.1,0-0.3,0-0.5,0c-0.3,0-0.6,0.1-0.7,0.2
			c-0.2,0.1-0.2,0.3-0.2,0.5c0,0.1,0,0.2,0.1,0.3c0,0.1,0.1,0.1,0.2,0.2c0.1,0,0.1,0.1,0.2,0.1c0.1,0,0.2,0,0.3,0.1l0.6,0.1
			c0.1,0,0.3,0,0.5,0.1c0.2,0,0.3,0.1,0.4,0.2c0.1,0.1,0.2,0.2,0.3,0.3c0.1,0.1,0.1,0.3,0.1,0.5c0,0.4-0.2,0.7-0.5,0.9
			C63.3,172.9,62.9,173,62.4,173z M65.3,174l2.7-6.9h0.6l-2.7,6.9H65.3z M71.7,172.9c-0.3,0-0.5-0.1-0.7-0.3
			c-0.1-0.2-0.2-0.4-0.2-0.7v-2.5h-1.3V169h1c0.1,0,0.2,0,0.3-0.1c0.1-0.1,0.1-0.2,0.1-0.3v-1h0.6v1.4h1.8v0.5h-1.8v2.9h1.8v0.5
			H71.7z M77.6,172.9c-0.2,0-0.4-0.1-0.5-0.2c-0.1-0.1-0.2-0.3-0.2-0.5h0c-0.1,0.2-0.2,0.4-0.4,0.5c-0.2,0.1-0.4,0.2-0.8,0.2
			c-0.4,0-0.7-0.1-1-0.3c-0.2-0.2-0.4-0.5-0.4-0.9c0-0.4,0.1-0.7,0.4-0.9c0.3-0.2,0.7-0.3,1.3-0.3h0.8v-0.4c0-0.3-0.1-0.5-0.2-0.7
			c-0.2-0.1-0.4-0.2-0.7-0.2c-0.3,0-0.5,0.1-0.7,0.2c-0.2,0.1-0.3,0.2-0.4,0.4l-0.4-0.3c0.1-0.1,0.1-0.2,0.2-0.3
			c0.1-0.1,0.2-0.2,0.3-0.3c0.1-0.1,0.3-0.1,0.4-0.2c0.2,0,0.3-0.1,0.5-0.1c0.5,0,0.8,0.1,1.1,0.4c0.3,0.2,0.4,0.6,0.4,1v2.2H78v0.5
			H77.6z M75.8,172.5c0.2,0,0.3,0,0.4-0.1c0.1,0,0.2-0.1,0.3-0.2c0.1-0.1,0.2-0.1,0.2-0.2c0.1-0.1,0.1-0.2,0.1-0.3v-0.7H76
			c-0.4,0-0.6,0.1-0.8,0.2c-0.2,0.1-0.3,0.2-0.3,0.4v0.2c0,0.2,0.1,0.4,0.2,0.5C75.3,172.4,75.5,172.5,75.8,172.5z M79.1,169h0.6
			v0.6h0c0.3-0.5,0.7-0.7,1.2-0.7c0.5,0,0.9,0.2,1.1,0.5c0.3,0.4,0.4,0.9,0.4,1.5s-0.1,1.2-0.4,1.5c-0.3,0.4-0.6,0.5-1.1,0.5
			c-0.6,0-1-0.2-1.2-0.7h0v2.2h-0.6V169z M80.7,172.5c0.4,0,0.6-0.1,0.8-0.3c0.2-0.2,0.3-0.5,0.3-0.9v-0.7c0-0.4-0.1-0.6-0.3-0.9
			c-0.2-0.2-0.5-0.3-0.8-0.3c-0.1,0-0.3,0-0.4,0.1c-0.1,0-0.2,0.1-0.3,0.2c-0.1,0.1-0.2,0.2-0.2,0.3c-0.1,0.1-0.1,0.2-0.1,0.3v1.4
			c0,0.1,0,0.2,0.1,0.4c0.1,0.1,0.1,0.2,0.2,0.3c0.1,0.1,0.2,0.1,0.3,0.2C80.5,172.4,80.6,172.5,80.7,172.5z M84.2,170.9v-0.6h2.2
			v0.6H84.2z M91.8,173.4c0,0.4-0.2,0.7-0.5,0.9c-0.3,0.2-0.8,0.3-1.5,0.3c-0.6,0-1.1-0.1-1.4-0.3c-0.3-0.2-0.4-0.4-0.4-0.7
			c0-0.2,0.1-0.4,0.2-0.5c0.1-0.1,0.3-0.2,0.5-0.3v-0.1c-0.1-0.1-0.2-0.1-0.3-0.2c-0.1-0.1-0.1-0.2-0.1-0.3c0-0.2,0.1-0.4,0.2-0.5
			c0.1-0.1,0.3-0.2,0.5-0.2v0c-0.2-0.1-0.4-0.3-0.6-0.5c-0.1-0.2-0.2-0.5-0.2-0.7c0-0.2,0-0.4,0.1-0.6c0.1-0.2,0.2-0.3,0.3-0.4
			c0.1-0.1,0.3-0.2,0.5-0.3c0.2-0.1,0.4-0.1,0.6-0.1c0.3,0,0.6,0.1,0.8,0.2V169c0-0.2,0-0.3,0.1-0.4c0.1-0.1,0.2-0.2,0.4-0.2h0.7
			v0.5h-0.9v0.3c0.1,0.1,0.3,0.3,0.3,0.4c0.1,0.2,0.1,0.4,0.1,0.6c0,0.2,0,0.4-0.1,0.6c-0.1,0.2-0.2,0.3-0.3,0.4
			c-0.1,0.1-0.3,0.2-0.5,0.3c-0.2,0.1-0.4,0.1-0.6,0.1c-0.1,0-0.1,0-0.2,0c-0.1,0-0.1,0-0.2,0c-0.1,0-0.1,0-0.2,0.1
			c-0.1,0-0.1,0.1-0.2,0.1c-0.1,0-0.1,0.1-0.1,0.1c0,0.1-0.1,0.1-0.1,0.2c0,0.1,0.1,0.2,0.2,0.2c0.1,0,0.3,0.1,0.5,0.1h0.9
			c0.5,0,0.9,0.1,1.1,0.3C91.7,172.8,91.8,173,91.8,173.4z M91.3,173.4c0-0.2-0.1-0.3-0.2-0.4c-0.1-0.1-0.3-0.1-0.7-0.1H89
			c-0.3,0.1-0.4,0.3-0.4,0.5c0,0.2,0.1,0.3,0.2,0.4c0.1,0.1,0.4,0.2,0.7,0.2h0.6c0.4,0,0.6-0.1,0.8-0.2
			C91.2,173.8,91.3,173.6,91.3,173.4z M89.8,171.1c0.3,0,0.5-0.1,0.7-0.2c0.1-0.1,0.2-0.3,0.2-0.6v-0.2c0-0.2-0.1-0.4-0.2-0.6
			c-0.1-0.1-0.4-0.2-0.7-0.2s-0.5,0.1-0.7,0.2c-0.1,0.1-0.2,0.3-0.2,0.6v0.2c0,0.2,0.1,0.4,0.2,0.6C89.3,171,89.5,171.1,89.8,171.1z
			 M94.7,168.1c-0.2,0-0.3,0-0.4-0.1c-0.1-0.1-0.1-0.2-0.1-0.3v-0.1c0-0.1,0-0.2,0.1-0.3c0.1-0.1,0.2-0.1,0.4-0.1
			c0.2,0,0.3,0,0.4,0.1c0.1,0.1,0.1,0.2,0.1,0.3v0.1c0,0.1,0,0.2-0.1,0.3C95,168.1,94.9,168.1,94.7,168.1z M93,172.4h1.4v-2.9H93
			V169h2v3.4h1.3v0.5H93V172.4z M99.2,172.9c-0.3,0-0.5-0.1-0.7-0.3c-0.1-0.2-0.2-0.4-0.2-0.7v-2.5H97V169h1c0.1,0,0.2,0,0.3-0.1
			c0.1-0.1,0.1-0.2,0.1-0.3v-1H99v1.4h1.8v0.5H99v2.9h1.8v0.5H99.2z M102.1,167.2h0.6v2.4h0c0-0.1,0.1-0.2,0.2-0.3
			c0.1-0.1,0.1-0.2,0.2-0.2c0.1-0.1,0.2-0.1,0.3-0.2c0.1,0,0.3-0.1,0.4-0.1c0.4,0,0.7,0.1,1,0.4c0.2,0.3,0.4,0.6,0.4,1.1v2.5h-0.6
			v-2.4c0-0.4-0.1-0.6-0.2-0.8c-0.2-0.2-0.4-0.3-0.7-0.3c-0.1,0-0.2,0-0.4,0c-0.1,0-0.2,0.1-0.3,0.1c-0.1,0.1-0.2,0.1-0.2,0.2
			c-0.1,0.1-0.1,0.2-0.1,0.3v2.7h-0.6V167.2z M109.1,172.3L109.1,172.3c-0.1,0.1-0.1,0.2-0.2,0.3c-0.1,0.1-0.1,0.2-0.2,0.2
			c-0.1,0.1-0.2,0.1-0.3,0.2c-0.1,0-0.3,0.1-0.4,0.1c-0.4,0-0.7-0.1-1-0.4c-0.2-0.3-0.4-0.6-0.4-1.1V169h0.6v2.4
			c0,0.4,0.1,0.6,0.2,0.8c0.2,0.2,0.4,0.3,0.7,0.3c0.1,0,0.2,0,0.4,0c0.1,0,0.2-0.1,0.3-0.1s0.2-0.1,0.2-0.2
			c0.1-0.1,0.1-0.2,0.1-0.3V169h0.6v3.9h-0.6V172.3z M111.2,167.2h0.6v2.4h0c0.3-0.5,0.7-0.7,1.2-0.7c0.5,0,0.9,0.2,1.1,0.5
			c0.3,0.4,0.4,0.9,0.4,1.5s-0.1,1.2-0.4,1.5c-0.3,0.4-0.6,0.5-1.1,0.5c-0.6,0-1-0.2-1.2-0.7h0v0.6h-0.6V167.2z M112.8,172.5
			c0.4,0,0.6-0.1,0.8-0.3c0.2-0.2,0.3-0.5,0.3-0.9v-0.7c0-0.4-0.1-0.6-0.3-0.9c-0.2-0.2-0.5-0.3-0.8-0.3c-0.1,0-0.3,0-0.4,0.1
			c-0.1,0-0.2,0.1-0.3,0.2c-0.1,0.1-0.2,0.2-0.2,0.3c-0.1,0.1-0.1,0.2-0.1,0.3v1.4c0,0.1,0,0.2,0.1,0.4c0.1,0.1,0.1,0.2,0.2,0.3
			c0.1,0.1,0.2,0.1,0.3,0.2C112.6,172.4,112.7,172.5,112.8,172.5z M18.4,186.4c0,0.4-0.2,0.7-0.5,0.9c-0.3,0.2-0.8,0.3-1.5,0.3
			c-0.6,0-1.1-0.1-1.4-0.3c-0.3-0.2-0.4-0.4-0.4-0.7c0-0.2,0.1-0.4,0.2-0.5c0.1-0.1,0.3-0.2,0.5-0.3v-0.1c-0.1-0.1-0.2-0.1-0.3-0.2
			c-0.1-0.1-0.1-0.2-0.1-0.3c0-0.2,0.1-0.4,0.2-0.5c0.1-0.1,0.3-0.2,0.5-0.2v0c-0.2-0.1-0.4-0.3-0.6-0.5c-0.1-0.2-0.2-0.5-0.2-0.7
			c0-0.2,0-0.4,0.1-0.6c0.1-0.2,0.2-0.3,0.3-0.4c0.1-0.1,0.3-0.2,0.5-0.3c0.2-0.1,0.4-0.1,0.6-0.1c0.3,0,0.6,0.1,0.8,0.2V182
			c0-0.2,0-0.3,0.1-0.4c0.1-0.1,0.2-0.2,0.4-0.2h0.7v0.5h-0.9v0.3c0.1,0.1,0.3,0.3,0.3,0.4c0.1,0.2,0.1,0.4,0.1,0.6
			c0,0.2,0,0.4-0.1,0.6c-0.1,0.2-0.2,0.3-0.3,0.4c-0.1,0.1-0.3,0.2-0.5,0.3c-0.2,0.1-0.4,0.1-0.6,0.1c-0.1,0-0.1,0-0.2,0
			c-0.1,0-0.1,0-0.2,0c-0.1,0-0.1,0-0.2,0.1c-0.1,0-0.1,0.1-0.2,0.1c-0.1,0-0.1,0.1-0.1,0.1c0,0.1-0.1,0.1-0.1,0.2
			c0,0.1,0.1,0.2,0.2,0.2c0.1,0,0.3,0.1,0.5,0.1H17c0.5,0,0.9,0.1,1.1,0.3C18.3,185.8,18.4,186,18.4,186.4z M17.9,186.4
			c0-0.2-0.1-0.3-0.2-0.4c-0.1-0.1-0.3-0.1-0.7-0.1h-1.4c-0.3,0.1-0.4,0.3-0.4,0.5c0,0.2,0.1,0.3,0.2,0.4c0.1,0.1,0.4,0.2,0.7,0.2
			h0.6c0.4,0,0.6-0.1,0.8-0.2C17.8,186.8,17.9,186.6,17.9,186.4z M16.4,184.1c0.3,0,0.5-0.1,0.7-0.2c0.1-0.1,0.2-0.3,0.2-0.6v-0.2
			c0-0.2-0.1-0.4-0.2-0.6c-0.1-0.1-0.4-0.2-0.7-0.2c-0.3,0-0.5,0.1-0.7,0.2c-0.1,0.1-0.2,0.3-0.2,0.6v0.2c0,0.2,0.1,0.4,0.2,0.6
			C15.9,184,16.1,184.1,16.4,184.1z M21.3,181.1c-0.2,0-0.3,0-0.4-0.1c-0.1-0.1-0.1-0.2-0.1-0.3v-0.1c0-0.1,0-0.2,0.1-0.3
			c0.1-0.1,0.2-0.1,0.4-0.1c0.2,0,0.3,0,0.4,0.1c0.1,0.1,0.1,0.2,0.1,0.3v0.1c0,0.1,0,0.2-0.1,0.3C21.6,181.1,21.4,181.1,21.3,181.1
			z M19.5,185.4H21v-2.9h-1.4V182h2v3.4h1.3v0.5h-3.4V185.4z M25.8,185.9c-0.3,0-0.5-0.1-0.7-0.3c-0.1-0.2-0.2-0.4-0.2-0.7v-2.5
			h-1.3V182h1c0.1,0,0.2,0,0.3-0.1c0.1-0.1,0.1-0.2,0.1-0.3v-1h0.6v1.4h1.8v0.5h-1.8v2.9h1.8v0.5H25.8z M34.9,186
			c-0.3,0-0.5,0-0.8-0.1c-0.2-0.1-0.4-0.2-0.6-0.4c-0.2-0.2-0.3-0.4-0.4-0.6c-0.1-0.3-0.1-0.5-0.1-0.9c0-0.3,0-0.6,0.1-0.8
			s0.2-0.5,0.4-0.7c0.2-0.2,0.3-0.3,0.6-0.4s0.5-0.1,0.7-0.1c0.4,0,0.7,0.1,0.9,0.3c0.2,0.2,0.4,0.4,0.5,0.7l-0.5,0.3
			c-0.1-0.2-0.2-0.4-0.4-0.5c-0.2-0.1-0.4-0.2-0.6-0.2c-0.2,0-0.3,0-0.5,0.1c-0.1,0.1-0.3,0.1-0.4,0.2c-0.1,0.1-0.2,0.2-0.2,0.4
			c0,0.1-0.1,0.3-0.1,0.5v0.7c0,0.2,0,0.3,0.1,0.5c0.1,0.1,0.1,0.3,0.2,0.4c0.1,0.1,0.2,0.2,0.4,0.3c0.1,0.1,0.3,0.1,0.5,0.1
			c0.3,0,0.5-0.1,0.7-0.2c0.2-0.1,0.3-0.3,0.4-0.5l0.4,0.3c-0.1,0.3-0.3,0.5-0.6,0.7C35.6,185.9,35.3,186,34.9,186z M37.7,185.4h1.4
			v-4.6h-1.4v-0.5h2v5.1h1.4v0.5h-3.4V185.4z M44,186c-0.3,0-0.5,0-0.8-0.1c-0.2-0.1-0.4-0.2-0.6-0.4c-0.2-0.2-0.3-0.4-0.4-0.7
			c-0.1-0.3-0.1-0.5-0.1-0.9c0-0.3,0-0.6,0.1-0.8c0.1-0.3,0.2-0.5,0.4-0.7c0.2-0.2,0.3-0.3,0.6-0.4c0.2-0.1,0.5-0.1,0.8-0.1
			c0.3,0,0.5,0,0.7,0.1c0.2,0.1,0.4,0.2,0.6,0.4c0.2,0.2,0.3,0.4,0.4,0.7c0.1,0.3,0.1,0.5,0.1,0.8c0,0.3,0,0.6-0.1,0.9
			c-0.1,0.2-0.2,0.5-0.4,0.7c-0.2,0.2-0.3,0.3-0.6,0.4C44.5,186,44.2,186,44,186z M44,185.5c0.3,0,0.6-0.1,0.8-0.3
			c0.2-0.2,0.3-0.5,0.3-0.9v-0.6c0-0.4-0.1-0.7-0.3-0.9c-0.2-0.2-0.5-0.3-0.8-0.3c-0.3,0-0.6,0.1-0.8,0.3c-0.2,0.2-0.3,0.5-0.3,0.9
			v0.6c0,0.4,0.1,0.7,0.3,0.9C43.3,185.4,43.6,185.5,44,185.5z M47,185.9V182h0.6v0.6h0c0-0.1,0.1-0.2,0.2-0.3
			c0.1-0.1,0.1-0.2,0.2-0.2c0.1-0.1,0.2-0.1,0.3-0.2c0.1,0,0.3-0.1,0.4-0.1c0.4,0,0.7,0.1,1,0.4c0.2,0.3,0.4,0.6,0.4,1.1v2.5h-0.6
			v-2.4c0-0.4-0.1-0.6-0.2-0.8c-0.2-0.2-0.4-0.3-0.7-0.3c-0.1,0-0.2,0-0.4,0c-0.1,0-0.2,0.1-0.3,0.1c-0.1,0.1-0.2,0.1-0.2,0.2
			c-0.1,0.1-0.1,0.2-0.1,0.3v2.7H47z M53.2,186c-0.3,0-0.5,0-0.8-0.1c-0.2-0.1-0.4-0.2-0.6-0.4c-0.2-0.2-0.3-0.4-0.4-0.7
			c-0.1-0.3-0.1-0.5-0.1-0.8c0-0.3,0-0.6,0.1-0.9c0.1-0.3,0.2-0.5,0.4-0.7c0.2-0.2,0.3-0.3,0.6-0.4c0.2-0.1,0.5-0.1,0.7-0.1
			c0.3,0,0.5,0,0.7,0.1c0.2,0.1,0.4,0.2,0.6,0.4c0.2,0.2,0.3,0.4,0.4,0.6c0.1,0.2,0.1,0.5,0.1,0.8v0.3H52v0.2c0,0.2,0,0.3,0.1,0.5
			c0.1,0.1,0.1,0.3,0.2,0.4c0.1,0.1,0.2,0.2,0.4,0.3c0.2,0.1,0.3,0.1,0.5,0.1c0.3,0,0.5-0.1,0.7-0.2c0.2-0.1,0.3-0.3,0.4-0.5
			l0.5,0.3c-0.1,0.3-0.3,0.5-0.6,0.7C53.9,185.9,53.6,186,53.2,186z M53.2,182.4c-0.2,0-0.3,0-0.5,0.1c-0.1,0.1-0.3,0.1-0.4,0.3
			c-0.1,0.1-0.2,0.2-0.2,0.4c-0.1,0.1-0.1,0.3-0.1,0.5v0.1h2.3v-0.1c0-0.2,0-0.3-0.1-0.5c-0.1-0.1-0.1-0.3-0.2-0.4
			c-0.1-0.1-0.2-0.2-0.3-0.2C53.5,182.4,53.3,182.4,53.2,182.4z M60.8,180.2h0.6v2.4h0c0-0.1,0.1-0.2,0.2-0.3
			c0.1-0.1,0.1-0.2,0.2-0.2c0.1-0.1,0.2-0.1,0.3-0.2c0.1,0,0.3-0.1,0.4-0.1c0.4,0,0.7,0.1,1,0.4c0.2,0.3,0.4,0.6,0.4,1.1v2.5h-0.6
			v-2.4c0-0.4-0.1-0.6-0.2-0.8c-0.2-0.2-0.4-0.3-0.7-0.3c-0.1,0-0.2,0-0.4,0c-0.1,0-0.2,0.1-0.3,0.1c-0.1,0.1-0.2,0.1-0.2,0.2
			c-0.1,0.1-0.1,0.2-0.1,0.3v2.7h-0.6V180.2z M67.1,185.9c-0.3,0-0.5-0.1-0.7-0.3c-0.1-0.2-0.2-0.4-0.2-0.7v-2.5h-1.3V182h1
			c0.1,0,0.2,0,0.3-0.1c0.1-0.1,0.1-0.2,0.1-0.3v-1h0.6v1.4h1.8v0.5h-1.8v2.9h1.8v0.5H67.1z M71.7,185.9c-0.3,0-0.5-0.1-0.7-0.3
			c-0.1-0.2-0.2-0.4-0.2-0.7v-2.5h-1.3V182h1c0.1,0,0.2,0,0.3-0.1c0.1-0.1,0.1-0.2,0.1-0.3v-1h0.6v1.4h1.8v0.5h-1.8v2.9h1.8v0.5
			H71.7z M74.5,182h0.6v0.6h0c0.3-0.5,0.7-0.7,1.2-0.7c0.5,0,0.9,0.2,1.1,0.5c0.3,0.4,0.4,0.9,0.4,1.5s-0.1,1.2-0.4,1.5
			c-0.3,0.4-0.6,0.5-1.1,0.5c-0.6,0-1-0.2-1.2-0.7h0v2.2h-0.6V182z M76.1,185.5c0.4,0,0.6-0.1,0.8-0.3c0.2-0.2,0.3-0.5,0.3-0.9v-0.7
			c0-0.4-0.1-0.6-0.3-0.9c-0.2-0.2-0.5-0.3-0.8-0.3c-0.1,0-0.3,0-0.4,0.1c-0.1,0-0.2,0.1-0.3,0.2c-0.1,0.1-0.2,0.2-0.2,0.3
			c-0.1,0.1-0.1,0.2-0.1,0.3v1.4c0,0.1,0,0.2,0.1,0.4c0.1,0.1,0.1,0.2,0.2,0.3c0.1,0.1,0.2,0.1,0.3,0.2
			C75.9,185.4,76,185.5,76.1,185.5z M80.7,186c-0.4,0-0.8-0.1-1.1-0.2c-0.3-0.1-0.5-0.3-0.8-0.6l0.4-0.4c0.2,0.2,0.4,0.4,0.6,0.5
			c0.2,0.1,0.5,0.2,0.8,0.2c0.3,0,0.6-0.1,0.8-0.2c0.2-0.1,0.3-0.3,0.3-0.5c0-0.1,0-0.2-0.1-0.3c0-0.1-0.1-0.1-0.2-0.2
			c-0.1,0-0.1-0.1-0.2-0.1c-0.1,0-0.2,0-0.3-0.1l-0.6-0.1c-0.1,0-0.3,0-0.5-0.1c-0.2,0-0.3-0.1-0.4-0.2c-0.1-0.1-0.2-0.2-0.3-0.3
			c-0.1-0.1-0.1-0.3-0.1-0.5c0-0.2,0-0.4,0.1-0.5c0.1-0.1,0.2-0.3,0.3-0.4c0.1-0.1,0.3-0.2,0.5-0.2c0.2-0.1,0.4-0.1,0.6-0.1
			c0.4,0,0.7,0.1,0.9,0.2c0.3,0.1,0.5,0.3,0.7,0.5l-0.4,0.4c0-0.1-0.1-0.1-0.2-0.2c-0.1-0.1-0.1-0.1-0.3-0.2
			c-0.1-0.1-0.2-0.1-0.3-0.1c-0.1,0-0.3,0-0.5,0c-0.3,0-0.6,0.1-0.7,0.2c-0.2,0.1-0.2,0.3-0.2,0.5c0,0.1,0,0.2,0.1,0.3
			c0,0.1,0.1,0.1,0.2,0.2c0.1,0,0.1,0.1,0.2,0.1c0.1,0,0.2,0,0.3,0.1l0.6,0.1c0.1,0,0.3,0,0.5,0.1c0.2,0,0.3,0.1,0.4,0.2
			c0.1,0.1,0.2,0.2,0.3,0.3c0.1,0.1,0.1,0.3,0.1,0.5c0,0.4-0.2,0.7-0.5,0.9C81.6,185.9,81.2,186,80.7,186z M85.3,186
			c-0.2,0-0.4,0-0.4-0.1c-0.1-0.1-0.1-0.2-0.1-0.3v-0.1c0-0.1,0-0.2,0.1-0.3c0.1-0.1,0.2-0.1,0.4-0.1s0.4,0,0.4,0.1
			c0.1,0.1,0.1,0.2,0.1,0.3v0.1c0,0.1,0,0.2-0.1,0.3C85.6,185.9,85.5,186,85.3,186z M85.3,182.9c-0.2,0-0.4,0-0.4-0.1
			c-0.1-0.1-0.1-0.2-0.1-0.3v-0.1c0-0.1,0-0.2,0.1-0.3c0.1-0.1,0.2-0.1,0.4-0.1s0.4,0,0.4,0.1c0.1,0.1,0.1,0.2,0.1,0.3v0.1
			c0,0.1,0,0.2-0.1,0.3C85.6,182.9,85.5,182.9,85.3,182.9z M88.2,187l2.7-6.9h0.6l-2.7,6.9H88.2z M92.8,187l2.7-6.9H96l-2.7,6.9
			H92.8z M101,186.4c0,0.4-0.2,0.7-0.5,0.9c-0.3,0.2-0.8,0.3-1.5,0.3c-0.6,0-1.1-0.1-1.4-0.3c-0.3-0.2-0.4-0.4-0.4-0.7
			c0-0.2,0.1-0.4,0.2-0.5c0.1-0.1,0.3-0.2,0.5-0.3v-0.1c-0.1-0.1-0.2-0.1-0.3-0.2c-0.1-0.1-0.1-0.2-0.1-0.3c0-0.2,0.1-0.4,0.2-0.5
			c0.1-0.1,0.3-0.2,0.5-0.2v0c-0.2-0.1-0.4-0.3-0.6-0.5c-0.1-0.2-0.2-0.5-0.2-0.7c0-0.2,0-0.4,0.1-0.6c0.1-0.2,0.2-0.3,0.3-0.4
			c0.1-0.1,0.3-0.2,0.5-0.3c0.2-0.1,0.4-0.1,0.6-0.1c0.3,0,0.6,0.1,0.8,0.2V182c0-0.2,0-0.3,0.1-0.4c0.1-0.1,0.2-0.2,0.4-0.2h0.7
			v0.5h-0.9v0.3c0.1,0.1,0.3,0.3,0.3,0.4c0.1,0.2,0.1,0.4,0.1,0.6c0,0.2,0,0.4-0.1,0.6c-0.1,0.2-0.2,0.3-0.3,0.4
			c-0.1,0.1-0.3,0.2-0.5,0.3c-0.2,0.1-0.4,0.1-0.6,0.1c-0.1,0-0.1,0-0.2,0c-0.1,0-0.1,0-0.2,0c-0.1,0-0.1,0-0.2,0.1
			c-0.1,0-0.1,0.1-0.2,0.1c-0.1,0-0.1,0.1-0.1,0.1c0,0.1-0.1,0.1-0.1,0.2c0,0.1,0.1,0.2,0.2,0.2c0.1,0,0.3,0.1,0.5,0.1h0.9
			c0.5,0,0.9,0.1,1.1,0.3C100.9,185.8,101,186,101,186.4z M100.4,186.4c0-0.2-0.1-0.3-0.2-0.4c-0.1-0.1-0.4-0.1-0.7-0.1h-1.4
			c-0.3,0.1-0.4,0.3-0.4,0.5c0,0.2,0.1,0.3,0.2,0.4c0.1,0.1,0.4,0.2,0.7,0.2h0.6c0.4,0,0.6-0.1,0.8-0.2
			C100.3,186.8,100.4,186.6,100.4,186.4z M99,184.1c0.3,0,0.5-0.1,0.7-0.2c0.1-0.1,0.2-0.3,0.2-0.6v-0.2c0-0.2-0.1-0.4-0.2-0.6
			c-0.1-0.1-0.4-0.2-0.7-0.2s-0.5,0.1-0.7,0.2c-0.1,0.1-0.2,0.3-0.2,0.6v0.2c0,0.2,0.1,0.4,0.2,0.6C98.5,184,98.7,184.1,99,184.1z
			 M103.9,181.1c-0.2,0-0.3,0-0.4-0.1c-0.1-0.1-0.1-0.2-0.1-0.3v-0.1c0-0.1,0-0.2,0.1-0.3c0.1-0.1,0.2-0.1,0.4-0.1
			c0.2,0,0.3,0,0.4,0.1c0.1,0.1,0.1,0.2,0.1,0.3v0.1c0,0.1,0,0.2-0.1,0.3C104.2,181.1,104,181.1,103.9,181.1z M102.1,185.4h1.4v-2.9
			h-1.4V182h2v3.4h1.3v0.5h-3.4V185.4z M108.4,185.9c-0.3,0-0.5-0.1-0.7-0.3c-0.1-0.2-0.2-0.4-0.2-0.7v-2.5h-1.3V182h1
			c0.1,0,0.2,0,0.3-0.1c0.1-0.1,0.1-0.2,0.1-0.3v-1h0.6v1.4h1.8v0.5h-1.8v2.9h1.8v0.5H108.4z M111.2,180.2h0.6v2.4h0
			c0-0.1,0.1-0.2,0.2-0.3c0.1-0.1,0.1-0.2,0.2-0.2c0.1-0.1,0.2-0.1,0.3-0.2s0.3-0.1,0.4-0.1c0.4,0,0.7,0.1,1,0.4
			c0.2,0.3,0.4,0.6,0.4,1.1v2.5h-0.6v-2.4c0-0.4-0.1-0.6-0.2-0.8c-0.2-0.2-0.4-0.3-0.7-0.3c-0.1,0-0.2,0-0.4,0
			c-0.1,0-0.2,0.1-0.3,0.1c-0.1,0.1-0.2,0.1-0.2,0.2s-0.1,0.2-0.1,0.3v2.7h-0.6V180.2z M118.3,185.3L118.3,185.3
			c-0.1,0.1-0.1,0.2-0.2,0.3c-0.1,0.1-0.1,0.2-0.2,0.2c-0.1,0.1-0.2,0.1-0.3,0.2c-0.1,0-0.3,0.1-0.4,0.1c-0.4,0-0.7-0.1-1-0.4
			c-0.2-0.3-0.4-0.6-0.4-1.1V182h0.6v2.4c0,0.4,0.1,0.6,0.2,0.8c0.2,0.2,0.4,0.3,0.7,0.3c0.1,0,0.2,0,0.4,0c0.1,0,0.2-0.1,0.3-0.1
			c0.1-0.1,0.2-0.1,0.2-0.2c0.1-0.1,0.1-0.2,0.1-0.3V182h0.6v3.9h-0.6V185.3z M120.4,180.2h0.6v2.4h0c0.3-0.5,0.7-0.7,1.2-0.7
			c0.5,0,0.9,0.2,1.1,0.5c0.3,0.4,0.4,0.9,0.4,1.5s-0.1,1.2-0.4,1.5c-0.3,0.4-0.6,0.5-1.1,0.5c-0.6,0-1-0.2-1.2-0.7h0v0.6h-0.6
			V180.2z M122,185.5c0.4,0,0.6-0.1,0.8-0.3c0.2-0.2,0.3-0.5,0.3-0.9v-0.7c0-0.4-0.1-0.6-0.3-0.9c-0.2-0.2-0.5-0.3-0.8-0.3
			c-0.1,0-0.3,0-0.4,0.1c-0.1,0-0.2,0.1-0.3,0.2c-0.1,0.1-0.2,0.2-0.2,0.3c-0.1,0.1-0.1,0.2-0.1,0.3v1.4c0,0.1,0,0.2,0.1,0.4
			c0.1,0.1,0.1,0.2,0.2,0.3c0.1,0.1,0.2,0.1,0.3,0.2C121.8,185.4,121.9,185.5,122,185.5z M126.6,186c-0.2,0-0.4,0-0.4-0.1
			c-0.1-0.1-0.1-0.2-0.1-0.3v-0.1c0-0.1,0-0.2,0.1-0.3c0.1-0.1,0.2-0.1,0.4-0.1c0.2,0,0.4,0,0.4,0.1c0.1,0.1,0.1,0.2,0.1,0.3v0.1
			c0,0.1,0,0.2-0.1,0.3C126.9,185.9,126.8,186,126.6,186z M131.3,186c-0.3,0-0.5,0-0.8-0.1c-0.2-0.1-0.4-0.2-0.6-0.4
			c-0.2-0.2-0.3-0.4-0.4-0.6c-0.1-0.3-0.1-0.5-0.1-0.9c0-0.3,0-0.6,0.1-0.8c0.1-0.3,0.2-0.5,0.4-0.7c0.2-0.2,0.3-0.3,0.6-0.4
			c0.2-0.1,0.5-0.1,0.8-0.1c0.4,0,0.7,0.1,0.9,0.3c0.2,0.2,0.4,0.4,0.5,0.7l-0.5,0.3c-0.1-0.2-0.2-0.4-0.4-0.5
			c-0.2-0.1-0.4-0.2-0.6-0.2c-0.2,0-0.3,0-0.5,0.1c-0.1,0.1-0.3,0.1-0.4,0.2c-0.1,0.1-0.2,0.2-0.2,0.4c0,0.1-0.1,0.3-0.1,0.5v0.7
			c0,0.2,0,0.3,0.1,0.5c0.1,0.1,0.1,0.3,0.2,0.4c0.1,0.1,0.2,0.2,0.4,0.3c0.1,0.1,0.3,0.1,0.5,0.1c0.3,0,0.5-0.1,0.7-0.2
			c0.2-0.1,0.3-0.3,0.4-0.5l0.4,0.3c-0.1,0.3-0.3,0.5-0.6,0.7C132,185.9,131.7,186,131.3,186z M135.7,186c-0.3,0-0.5,0-0.8-0.1
			c-0.2-0.1-0.4-0.2-0.6-0.4c-0.2-0.2-0.3-0.4-0.4-0.7c-0.1-0.3-0.1-0.5-0.1-0.9c0-0.3,0-0.6,0.1-0.8s0.2-0.5,0.4-0.7
			c0.2-0.2,0.3-0.3,0.6-0.4c0.2-0.1,0.5-0.1,0.8-0.1c0.3,0,0.5,0,0.7,0.1c0.2,0.1,0.4,0.2,0.6,0.4c0.2,0.2,0.3,0.4,0.4,0.7
			c0.1,0.3,0.1,0.5,0.1,0.8c0,0.3,0,0.6-0.1,0.9c-0.1,0.2-0.2,0.5-0.4,0.7c-0.2,0.2-0.3,0.3-0.6,0.4C136.3,186,136,186,135.7,186z
			 M135.7,185.5c0.3,0,0.6-0.1,0.8-0.3c0.2-0.2,0.3-0.5,0.3-0.9v-0.6c0-0.4-0.1-0.7-0.3-0.9c-0.2-0.2-0.5-0.3-0.8-0.3
			c-0.3,0-0.6,0.1-0.8,0.3s-0.3,0.5-0.3,0.9v0.6c0,0.4,0.1,0.7,0.3,0.9C135.1,185.4,135.4,185.5,135.7,185.5z M138.4,185.9V182h0.6
			v0.5h0c0.1-0.2,0.1-0.3,0.3-0.4c0.1-0.1,0.3-0.2,0.5-0.2c0.2,0,0.4,0.1,0.5,0.2c0.1,0.1,0.2,0.3,0.2,0.4h0
			c0.1-0.2,0.2-0.3,0.3-0.4c0.1-0.1,0.3-0.2,0.6-0.2c0.3,0,0.5,0.1,0.6,0.3c0.1,0.2,0.2,0.5,0.2,1v2.7h-0.6v-2.6
			c0-0.3,0-0.6-0.1-0.7c-0.1-0.1-0.2-0.2-0.4-0.2c-0.2,0-0.3,0.1-0.4,0.2c-0.1,0.1-0.2,0.3-0.2,0.5v2.9H140v-2.6
			c0-0.3,0-0.6-0.1-0.7c-0.1-0.1-0.2-0.2-0.4-0.2c-0.2,0-0.3,0.1-0.4,0.2c-0.1,0.1-0.2,0.3-0.2,0.5v2.9H138.4z M143.3,187l2.7-6.9
			h0.6l-2.7,6.9H143.3z M14.9,199.9h1.9v-4.4h-2V195h2.6v4.6c0,0.3-0.1,0.5-0.2,0.6c-0.1,0.2-0.4,0.3-0.7,0.3h-1.7V199.9z
			 M17.1,194.1c-0.2,0-0.3,0-0.4-0.1c-0.1-0.1-0.1-0.2-0.1-0.3v-0.1c0-0.1,0-0.2,0.1-0.3c0.1-0.1,0.2-0.1,0.4-0.1
			c0.2,0,0.3,0,0.4,0.1c0.1,0.1,0.1,0.2,0.1,0.3v0.1c0,0.1,0,0.2-0.1,0.3C17.4,194.1,17.3,194.1,17.1,194.1z M19,195h0.5l0.5,3.4H20
			l0.7-3.4h0.7l0.7,3.4h0.1l0.5-3.4h0.5l-0.6,3.9h-0.8l-0.6-3.3H21l-0.6,3.3h-0.8L19,195z M25.9,194.1c-0.2,0-0.3,0-0.4-0.1
			c-0.1-0.1-0.1-0.2-0.1-0.3v-0.1c0-0.1,0-0.2,0.1-0.3c0.1-0.1,0.2-0.1,0.4-0.1c0.2,0,0.3,0,0.4,0.1c0.1,0.1,0.1,0.2,0.1,0.3v0.1
			c0,0.1,0,0.2-0.1,0.3C26.2,194.1,26,194.1,25.9,194.1z M24.1,198.4h1.4v-2.9h-1.4V195h2v3.4h1.3v0.5h-3.4V198.4z M28.5,198.4h1.4
			v-4.6h-1.4v-0.5h2v5.1h1.4v0.5h-3.4V198.4z M33.1,198.4h1.4v-4.6h-1.4v-0.5h2v5.1h1.4v0.5h-3.4V198.4z M39.4,199
			c-0.4,0-0.8-0.1-1.1-0.2c-0.3-0.1-0.5-0.3-0.8-0.6l0.4-0.4c0.2,0.2,0.4,0.4,0.6,0.5c0.2,0.1,0.5,0.2,0.8,0.2
			c0.3,0,0.6-0.1,0.7-0.2c0.2-0.1,0.3-0.3,0.3-0.5c0-0.1,0-0.2-0.1-0.3c0-0.1-0.1-0.1-0.2-0.2c-0.1,0-0.1-0.1-0.2-0.1
			c-0.1,0-0.2,0-0.3-0.1l-0.6-0.1c-0.1,0-0.3,0-0.5-0.1c-0.2,0-0.3-0.1-0.4-0.2c-0.1-0.1-0.2-0.2-0.3-0.3c-0.1-0.1-0.1-0.3-0.1-0.5
			c0-0.2,0-0.4,0.1-0.5c0.1-0.1,0.2-0.3,0.3-0.4c0.1-0.1,0.3-0.2,0.5-0.2c0.2-0.1,0.4-0.1,0.6-0.1c0.4,0,0.7,0.1,0.9,0.2
			c0.3,0.1,0.5,0.3,0.7,0.5l-0.4,0.4c0-0.1-0.1-0.1-0.2-0.2c-0.1-0.1-0.2-0.1-0.3-0.2c-0.1-0.1-0.2-0.1-0.3-0.1c-0.1,0-0.3,0-0.5,0
			c-0.3,0-0.6,0.1-0.7,0.2c-0.2,0.1-0.2,0.3-0.2,0.5c0,0.1,0,0.2,0.1,0.3c0,0.1,0.1,0.1,0.2,0.2s0.1,0.1,0.2,0.1
			c0.1,0,0.2,0,0.3,0.1l0.6,0.1c0.1,0,0.3,0,0.5,0.1c0.2,0,0.3,0.1,0.4,0.2c0.1,0.1,0.2,0.2,0.3,0.3c0.1,0.1,0.1,0.3,0.1,0.5
			c0,0.4-0.2,0.7-0.5,0.9C40.3,198.9,39.9,199,39.4,199z M42.4,200l2.7-6.9h0.6l-2.7,6.9H42.4z M48.7,198.9c-0.3,0-0.5-0.1-0.7-0.3
			c-0.1-0.2-0.2-0.4-0.2-0.7v-2.5h-1.3V195h1c0.1,0,0.2,0,0.3-0.1c0.1-0.1,0.1-0.2,0.1-0.3v-1h0.6v1.4h1.8v0.5h-1.8v2.9h1.8v0.5
			H48.7z M54.6,198.9c-0.2,0-0.4-0.1-0.5-0.2c-0.1-0.1-0.2-0.3-0.2-0.5h0c-0.1,0.2-0.2,0.4-0.4,0.5c-0.2,0.1-0.4,0.2-0.8,0.2
			c-0.4,0-0.7-0.1-1-0.3c-0.2-0.2-0.4-0.5-0.4-0.9c0-0.4,0.1-0.7,0.4-0.9c0.3-0.2,0.7-0.3,1.3-0.3h0.8v-0.4c0-0.3-0.1-0.5-0.2-0.7
			c-0.2-0.1-0.4-0.2-0.7-0.2c-0.3,0-0.5,0.1-0.7,0.2c-0.2,0.1-0.3,0.2-0.4,0.4l-0.4-0.3c0.1-0.1,0.1-0.2,0.2-0.3s0.2-0.2,0.3-0.3
			c0.1-0.1,0.3-0.1,0.4-0.2c0.2,0,0.3-0.1,0.5-0.1c0.5,0,0.8,0.1,1.1,0.4c0.3,0.2,0.4,0.6,0.4,1v2.2h0.6v0.5H54.6z M52.8,198.5
			c0.2,0,0.3,0,0.4-0.1c0.1,0,0.2-0.1,0.3-0.2c0.1-0.1,0.2-0.1,0.2-0.2c0.1-0.1,0.1-0.2,0.1-0.3v-0.7h-0.8c-0.4,0-0.6,0.1-0.8,0.2
			c-0.2,0.1-0.3,0.2-0.3,0.4v0.2c0,0.2,0.1,0.4,0.2,0.5C52.4,198.4,52.6,198.5,52.8,198.5z M56,198.4h1.2v-2.9H56V195h1.8v1h0
			c0.1-0.3,0.2-0.6,0.5-0.7c0.2-0.2,0.5-0.3,0.9-0.3h0.6v0.6H59c-0.4,0-0.6,0.1-0.9,0.3c-0.2,0.2-0.3,0.5-0.3,0.8v1.7h1.5v0.5H56
			V198.4z M64.3,199.4c0,0.4-0.2,0.7-0.5,0.9c-0.3,0.2-0.8,0.3-1.5,0.3c-0.6,0-1.1-0.1-1.4-0.3c-0.3-0.2-0.4-0.4-0.4-0.7
			c0-0.2,0.1-0.4,0.2-0.5c0.1-0.1,0.3-0.2,0.5-0.3v-0.1c-0.1-0.1-0.2-0.1-0.3-0.2c-0.1-0.1-0.1-0.2-0.1-0.3c0-0.2,0.1-0.4,0.2-0.5
			c0.1-0.1,0.3-0.2,0.5-0.2v0c-0.2-0.1-0.4-0.3-0.6-0.5c-0.1-0.2-0.2-0.5-0.2-0.7c0-0.2,0-0.4,0.1-0.6c0.1-0.2,0.2-0.3,0.3-0.4
			c0.1-0.1,0.3-0.2,0.5-0.3c0.2-0.1,0.4-0.1,0.6-0.1c0.3,0,0.6,0.1,0.8,0.2V195c0-0.2,0-0.3,0.1-0.4s0.2-0.2,0.4-0.2h0.7v0.5h-0.9
			v0.3c0.1,0.1,0.3,0.3,0.3,0.4c0.1,0.2,0.1,0.4,0.1,0.6c0,0.2,0,0.4-0.1,0.6c-0.1,0.2-0.2,0.3-0.3,0.4c-0.1,0.1-0.3,0.2-0.5,0.3
			c-0.2,0.1-0.4,0.1-0.6,0.1c-0.1,0-0.1,0-0.2,0c-0.1,0-0.1,0-0.2,0c-0.1,0-0.1,0-0.2,0.1c-0.1,0-0.1,0.1-0.2,0.1
			c-0.1,0-0.1,0.1-0.1,0.1c0,0.1-0.1,0.1-0.1,0.2c0,0.1,0.1,0.2,0.2,0.2c0.1,0,0.3,0.1,0.5,0.1h0.9c0.5,0,0.9,0.1,1.1,0.3
			C64.2,198.8,64.3,199,64.3,199.4z M63.7,199.4c0-0.2-0.1-0.3-0.2-0.4c-0.1-0.1-0.3-0.1-0.7-0.1h-1.4c-0.3,0.1-0.4,0.3-0.4,0.5
			c0,0.2,0.1,0.3,0.2,0.4c0.1,0.1,0.4,0.2,0.7,0.2h0.6c0.4,0,0.6-0.1,0.8-0.2C63.6,199.8,63.7,199.6,63.7,199.4z M62.3,197.1
			c0.3,0,0.5-0.1,0.7-0.2c0.1-0.1,0.2-0.3,0.2-0.6v-0.2c0-0.2-0.1-0.4-0.2-0.6c-0.1-0.1-0.4-0.2-0.7-0.2c-0.3,0-0.5,0.1-0.7,0.2
			c-0.1,0.1-0.2,0.3-0.2,0.6v0.2c0,0.2,0.1,0.4,0.2,0.6C61.8,197,62,197.1,62.3,197.1z M67,199c-0.3,0-0.5,0-0.8-0.1
			c-0.2-0.1-0.4-0.2-0.6-0.4c-0.2-0.2-0.3-0.4-0.4-0.7c-0.1-0.3-0.1-0.5-0.1-0.8c0-0.3,0-0.6,0.1-0.9c0.1-0.3,0.2-0.5,0.4-0.7
			c0.2-0.2,0.3-0.3,0.6-0.4c0.2-0.1,0.5-0.1,0.7-0.1c0.3,0,0.5,0,0.7,0.1c0.2,0.1,0.4,0.2,0.6,0.4c0.2,0.2,0.3,0.4,0.4,0.6
			c0.1,0.2,0.1,0.5,0.1,0.8v0.3h-2.9v0.2c0,0.2,0,0.3,0.1,0.5c0.1,0.1,0.1,0.3,0.2,0.4c0.1,0.1,0.2,0.2,0.4,0.3
			c0.2,0.1,0.3,0.1,0.5,0.1c0.3,0,0.5-0.1,0.7-0.2c0.2-0.1,0.3-0.3,0.4-0.5l0.5,0.3c-0.1,0.3-0.3,0.5-0.6,0.7
			C67.7,198.9,67.4,199,67,199z M66.9,195.4c-0.2,0-0.3,0-0.5,0.1c-0.1,0.1-0.3,0.1-0.4,0.3c-0.1,0.1-0.2,0.2-0.2,0.4
			c-0.1,0.1-0.1,0.3-0.1,0.5v0.1H68v-0.1c0-0.2,0-0.3-0.1-0.5c-0.1-0.1-0.1-0.3-0.2-0.4c-0.1-0.1-0.2-0.2-0.3-0.2
			C67.2,195.4,67.1,195.4,66.9,195.4z M71.7,198.9c-0.3,0-0.5-0.1-0.7-0.3c-0.1-0.2-0.2-0.4-0.2-0.7v-2.5h-1.3V195h1
			c0.1,0,0.2,0,0.3-0.1c0.1-0.1,0.1-0.2,0.1-0.3v-1h0.6v1.4h1.8v0.5h-1.8v2.9h1.8v0.5H71.7z M75,196.9v-0.6h2.2v0.6H75z M81.6,198.3
			L81.6,198.3c-0.3,0.5-0.7,0.7-1.2,0.7c-0.5,0-0.9-0.2-1.1-0.5c-0.3-0.4-0.4-0.9-0.4-1.5s0.1-1.2,0.4-1.5c0.3-0.4,0.7-0.5,1.1-0.5
			c0.6,0,1,0.2,1.2,0.7h0v-2.4h0.6v5.7h-0.6V198.3z M80.6,198.5c0.1,0,0.3,0,0.4-0.1c0.1,0,0.2-0.1,0.3-0.2c0.1-0.1,0.2-0.2,0.2-0.3
			c0.1-0.1,0.1-0.2,0.1-0.4v-1.4c0-0.1,0-0.2-0.1-0.3c-0.1-0.1-0.1-0.2-0.2-0.3c-0.1-0.1-0.2-0.1-0.3-0.2c-0.1,0-0.3-0.1-0.4-0.1
			c-0.4,0-0.6,0.1-0.8,0.3c-0.2,0.2-0.3,0.5-0.3,0.9v0.7c0,0.4,0.1,0.6,0.3,0.9C80,198.4,80.3,198.5,80.6,198.5z M86.2,198.3
			L86.2,198.3c-0.1,0.1-0.1,0.2-0.2,0.3c-0.1,0.1-0.1,0.2-0.2,0.2c-0.1,0.1-0.2,0.1-0.3,0.2c-0.1,0-0.3,0.1-0.4,0.1
			c-0.4,0-0.7-0.1-1-0.4c-0.2-0.3-0.4-0.6-0.4-1.1V195h0.6v2.4c0,0.4,0.1,0.6,0.2,0.8c0.2,0.2,0.4,0.3,0.7,0.3c0.1,0,0.2,0,0.4,0
			c0.1,0,0.2-0.1,0.3-0.1c0.1-0.1,0.2-0.1,0.2-0.2c0.1-0.1,0.1-0.2,0.1-0.3V195h0.6v3.9h-0.6V198.3z M90,199c-0.3,0-0.5,0-0.8-0.1
			c-0.2-0.1-0.4-0.2-0.6-0.4c-0.2-0.2-0.3-0.4-0.4-0.6c-0.1-0.3-0.1-0.5-0.1-0.9c0-0.3,0-0.6,0.1-0.8c0.1-0.3,0.2-0.5,0.4-0.7
			c0.2-0.2,0.3-0.3,0.6-0.4c0.2-0.1,0.5-0.1,0.8-0.1c0.4,0,0.7,0.1,0.9,0.3c0.2,0.2,0.4,0.4,0.5,0.7L91,196
			c-0.1-0.2-0.2-0.4-0.4-0.5c-0.2-0.1-0.4-0.2-0.6-0.2c-0.2,0-0.3,0-0.5,0.1c-0.1,0.1-0.3,0.1-0.4,0.2c-0.1,0.1-0.2,0.2-0.2,0.4
			c0,0.1-0.1,0.3-0.1,0.5v0.7c0,0.2,0,0.3,0.1,0.5c0.1,0.1,0.1,0.3,0.2,0.4c0.1,0.1,0.2,0.2,0.4,0.3c0.1,0.1,0.3,0.1,0.5,0.1
			c0.3,0,0.5-0.1,0.7-0.2c0.2-0.1,0.3-0.3,0.4-0.5l0.4,0.3c-0.1,0.3-0.3,0.5-0.6,0.7C90.7,198.9,90.4,199,90,199z M92.9,193.2h0.6
			v3.6h0l0.7-0.7l1.3-1.2h0.8l-1.6,1.5l1.8,2.4h-0.8l-1.5-2.1l-0.7,0.6v1.4h-0.6V193.2z M100,198.3L100,198.3
			c-0.3,0.5-0.7,0.7-1.2,0.7c-0.5,0-0.9-0.2-1.1-0.5c-0.3-0.4-0.4-0.9-0.4-1.5s0.1-1.2,0.4-1.5c0.3-0.4,0.7-0.5,1.1-0.5
			c0.6,0,1,0.2,1.2,0.7h0v-2.4h0.6v5.7H100V198.3z M99,198.5c0.1,0,0.3,0,0.4-0.1c0.1,0,0.2-0.1,0.3-0.2c0.1-0.1,0.2-0.2,0.2-0.3
			c0.1-0.1,0.1-0.2,0.1-0.4v-1.4c0-0.1,0-0.2-0.1-0.3c-0.1-0.1-0.1-0.2-0.2-0.3c-0.1-0.1-0.2-0.1-0.3-0.2c-0.1,0-0.3-0.1-0.4-0.1
			c-0.4,0-0.6,0.1-0.8,0.3c-0.2,0.2-0.3,0.5-0.3,0.9v0.7c0,0.4,0.1,0.6,0.3,0.9C98.3,198.4,98.6,198.5,99,198.5z M102,193.2h0.6v2.4
			h0c0.3-0.5,0.7-0.7,1.2-0.7c0.5,0,0.9,0.2,1.1,0.5c0.3,0.4,0.4,0.9,0.4,1.5s-0.1,1.2-0.4,1.5c-0.3,0.4-0.6,0.5-1.1,0.5
			c-0.6,0-1-0.2-1.2-0.7h0v0.6H102V193.2z M103.7,198.5c0.4,0,0.6-0.1,0.8-0.3c0.2-0.2,0.3-0.5,0.3-0.9v-0.7c0-0.4-0.1-0.6-0.3-0.9
			c-0.2-0.2-0.5-0.3-0.8-0.3c-0.1,0-0.3,0-0.4,0.1c-0.1,0-0.2,0.1-0.3,0.2c-0.1,0.1-0.2,0.2-0.2,0.3c-0.1,0.1-0.1,0.2-0.1,0.3v1.4
			c0,0.1,0,0.2,0.1,0.4c0.1,0.1,0.1,0.2,0.2,0.3c0.1,0.1,0.2,0.1,0.3,0.2C103.4,198.4,103.5,198.5,103.7,198.5z"/>
		<path class="st19" d="M49.7,53.4l0-1.6h-0.1l-1.1,2.7l-1.1-2.7h-0.1l0,1.6v2.6h-0.8v-5.3h1l0.8,2.1h0.1l0.8-2.1h1v5.3h-0.8V53.4z
			 M51.5,55.9v-5.3h3.3v0.7h-2.5v1.6h2.4v0.7h-2.4v1.6h2.5v0.7H51.5z M56.3,55.9v-5.3h0.9v4.6h2.4v0.7H56.3z M62.7,51.3v4.6h-0.9
			v-4.6h-1.7v-0.7h4.2v0.7H62.7z M68.1,55.9l-0.4-1.4H66l-0.4,1.4h-0.9l1.6-5.3h1.2l1.6,5.3H68.1z M66.9,51.4L66.9,51.4l-0.7,2.3
			h1.4L66.9,51.4z M70.6,51.8L70.6,51.8l-0.1,4.1h-0.7v-5.3h1.1l1.6,4.1h0.1v-4.1h0.7v5.3h-1.1L70.6,51.8z M76.1,56
			c-0.3,0-0.6-0.1-0.9-0.2c-0.2-0.1-0.4-0.3-0.6-0.5c-0.2-0.2-0.3-0.5-0.4-0.9c-0.1-0.3-0.1-0.7-0.1-1.2c0-0.4,0-0.8,0.1-1.2
			c0.1-0.3,0.2-0.6,0.4-0.9c0.2-0.2,0.4-0.4,0.6-0.5c0.2-0.1,0.5-0.2,0.9-0.2s0.6,0.1,0.9,0.2c0.2,0.1,0.5,0.3,0.6,0.5
			c0.2,0.2,0.3,0.5,0.4,0.9c0.1,0.3,0.1,0.7,0.1,1.2c0,0.4,0,0.8-0.1,1.2c-0.1,0.3-0.2,0.6-0.4,0.9c-0.2,0.2-0.4,0.4-0.6,0.5
			C76.7,55.9,76.4,56,76.1,56z M76.1,55.3c0.4,0,0.7-0.1,0.8-0.4c0.2-0.3,0.2-0.7,0.2-1.2v-0.9c0-0.5-0.1-0.9-0.2-1.2
			c-0.2-0.3-0.4-0.4-0.8-0.4s-0.7,0.1-0.8,0.4c-0.2,0.3-0.2,0.7-0.2,1.2v0.9c0,0.5,0.1,0.9,0.2,1.2C75.4,55.1,75.7,55.3,76.1,55.3z
			 M78.8,57.3v-0.7h3.7v0.7H78.8z M83.8,55.9v-5.3h0.9v4.6h2.4v0.7H83.8z M89.8,56c-0.3,0-0.6-0.1-0.9-0.2c-0.2-0.1-0.4-0.3-0.6-0.5
			c-0.2-0.2-0.3-0.5-0.4-0.9c-0.1-0.3-0.1-0.7-0.1-1.2c0-0.4,0-0.8,0.1-1.2c0.1-0.3,0.2-0.6,0.4-0.9c0.2-0.2,0.4-0.4,0.6-0.5
			c0.2-0.1,0.5-0.2,0.9-0.2c0.3,0,0.6,0.1,0.9,0.2c0.2,0.1,0.5,0.3,0.6,0.5c0.2,0.2,0.3,0.5,0.4,0.9c0.1,0.3,0.1,0.7,0.1,1.2
			c0,0.4,0,0.8-0.1,1.2c-0.1,0.3-0.2,0.6-0.4,0.9c-0.2,0.2-0.4,0.4-0.6,0.5C90.5,55.9,90.2,56,89.8,56z M89.8,55.3
			c0.4,0,0.7-0.1,0.8-0.4c0.2-0.3,0.2-0.7,0.2-1.2v-0.9c0-0.5-0.1-0.9-0.2-1.2c-0.2-0.3-0.4-0.4-0.8-0.4c-0.4,0-0.7,0.1-0.8,0.4
			c-0.2,0.3-0.2,0.7-0.2,1.2v0.9c0,0.5,0.1,0.9,0.2,1.2C89.2,55.1,89.5,55.3,89.8,55.3z M95.4,55.2L95.4,55.2
			c-0.1,0.1-0.2,0.2-0.2,0.3c-0.1,0.1-0.1,0.2-0.2,0.3c-0.1,0.1-0.2,0.1-0.3,0.2c-0.1,0-0.3,0.1-0.5,0.1c-0.6,0-1-0.2-1.3-0.7
			c-0.3-0.5-0.4-1.1-0.4-2c0-0.9,0.2-1.6,0.5-2.1c0.3-0.5,0.8-0.7,1.5-0.7c0.3,0,0.5,0,0.7,0.1c0.2,0.1,0.4,0.2,0.5,0.3
			c0.1,0.1,0.3,0.3,0.3,0.4c0.1,0.2,0.2,0.3,0.2,0.5l-0.8,0.3c0-0.1-0.1-0.2-0.1-0.3c-0.1-0.1-0.1-0.2-0.2-0.3
			c-0.1-0.1-0.2-0.1-0.3-0.2c-0.1,0-0.2-0.1-0.4-0.1c-0.4,0-0.6,0.1-0.8,0.4c-0.2,0.3-0.2,0.7-0.2,1.2v0.8c0,0.2,0,0.5,0.1,0.7
			c0,0.2,0.1,0.4,0.2,0.5c0.1,0.1,0.2,0.3,0.3,0.3c0.1,0.1,0.3,0.1,0.5,0.1c0.3,0,0.5-0.1,0.7-0.3c0.2-0.2,0.3-0.4,0.3-0.7v-0.5h-1
			v-0.6h1.8v2.7h-0.8V55.2z M97.2,57.3v-0.7h3.7v0.7H97.2z M102.1,55.9v-5.3h0.9v4.6h2.4v0.7H102.1z M106.6,55.9v-5.3h3.3v0.7h-2.5
			v1.6h2.4v0.7h-2.4v1.6h2.5v0.7H106.6z M112.2,55.9l-1.5-5.3h0.9l0.7,2.7l0.5,1.8h0l0.5-1.8l0.7-2.7h0.9l-1.5,5.3H112.2z
			 M115.7,55.9v-5.3h3.3v0.7h-2.5v1.6h2.4v0.7h-2.4v1.6h2.5v0.7H115.7z M120.5,55.9v-5.3h0.9v4.6h2.4v0.7H120.5z"/>
		<path class="st6" d="M124.7,53.1v-0.7h3.6v0.7H124.7z M124.7,54.7V54h3.6v0.7H124.7z"/>
	</g>
	<path class="st20" d="M28.6,295.6c-0.6,0.8-1.9,1-2,0.5c-0.1-0.5,0.6-0.8,1-0.8c-2.3-0.6-1.9,1-3.2,1.2c0.7,0.3,1.4,0.9,1.9,1
		C27.2,297.5,28.4,297.1,28.6,295.6"/>
	<path class="st21" d="M19.5,293.6c0-0.3-0.2-0.3-0.5-0.4l0,0c1.9-0.9,3.1-0.2,3.5,0.1c0.3,0.2,0.4,0.4,0.5,0.6
		c0.1,0.2,0.1,0.3,0.3,0.4c0.2,0.2,0.7,0.5,0.8,0.6c0,0,0,0,0,0c0.1,0.1,0.2,0.3,0.1,0.5c-0.1,0.2-0.4,0.5-0.8,0.5
		c-0.4-0.1-1.2-0.2-1.8-0.3c-0.7-0.1-1.1-0.5-1.1-0.5c-0.1,0.5,0.2,0.9,0.7,1c0.1,0,0.2,0.1,0.4,0.1c0.6,0.1,1.5,0.3,2.3,0.8
		c1,0.6,1.9,1.7,2.2,3.2c0.3,1.6-0.1,4.9-2.9,6.3c-2.9,1.4-5.6,0.3-5.6,0.3c2.6-0.1,4.1-1.1,4.6-1.8c0.4-0.5,0.8-1.3,0.5-2.3
		c-0.3-1.1-1.2-1.9-2.1-1.8c-0.9,0.1-1.3,1.1-1.5,1.6c-0.2,0.5-0.5,0.8-0.7,0.9c-0.2,0-0.6,0.1-0.9-0.7c-0.3-0.7-1.1-2-2.2-1.5
		c-1.1,0.5-1.3,2.7-1.3,2.7c-1.3-2.1-1.7-4.7-0.4-7.3c1.2-2.6,3.8-3.5,3.8-3.5c-0.5,0.6-1,2.4-0.5,4c0.5,1.6,1.8,2.4,2.5,2.5
		c0.7,0.1,1.6-0.3,1.6-1.2c0-0.7-0.7-1.2-1.3-1.5c-0.5-0.2-1-0.7-1-1.5c0-0.8,0.3-1.2,0.5-1.4C19.4,294,19.6,293.8,19.5,293.6z
		 M21.4,294.3c-0.5,0-0.8,0.3-0.8,0.3c0,0,0,0,0,0c0-0.2,0.1-0.6,0.3-0.8c0.2-0.2,0.6-0.4,1.1,0c0.5,0.4,0.7,1,0.7,1
		C22.5,294.6,22,294.3,21.4,294.3z"/>
</g>
</svg>
