<svg width="173.5" height="60" viewBox="0 0 188 65" fill="none" xmlns="http://www.w3.org/2000/svg">
<path d="M3 64.6667C4.47276 64.6667 5.66667 63.4728 5.66667 62C5.66667 60.5272 4.47276 59.3333 3 59.3333C1.52724 59.3333 0.333333 60.5272 0.333333 62C0.333334 63.4728 1.52724 64.6667 3 64.6667ZM185 5.66667C186.473 5.66667 187.667 4.47276 187.667 3C187.667 1.52724 186.473 0.333331 185 0.333331C183.527 0.333331 182.333 1.52724 182.333 3C182.333 4.47276 183.527 5.66667 185 5.66667ZM3 62.5L6.925 62.5L6.925 61.5L3 61.5L3 62.5ZM14.775 62.5L22.625 62.5L22.625 61.5L14.775 61.5L14.775 62.5ZM30.475 62.5L38.325 62.5L38.325 61.5L30.475 61.5L30.475 62.5ZM46.175 62.5L54.025 62.5L54.025 61.5L46.175 61.5L46.175 62.5ZM61.875 62.5L69.725 62.5L69.725 61.5L61.875 61.5L61.875 62.5ZM77.575 62.5L85.425 62.5L85.425 61.5L77.575 61.5L77.575 62.5ZM93.275 62.5L101.125 62.5L101.125 61.5L93.275 61.5L93.275 62.5ZM108.975 62.5L116.825 62.5L116.825 61.5L108.975 61.5L108.975 62.5ZM124.675 62.5L132.525 62.5L132.525 61.5L124.675 61.5L124.675 62.5ZM140.375 62.5L148.225 62.5L148.225 61.5L140.375 61.5L140.375 62.5ZM156.075 62.5L160 62.5L160 61.5L156.075 61.5L156.075 62.5ZM160 62.5C161.702 62.5 163.366 62.3331 164.976 62.0146L164.782 61.0336C163.236 61.3395 161.637 61.5 160 61.5L160 62.5ZM174.169 58.2046C176.949 56.343 179.343 53.9491 181.205 51.1685L180.374 50.6122C178.585 53.2842 176.284 55.5848 173.612 57.3736L174.169 58.2046ZM185.015 41.9761C185.333 40.3663 185.5 38.7023 185.5 37L184.5 37C184.5 38.6368 184.34 40.2358 184.034 41.782L185.015 41.9761ZM185.5 37L185.5 32.75L184.5 32.75L184.5 37L185.5 37ZM185.5 24.25L185.5 15.75L184.5 15.75L184.5 24.25L185.5 24.25ZM185.5 7.25L185.5 3L184.5 3L184.5 7.25L185.5 7.25Z" fill="url(#paint0_linear_4087_41443)"/>
<defs>
<linearGradient id="paint0_linear_4087_41443" x1="182.542" y1="-1.34745e+07" x2="-2.01574" y2="-1.34745e+07" gradientUnits="userSpaceOnUse">
<stop stop-color="#3A64FA"/>
<stop offset="1" stop-color="#FF5894"/>
</linearGradient>
</defs>
</svg>
