<svg width="107" height="6" viewBox="0 0 113 6" fill="none" xmlns="http://www.w3.org/2000/svg">
<path d="M110 0.333333C108.527 0.333332 107.333 1.52724 107.333 3C107.333 4.47276 108.527 5.66667 110 5.66667C111.473 5.66667 112.667 4.47276 112.667 3C112.667 1.52724 111.473 0.333334 110 0.333333ZM3.00001 0.333262C1.52725 0.333261 0.333337 1.52717 0.333336 2.99993C0.333335 4.47269 1.52724 5.66659 3.00001 5.66659C4.47276 5.6666 5.66667 4.47269 5.66667 2.99993C5.66667 1.52717 4.47277 0.333263 3.00001 0.333262ZM110 2.5L106.179 2.5L106.179 3.5L110 3.5L110 2.5ZM98.5357 2.49999L90.8929 2.49999L90.8929 3.49999L98.5357 3.49999L98.5357 2.49999ZM83.25 2.49998L75.6071 2.49998L75.6071 3.49998L83.25 3.49998L83.25 2.49998ZM67.9643 2.49997L60.3214 2.49997L60.3214 3.49997L67.9643 3.49997L67.9643 2.49997ZM52.6786 2.49996L45.0357 2.49996L45.0357 3.49996L52.6786 3.49996L52.6786 2.49996ZM37.3929 2.49995L29.75 2.49995L29.75 3.49995L37.3929 3.49995L37.3929 2.49995ZM22.1072 2.49994L14.4643 2.49994L14.4643 3.49994L22.1072 3.49994L22.1072 2.49994ZM6.82146 2.49993L3.00001 2.49993L3.00001 3.49993L6.82146 3.49993L6.82146 2.49993Z" fill="url(#paint0_linear_4087_41448)"/>
<defs>
<linearGradient id="paint0_linear_4087_41448" x1="3" y1="5.13626" x2="111.348" y2="9.24794" gradientUnits="userSpaceOnUse">
<stop stop-color="#FF5894"/>
<stop offset="1" stop-color="#3A64FA"/>
</linearGradient>
</defs>
</svg>
