<svg width="107" height="6" viewBox="0 0 113 6" fill="none" xmlns="http://www.w3.org/2000/svg">
<path d="M110 0.333343C108.527 0.333343 107.333 1.52725 107.333 3.00001C107.333 4.47277 108.527 5.66668 110 5.66668C111.473 5.66668 112.667 4.47277 112.667 3.00001C112.667 1.52725 111.473 0.333343 110 0.333343ZM3 0.333324C1.52724 0.333324 0.333336 1.52723 0.333336 2.99999C0.333336 4.47275 1.52724 5.66666 3 5.66666C4.47276 5.66666 5.66667 4.47275 5.66667 2.99999C5.66667 1.52723 4.47276 0.333324 3 0.333324ZM3 3.49999L6.82143 3.49999L6.82143 2.49999L3 2.49999L3 3.49999ZM14.4643 3.49999L22.1071 3.49999L22.1071 2.49999L14.4643 2.49999L14.4643 3.49999ZM29.75 3.5L37.3929 3.5L37.3929 2.5L29.75 2.5L29.75 3.5ZM45.0357 3.5L52.6786 3.5L52.6786 2.5L45.0357 2.5L45.0357 3.5ZM60.3214 3.5L67.9643 3.5L67.9643 2.5L60.3214 2.5L60.3214 3.5ZM75.6071 3.5L83.25 3.5L83.25 2.5L75.6071 2.5L75.6071 3.5ZM90.8929 3.50001L98.5357 3.50001L98.5357 2.50001L90.8929 2.50001L90.8929 3.50001ZM106.179 3.50001L110 3.50001L110 2.50001L106.179 2.50001L106.179 3.50001Z" fill="url(#paint0_linear_4087_41445)"/>
<defs>
<linearGradient id="paint0_linear_4087_41445" x1="3" y1="5.13633" x2="113.236" y2="2.90508" gradientUnits="userSpaceOnUse">
<stop stop-color="#FF5894"/>
<stop offset="1" stop-color="#3A64FA"/>
</linearGradient>
</defs>
</svg>
