<svg width="107" height="6" viewBox="0 0 112 6" fill="none" xmlns="http://www.w3.org/2000/svg">
<path d="M109 0.333343C107.527 0.333342 106.333 1.52725 106.333 3.00001C106.333 4.47277 107.527 5.66668 109 5.66668C110.473 5.66668 111.667 4.47277 111.667 3.00001C111.667 1.52725 110.473 0.333343 109 0.333343ZM3 0.333324C1.52724 0.333324 0.333336 1.52723 0.333336 2.99999C0.333336 4.47275 1.52724 5.66666 3 5.66666C4.47276 5.66666 5.66667 4.47275 5.66667 2.99999C5.66667 1.52723 4.47276 0.333324 3 0.333324ZM3 3.49999L6.78572 3.49999L6.78572 2.49999L3 2.49999L3 3.49999ZM14.3571 3.49999L21.9286 3.49999L21.9286 2.49999L14.3571 2.49999L14.3571 3.49999ZM29.5 3.5L37.0714 3.5L37.0714 2.5L29.5 2.5L29.5 3.5ZM44.6429 3.5L52.2143 3.5L52.2143 2.5L44.6429 2.5L44.6429 3.5ZM59.7857 3.5L67.3572 3.5L67.3572 2.5L59.7857 2.5L59.7857 3.5ZM74.9286 3.5L82.5 3.5L82.5 2.5L74.9286 2.5L74.9286 3.5ZM90.0714 3.50001L97.6428 3.50001L97.6428 2.50001L90.0714 2.50001L90.0714 3.50001ZM105.214 3.50001L109 3.50001L109 2.50001L105.214 2.50001L105.214 3.50001Z" fill="url(#paint0_linear_4087_41452)"/>
<defs>
<linearGradient id="paint0_linear_4087_41452" x1="3" y1="5.11636" x2="112.206" y2="2.90597" gradientUnits="userSpaceOnUse">
<stop stop-color="#FF5894"/>
<stop offset="1" stop-color="#3A64FA"/>
</linearGradient>
</defs>
</svg>
