<svg width="107" height="58" viewBox="0 0 113 58" fill="none" xmlns="http://www.w3.org/2000/svg">
<path d="M110 57.6667C108.527 57.6667 107.333 56.4728 107.333 55C107.333 53.5272 108.527 52.3333 110 52.3333C111.473 52.3333 112.667 53.5272 112.667 55C112.667 56.4728 111.473 57.6667 110 57.6667ZM3 5.66667C1.52724 5.66667 0.333338 4.47276 0.333338 3C0.333338 1.52724 1.52724 0.333331 3 0.333331C4.47276 0.333331 5.66667 1.52724 5.66667 3C5.66667 4.47276 4.47277 5.66667 3 5.66667ZM21.8153 3L21.8153 3.5L21.8153 3ZM105.227 55.5L104.727 55.5L104.727 54.5L105.227 54.5L105.227 55.5ZM95.6807 54.5L96.1807 54.5L96.1807 55.5L95.6807 55.5L95.6807 54.5ZM86.1346 55.5L85.6346 55.5L85.6346 54.5L86.1346 54.5L86.1346 55.5ZM76.5884 54.5L77.0884 54.5L77.0884 55.5L76.5884 55.5L76.5884 54.5ZM66.8392 55.0147L66.3487 54.9176L66.5428 53.9366L67.0333 54.0337L66.8392 55.0147ZM58.203 50.3737L58.6185 50.6518L58.0622 51.4828L57.6467 51.2046L58.203 50.3737ZM50.6107 44.1686L50.3325 43.7531L51.1635 43.1968L51.4416 43.6123L50.6107 44.1686ZM47.7816 34.782L47.8786 35.2725L46.8977 35.4666L46.8006 34.9761L47.7816 34.782ZM46.3153 29.5L46.3153 29L47.3153 29L47.3153 29.5L46.3153 29.5ZM47.3153 28.5L47.3153 29L46.3153 29L46.3153 28.5L47.3153 28.5ZM45.8489 23.218L45.7519 22.7275L46.7329 22.5334L46.8299 23.0239L45.8489 23.218ZM43.0199 13.8315L43.298 14.2469L42.4671 14.8033L42.1889 14.3878L43.0199 13.8315ZM35.4275 7.62635L35.012 7.34819L35.5683 6.51722L35.9838 6.79538L35.4275 7.62635ZM26.7913 2.98536L27.2818 3.08239L27.0878 4.06338L26.5973 3.96634L26.7913 2.98536ZM17.1114 3.5L16.6114 3.5L16.6114 2.5L17.1114 2.5L17.1114 3.5ZM7.70381 2.5L8.20381 2.5L8.20381 3.5L7.70381 3.5L7.70381 2.5ZM110 55.5L105.227 55.5L105.227 54.5L110 54.5L110 55.5ZM95.6807 55.5L86.1346 55.5L86.1346 54.5L95.6807 54.5L95.6807 55.5ZM76.5884 55.5L71.8153 55.5L71.8153 54.5L76.5884 54.5L76.5884 55.5ZM71.8153 55.5C70.1129 55.5 68.449 55.3331 66.8392 55.0147L67.0333 54.0337C68.5795 54.3396 70.1784 54.5 71.8153 54.5L71.8153 55.5ZM57.6467 51.2046C54.8661 49.3431 52.4722 46.9492 50.6107 44.1686L51.4416 43.6123C53.2305 46.2842 55.5311 48.5848 58.203 50.3737L57.6467 51.2046ZM46.8006 34.9761C46.4822 33.3663 46.3153 31.7024 46.3153 30L47.3153 30C47.3153 31.6369 47.4757 33.2358 47.7816 34.782L46.8006 34.9761ZM46.3153 30L46.3153 29.5L47.3153 29.5L47.3153 30L46.3153 30ZM46.3153 28.5L46.3153 28L47.3153 28L47.3153 28.5L46.3153 28.5ZM46.3153 28C46.3153 26.3631 46.1548 24.7642 45.8489 23.218L46.8299 23.0239C47.1484 24.6337 47.3153 26.2976 47.3153 28L46.3153 28ZM42.1889 14.3878C40.4001 11.7158 38.0995 9.41519 35.4275 7.62635L35.9838 6.79538C38.7644 8.65694 41.1583 11.0509 43.0199 13.8315L42.1889 14.3878ZM26.5973 3.96634C25.0511 3.66046 23.4521 3.5 21.8153 3.5L21.8153 2.5C23.5176 2.5 25.1816 2.66689 26.7913 2.98536L26.5973 3.96634ZM21.8153 3.5L17.1114 3.5L17.1114 2.5L21.8153 2.5L21.8153 3.5ZM7.70381 3.5L3 3.5L3 2.5L7.70381 2.5L7.70381 3.5Z" fill="url(#paint0_linear_4087_41459)"/>
<defs>
<linearGradient id="paint0_linear_4087_41459" x1="108.546" y1="55" x2="60.9783" y2="2.09066" gradientUnits="userSpaceOnUse">
<stop stop-color="#3A64FA"/>
<stop offset="1" stop-color="#FF5894"/>
</linearGradient>
</defs>
</svg>
