<svg width="107" height="6" viewBox="0 0 113 6" fill="none" xmlns="http://www.w3.org/2000/svg">
<path d="M110 5.66667C108.527 5.66667 107.333 4.47276 107.333 3C107.333 1.52724 108.527 0.333333 110 0.333333C111.473 0.333334 112.667 1.52724 112.667 3C112.667 4.47276 111.473 5.66667 110 5.66667ZM2.99999 5.66667C1.52724 5.66667 0.333328 4.47276 0.333328 3C0.333328 1.52724 1.52724 0.333333 2.99999 0.333333C4.47276 0.333334 5.66666 1.52724 5.66666 3C5.66666 4.47276 4.47276 5.66667 2.99999 5.66667ZM2.99999 2.5L6.82143 2.5L6.82143 3.5L2.99999 3.5L2.99999 2.5ZM14.4643 2.5L22.1071 2.5L22.1071 3.5L14.4643 3.5L14.4643 2.5ZM29.75 2.5L37.3929 2.5L37.3929 3.5L29.75 3.5L29.75 2.5ZM45.0357 2.5L52.6786 2.5L52.6786 3.5L45.0357 3.5L45.0357 2.5ZM60.3214 2.5L67.9643 2.5L67.9643 3.5L60.3214 3.5L60.3214 2.5ZM75.6071 2.5L83.25 2.5L83.25 3.5L75.6071 3.5L75.6071 2.5ZM90.8929 2.5L98.5357 2.5L98.5357 3.5L90.8929 3.5L90.8929 2.5ZM106.179 2.5L110 2.5L110 3.5L106.179 3.5L106.179 2.5Z" fill="url(#paint0_linear_4087_41447)"/>
<defs>
<linearGradient id="paint0_linear_4087_41447" x1="3" y1="10.2516" x2="111.49" y2="11.4645" gradientUnits="userSpaceOnUse">
<stop stop-color="#FF5894"/>
<stop offset="1" stop-color="#3A64FA"/>
</linearGradient>
</defs>
</svg>
