<svg width="107" height="58" viewBox="0 0 113 58" fill="none" xmlns="http://www.w3.org/2000/svg">
<path d="M110 0.333333C108.527 0.333333 107.333 1.52724 107.333 3C107.333 4.47276 108.527 5.66667 110 5.66667C111.473 5.66667 112.667 4.47276 112.667 3C112.667 1.52724 111.473 0.333334 110 0.333333ZM3 52.3333C1.52724 52.3333 0.333338 53.5272 0.333338 55C0.333338 56.4728 1.52724 57.6667 3 57.6667C4.47276 57.6667 5.66667 56.4728 5.66667 55C5.66667 53.5272 4.47277 52.3333 3 52.3333ZM21.8153 55L21.8153 54.5L21.8153 55ZM105.227 2.5L104.727 2.5L104.727 3.5L105.227 3.5L105.227 2.5ZM95.6807 3.5L96.1807 3.5L96.1807 2.5L95.6807 2.5L95.6807 3.5ZM86.1346 2.5L85.6346 2.5L85.6346 3.5L86.1346 3.5L86.1346 2.5ZM76.5884 3.49999L77.0884 3.49999L77.0884 2.49999L76.5884 2.49999L76.5884 3.49999ZM66.8392 2.98535L66.3487 3.08238L66.5428 4.06337L67.0333 3.96634L66.8392 2.98535ZM58.203 7.62634L58.6185 7.34818L58.0622 6.51721L57.6467 6.79537L58.203 7.62634ZM50.6107 13.8314L50.3325 14.2469L51.1635 14.8032L51.4416 14.3877L50.6107 13.8314ZM47.7816 23.218L47.8786 22.7275L46.8977 22.5334L46.8006 23.0239L47.7816 23.218ZM46.3153 28.5L46.3153 29L47.3153 29L47.3153 28.5L46.3153 28.5ZM47.3153 29.5L47.3153 29L46.3153 29L46.3153 29.5L47.3153 29.5ZM45.8489 34.782L45.7519 35.2725L46.7329 35.4666L46.8299 34.9761L45.8489 34.782ZM43.0199 44.1685L43.298 43.7531L42.4671 43.1967L42.1889 43.6122L43.0199 44.1685ZM35.4275 50.3737L35.012 50.6518L35.5683 51.4828L35.9838 51.2046L35.4275 50.3737ZM26.7913 55.0146L27.2818 54.9176L27.0878 53.9366L26.5973 54.0337L26.7913 55.0146ZM17.1114 54.5L16.6114 54.5L16.6114 55.5L17.1114 55.5L17.1114 54.5ZM7.70381 55.5L8.20381 55.5L8.20381 54.5L7.70381 54.5L7.70381 55.5ZM110 2.5L105.227 2.5L105.227 3.5L110 3.5L110 2.5ZM95.6807 2.5L86.1346 2.5L86.1346 3.5L95.6807 3.5L95.6807 2.5ZM76.5884 2.49999L71.8153 2.49999L71.8153 3.49999L76.5884 3.49999L76.5884 2.49999ZM71.8153 2.49999C70.1129 2.49999 68.449 2.66688 66.8392 2.98535L67.0333 3.96634C68.5795 3.66045 70.1784 3.49999 71.8153 3.49999L71.8153 2.49999ZM57.6467 6.79537C54.8661 8.65693 52.4722 11.0508 50.6107 13.8314L51.4416 14.3877C53.2305 11.7158 55.5311 9.41518 58.203 7.62634L57.6467 6.79537ZM46.8006 23.0239C46.4822 24.6337 46.3153 26.2976 46.3153 28L47.3153 28C47.3153 26.3631 47.4757 24.7642 47.7816 23.218L46.8006 23.0239ZM46.3153 28L46.3153 28.5L47.3153 28.5L47.3153 28L46.3153 28ZM46.3153 29.5L46.3153 30L47.3153 30L47.3153 29.5L46.3153 29.5ZM46.3153 30C46.3153 31.6369 46.1548 33.2358 45.8489 34.782L46.8299 34.9761C47.1484 33.3663 47.3153 31.7024 47.3153 30L46.3153 30ZM42.1889 43.6122C40.4001 46.2842 38.0995 48.5848 35.4275 50.3737L35.9838 51.2046C38.7644 49.3431 41.1583 46.9491 43.0199 44.1685L42.1889 43.6122ZM26.5973 54.0337C25.0511 54.3395 23.4521 54.5 21.8153 54.5L21.8153 55.5C23.5176 55.5 25.1816 55.3331 26.7913 55.0146L26.5973 54.0337ZM21.8153 54.5L17.1114 54.5L17.1114 55.5L21.8153 55.5L21.8153 54.5ZM7.70381 54.5L3 54.5L3 55.5L7.70381 55.5L7.70381 54.5Z" fill="url(#paint0_linear_4087_41456)"/>
<defs>
<linearGradient id="paint0_linear_4087_41456" x1="108.546" y1="3" x2="60.9783" y2="55.9093" gradientUnits="userSpaceOnUse">
<stop stop-color="#3A64FA"/>
<stop offset="1" stop-color="#FF5894"/>
</linearGradient>
</defs>
</svg>
