<svg width="130" height="60" viewBox="0 0 141 65" fill="none" xmlns="http://www.w3.org/2000/svg">
<path d="M138 64.6667C136.527 64.6667 135.333 63.4728 135.333 62C135.333 60.5272 136.527 59.3333 138 59.3333C139.473 59.3333 140.667 60.5272 140.667 62C140.667 63.4728 139.473 64.6667 138 64.6667ZM3 5.66666C1.52724 5.66666 0.333329 4.47276 0.333329 3C0.333329 1.52724 1.52724 0.333333 3 0.333333C4.47276 0.333333 5.66667 1.52724 5.66667 3C5.66667 4.47276 4.47276 5.66666 3 5.66666ZM138 62.5L134.071 62.5L134.071 61.5L138 61.5L138 62.5ZM126.214 62.5L118.357 62.5L118.357 61.5L126.214 61.5L126.214 62.5ZM110.5 62.5L102.643 62.5L102.643 61.5L110.5 61.5L110.5 62.5ZM94.7857 62.5L86.9286 62.5L86.9286 61.5L94.7857 61.5L94.7857 62.5ZM79.0714 62.5L71.2143 62.5L71.2143 61.5L79.0714 61.5L79.0714 62.5ZM63.3571 62.5L55.5 62.5L55.5 61.5L63.3571 61.5L63.3571 62.5ZM47.6429 62.5L39.7857 62.5L39.7857 61.5L47.6429 61.5L47.6429 62.5ZM31.9286 62.5L28 62.5L28 61.5L31.9286 61.5L31.9286 62.5ZM28 62.5C26.2976 62.5 24.6337 62.3331 23.0239 62.0146L23.218 61.0337C24.7642 61.3395 26.3631 61.5 28 61.5L28 62.5ZM13.8315 58.2046C11.0508 56.3431 8.65694 53.9491 6.79538 51.1685L7.62634 50.6122C9.41519 53.2842 11.7158 55.5848 14.3878 57.3736L13.8315 58.2046ZM2.98535 41.9761C2.66689 40.3663 2.5 38.7024 2.5 37L3.5 37C3.5 38.6369 3.66045 40.2358 3.96634 41.782L2.98535 41.9761ZM2.5 37L2.5 32.75L3.5 32.75L3.5 37L2.5 37ZM2.5 24.25L2.5 15.75L3.5 15.75L3.5 24.25L2.5 24.25ZM2.5 7.25L2.5 3L3.5 3L3.5 7.25L2.5 7.25Z" fill="url(#paint0_linear_4083_41415)"/>
<defs>
<linearGradient id="paint0_linear_4083_41415" x1="3.16068" y1="-1.34745e+07" x2="140.058" y2="-1.34745e+07" gradientUnits="userSpaceOnUse">
<stop offset="0.0989583" stop-color="#FF5894"/>
<stop offset="0.822917" stop-color="#3A64FA"/>
</linearGradient>
</defs>
</svg>
