<svg width="24" height="24"  viewBox="0 0 24 24" fill="none" xmlns="http://www.w3.org/2000/svg">
<g id="Contributor guide">
<g id="meltano icon">
<path d="M22 5.99477C21.1938 7.08653 19.4591 7.33143 19.2654 6.68104C19.0689 6.03066 20.0778 5.58032 20.609 5.51752C17.5396 4.68144 18.0958 6.90621 16.3986 7.12062C17.336 7.58441 18.311 8.355 18.9698 8.4492C20.1001 8.61247 21.6831 7.9881 22 5.99298" fill="#3A64FA"/>
<path fill-rule="evenodd" clip-rule="evenodd" d="M9.89275 3.20034C9.83382 2.85496 9.59455 2.74462 9.21154 2.59122L9.20887 2.59212C11.7007 1.41783 13.2907 2.26378 13.9318 2.79306C14.2875 3.08681 14.4225 3.36619 14.55 3.63012C14.6522 3.84175 14.7496 4.04346 14.9522 4.23468C15.2558 4.52175 15.8213 4.93116 16.0484 5.09556C16.0711 5.11199 16.0904 5.12598 16.1057 5.13715C16.2745 5.26005 16.3459 5.60094 16.1923 5.83328C16.0388 6.06563 15.6317 6.54198 15.1433 6.46214C14.6549 6.3823 13.5845 6.1975 12.7024 6.0441C11.8203 5.8907 11.2087 5.3982 11.2087 5.3982C11.098 6.01808 11.4712 6.568 12.1738 6.7519C12.3103 6.78747 12.4738 6.82456 12.6577 6.86624C13.4848 7.05374 14.7225 7.33433 15.745 7.98898C17.1342 8.87799 18.2342 10.281 18.6636 12.4385C19.093 14.596 18.5565 19.1649 14.7424 21.0407C10.9284 22.9165 7.31524 21.4632 7.31524 21.4632C10.7338 21.3035 12.7354 19.9139 13.4997 18.9908C14.0353 18.3431 14.5424 17.1778 14.2335 15.8331C13.8961 14.361 12.6542 13.2432 11.3891 13.4307C10.124 13.6182 9.5883 14.9871 9.35082 15.6519C9.11334 16.3166 8.74372 16.8073 8.42052 16.8611C8.09733 16.915 7.63308 16.932 7.22596 15.9488C6.81884 14.9656 5.73142 13.2037 4.29044 13.8649C2.84946 14.526 2.58877 17.5887 2.58877 17.5887C0.823704 14.7656 0.374627 11.1431 2.03434 7.62566C3.69405 4.10819 7.15811 2.8119 7.15811 2.8119C6.53851 3.61569 5.85373 6.04948 6.55011 8.23837C7.24649 10.4273 8.96602 11.5244 9.95167 11.6733C10.9373 11.8222 12.1122 11.2373 12.048 10.0361C11.9953 9.05023 11.148 8.34961 10.2508 7.93964C9.61062 7.64719 8.97674 6.97258 8.9321 5.93555C8.88746 4.89852 9.34189 4.24275 9.56331 3.9826C9.7374 3.77717 9.94275 3.49369 9.89275 3.20034ZM12.3926 4.1952C11.6649 4.1952 11.3337 4.5648 11.3337 4.5648H11.3328C11.3352 4.54602 11.3377 4.52446 11.3406 4.50054C11.3714 4.23864 11.4356 3.6937 11.7015 3.42819C11.9917 3.13843 12.4854 2.92134 13.1773 3.42819C13.8692 3.93504 14.0871 4.85904 14.0871 4.85904C13.8442 4.65361 13.1202 4.1952 12.3926 4.1952Z" fill="#3A64FA"/>
</g>
</g>
</svg>
