<svg width="148" height="35" viewBox="0 0 148 35" fill="none" xmlns="http://www.w3.org/2000/svg">
<path d="M84.2039 25.9277C83.7671 25.4318 83.4507 24.8646 83.2581 24.2227C83.062 23.5809 82.9691 22.7182 82.9691 21.6314V5.34985H86.584V21.2476C86.584 22.4805 86.7181 23.4314 86.9932 24.1039C87.2684 24.7593 87.6227 25.3197 88.0595 25.785V25.931H84.2005H84.2039V25.9277Z" fill="#080216"/>
<path d="M92.3518 25.9277C91.977 25.4963 91.6812 24.9767 91.4542 24.3688C91.2443 23.7609 91.1377 22.8473 91.1377 21.6314V14.3669H89.1463V11.531H91.1859V7.54722H94.7078V11.531H97.1085V14.3669H94.7285V21.2239C94.7285 22.5009 94.8764 23.479 95.1653 24.1514C95.4576 24.8069 95.805 25.3503 96.2109 25.785V25.931H92.3518V25.9277Z" fill="#080216"/>
<path d="M42.4805 11.5174H45.9164V13.2699H46.109C46.7453 12.1729 48.0764 11.1608 50.0712 11.1608C52.0661 11.1608 53.5622 12.0099 54.3946 13.3514H54.6181C55.6155 11.8469 57.0567 11.1608 58.9414 11.1608C62.1573 11.1608 64.2622 13.3276 64.2622 16.3638V25.9243H60.6612V17.5967C60.6612 15.6235 59.7463 14.4993 58.03 14.4993C56.3137 14.4993 55.2028 15.7321 55.2028 17.6782V25.9243H51.5983V17.3759C51.5983 15.6235 50.5459 14.4993 48.8846 14.4993C47.2234 14.4993 46.0884 15.8137 46.0884 17.6476V25.9243H42.4873V11.5174H42.4805Z" fill="#080216"/>
<path d="M66.3396 18.8023C66.3396 14.2548 69.4144 11.1574 73.6827 11.1574C78.3638 11.1574 80.9124 14.5842 80.9124 18.6393V19.7601H69.8272C69.9372 21.9507 71.4643 23.4314 73.7894 23.4314C75.5607 23.4314 76.9227 22.6061 77.4214 21.431H80.7748C80.056 24.3654 77.4489 26.2809 73.6793 26.2809C69.3835 26.2809 66.3362 23.102 66.3362 18.799H66.3396V18.8023ZM77.4799 17.2435C77.3148 15.2974 75.7911 14.0103 73.6827 14.0103C71.5744 14.0103 70.1092 15.4333 69.8856 17.2435H77.4799Z" fill="#080216"/>
<path d="M98.787 18.8023C98.787 14.282 101.559 11.1574 105.549 11.1574C108.07 11.1574 109.484 12.6382 109.982 13.3752H110.175V11.5106H113.779V25.9209H110.23V24.0869H110.037C109.621 24.6914 108.318 26.2775 105.659 26.2775C101.587 26.2775 98.787 23.265 98.787 18.7956V18.8023ZM110.261 18.7514C110.261 16.0378 108.6 14.394 106.326 14.394C104.053 14.394 102.446 16.2008 102.446 18.7514C102.446 21.302 104.025 23.0782 106.354 23.0782C108.682 23.0782 110.257 21.1627 110.257 18.7514H110.261Z" fill="#080216"/>
<path d="M116.775 11.5174H120.211V13.2699H120.404C120.985 12.2001 122.429 11.1608 124.507 11.1608C127.774 11.1608 129.769 13.4363 129.769 16.5031V25.9277H126.168V17.4337C126.168 15.6812 125.033 14.4993 123.368 14.4993C121.625 14.4993 120.376 15.8714 120.376 17.6782V25.9243H116.775V11.5174Z" fill="#080216"/>
<path d="M131.847 18.7208C131.847 14.445 135.007 11.1574 139.606 11.1574C144.204 11.1574 147.365 14.445 147.365 18.7208C147.365 22.9967 144.149 26.2843 139.606 26.2843C135.062 26.2843 131.847 23.0239 131.847 18.7208ZM143.709 18.7208C143.709 16.228 141.989 14.394 139.606 14.394C137.222 14.394 135.503 16.228 135.503 18.7208C135.503 21.2137 137.222 23.0476 139.606 23.0476C141.989 23.0476 143.709 21.2408 143.709 18.7208Z" fill="#080216"/>
<path d="M35.98 6.80005C34.5973 8.65779 31.6257 9.07552 31.2955 7.96835C30.9584 6.86118 32.6885 6.09363 33.5965 5.98834C28.3376 4.56532 29.2903 8.35213 26.384 8.71552C27.9902 9.50345 29.6618 10.8178 30.7899 10.9774C32.7263 11.2559 35.44 10.1929 35.98 6.79665" fill="#080216"/>
<path fill-rule="evenodd" clip-rule="evenodd" d="M15.2369 2.04531C15.1372 1.45776 14.7244 1.27097 14.071 1.00946H14.0675C18.3358 -0.987526 21.0598 0.452478 22.1604 1.35248C22.7692 1.85173 22.9997 2.3272 23.2198 2.7755C23.3952 3.13551 23.5603 3.47853 23.9077 3.80456C24.427 4.29362 25.3969 4.98985 25.7856 5.26834C25.8234 5.29551 25.8578 5.31929 25.8853 5.33966C26.1742 5.55023 26.298 6.12759 26.0332 6.52495C25.7684 6.91891 25.0736 7.73061 24.2344 7.59477C23.3986 7.45892 21.5654 7.14307 20.0521 6.88495C18.5422 6.62344 17.4932 5.78457 17.4932 5.78457C17.304 6.8408 17.9437 7.77477 19.1475 8.08722C19.3814 8.14835 19.66 8.20948 19.9764 8.2808C21.3935 8.60005 23.5121 9.07892 25.2662 10.1929C27.6463 11.7042 29.5311 14.0952 30.2671 17.7665C31.0032 21.4378 30.0848 29.2152 23.55 32.4077C17.0151 35.6001 10.8242 33.1277 10.8242 33.1277C16.6815 32.856 20.1106 30.4922 21.421 28.9197C22.3393 27.816 23.206 25.8326 22.6798 23.5469C22.102 21.0405 19.973 19.1386 17.8062 19.4578C15.6393 19.7771 14.721 22.1069 14.3152 23.2378C13.9093 24.3688 13.2765 25.2043 12.7227 25.296C12.169 25.3877 11.3745 25.4182 10.6763 23.7439C9.97807 22.0695 8.11735 19.0707 5.64785 20.1982C3.17836 21.3224 2.73124 26.5356 2.73124 26.5356C-0.302318 21.7265 -1.07275 15.5623 1.77164 9.57477C4.61603 3.58721 10.549 1.38305 10.549 1.38305C9.48623 2.75173 8.31339 6.89174 9.50687 10.6174C10.7003 14.3431 13.6445 16.211 15.3332 16.4623C17.022 16.7171 19.034 15.722 18.924 13.6774C18.8345 11.9997 17.3831 10.8076 15.8457 10.108C14.7485 9.60873 13.6617 8.4608 13.586 6.69816C13.5103 4.93212 14.2876 3.81815 14.666 3.37324C14.9652 3.02343 15.316 2.54116 15.23 2.04192L15.2369 2.04531ZM19.519 3.74004C18.2739 3.74004 17.7064 4.36834 17.7064 4.36834C17.7099 4.33777 17.7133 4.30041 17.7202 4.25966C17.7718 3.81475 17.8818 2.88758 18.3393 2.43588C18.838 1.94343 19.6806 1.57324 20.8672 2.43588C22.0538 3.29852 22.4253 4.87098 22.4253 4.87098C22.0091 4.52117 20.7675 3.74004 19.5224 3.74004H19.519Z" fill="#080216"/>
</svg>
