<svg viewBox="0 0 152 40"><g fill="none" strokeWidth="1" fillRule="evenodd"><g transform="translate(-40 -4540)translate(39 4529)translate(1 11)"><g transform="translate(7.77767 29.406999)"><mask fill="white"><polygon points="0.3 0.3 2.7 0.3 2.7 10.4 0.3 10.4"></polygon></mask><path d="M1.2 0.3C1 2.9 0.7 4.8 0.4 5.5L0.3 5.4C1.1 7.1 1 10 1 10L2.1 10.4C2.1 10.4 1.8 7.6 2.1 6.2 2.2 5.8 2.4 5.4 2.7 5.1L2.6 5.1C1.5 4.6 1.2 2.4 1.2 0.3L1.2 0.3Z" mask="url(#mask-2)" fill="#C2BFBF"></path></g><path d="M17.5 15.8C15.4 6.6 10.4 3.6 9.9 2.4 9.4 1.7 9.1 0.9 8.7 0.1L8.7 0C8.7 0.8 8.7 1.1 7.9 2 7.1 2.8 0.5 8 0 18.5 -0.5 28.2 7.1 34 8.1 34.8L8.2 34.9C8.5 34.2 8.8 32.3 9 29.7 9 31.8 9.3 34 10.4 34.5L10.5 34.5C10.9 34.2 11.4 33.8 11.8 33.4L11.8 33.4C14.3 31.1 19.1 25.3 17.5 15.8" fill="#68B245"></path><path d="M17.5 15.8C15.4 6.6 10.4 3.6 9.9 2.4 9.4 1.7 9.1 0.9 8.7 0.1 9.2 2 9.1 17.4 9.2 19.3 9.3 22.7 9.2 26.2 9 29.7 9 31.8 9.3 34 10.4 34.5L10.5 34.5C10.9 34.2 11.4 33.8 11.8 33.4L11.8 33.4C14.3 31.1 19.1 25.3 17.5 15.8" fill="#599642"></path><path d="M119.7 29.9C120.3 30.4 121.6 30.6 122.8 30.6 123.9 30.6 125.7 30.4 127.1 29.1 128.5 27.8 129.5 25.7 129.5 22.6 129.5 19.4 128.4 17 126 15.5 124.6 14.7 122.9 14.3 120.9 14.3 120.4 14.3 119.8 14.4 119.4 14.5 119.2 14.6 119.1 14.8 119.1 15 119 15.5 119 19.7 119 22.1 119 24.6 119 28.2 119.1 28.6 119.1 29.1 119.4 29.6 119.7 29.9M113.5 13L117 13C118.7 13 119.9 13 123.1 13 126.4 13 128.1 13.7 129.8 15.1 131.4 16.5 132.8 19.2 132.8 22.1 132.8 26.2 130.9 28.6 129 29.9 127.2 31.2 124.7 32.1 121.2 32.1L113.6 32 113.5 32C113.4 31.7 113.8 30.8 114 30.8 114.4 30.8 114.8 30.7 115.2 30.5 115.8 30.3 115.9 30 116 29 116.1 27.1 116.1 24.9 116.1 22.3 116.1 20.5 116.1 16.9 116 15.8 115.9 14.7 115.5 14.6 114.7 14.4L113 14.1C112.9 14 113.4 13.1 113.5 13" fill="#47474A"></path><path d="M140.4 14.5C140.3 14.6 140.1 14.9 140.1 15 140.1 16.1 140.1 19 140.1 20.9 140.1 21 140.1 21.1 140.2 21.1L142.4 21.1C143.6 21.1 144.3 21 144.6 20.8 145.6 20.3 146.1 19.3 146.1 18.1 146.1 15.4 144.2 14.4 141.5 14.4 141.1 14.4 140.8 14.5 140.4 14.5M147.4 26.7C147.4 24 145.4 22.5 141.8 22.5 141.3 22.5 140.8 22.5 140.2 22.6 140.2 22.6 140.1 22.6 140.1 22.7 140.1 24.6 140 27.7 140.1 28.9 140.2 29.4 140.6 30.2 141 30.4 141.5 30.6 142.6 30.7 143.4 30.7 145.5 30.7 147.4 29.5 147.4 26.7M134.8 13C135.1 13 135.9 13.1 138 13.1L143.5 13C145.9 13 149.1 13.9 149.1 17.4 149.1 19.1 147.9 20.6 146.3 21.2 146.2 21.3 146.2 21.3 146.3 21.3 148.6 21.9 150.6 23.3 150.6 26 150.6 28.7 149 30.3 146.6 31.3 145.2 31.9 143.4 32.1 141.6 32.1 139.8 32.1 136.5 32 134.4 32 134.2 32 134.6 31 134.8 30.8 135.3 30.8 135.7 30.7 136.2 30.6 136.9 30.4 137 30.2 137.1 29.1 137.2 28 137.2 24.7 137.2 22.3 137.2 19 137.2 16.8 137.2 15.7 137.2 14.7 136.9 14.6 136.3 14.4L134.4 14.2C134.3 14 134.8 13.1 134.9 13" fill="#47474A"></path><path d="M24.4 32.1C24.3 31.9 24.3 31.7 24.3 31.4 24.3 31.3 24.3 31.2 24.4 31L25.6 30.8C26.1 30.6 26.3 30.3 26.4 29.7 26.4 28 26.5 25 26.4 22.8L26.4 22.7C26.5 22.4 26.4 22.1 26.1 21.9 25.6 21.6 25.1 21.4 24.5 21.2 24.2 21.1 24.1 21 24.1 20.9 24.1 20.7 24.3 20.5 24.6 20.4 26 20.2 27.4 19.9 28.8 19.4 28.9 19.5 28.9 19.7 28.9 19.8L28.9 20.1C28.8 20.4 28.8 20.8 28.8 21.1 28.9 21.2 28.9 21.3 29.1 21.3L29.2 21.2C30.9 19.9 32.5 19.4 33.3 19.4 34.1 19.4 35.7 20 36.5 21.3 36.5 21.4 36.6 21.4 36.7 21.4L36.8 21.3C38.4 20.1 40 19.4 41.1 19.4 43.6 19.4 45.1 21.3 45.1 24.4L45.1 27.6 45.1 30C45.2 30.3 45.4 30.5 45.6 30.6 46.1 30.8 46.6 30.9 47.2 31L47.2 31C47.2 31.4 47.2 31.7 47.1 32L46.4 32 44.3 32C42.6 32 41.7 32 40.9 32 40.8 31.7 40.8 31.3 40.9 31L41.9 30.8C42.5 30.6 42.7 30.4 42.7 29.7 42.7 29 42.8 24.7 42.6 23.7 42.4 22.3 41.2 21.2 39.8 21.3 38.8 21.4 37.8 21.7 37 22.4 37 22.4 36.9 22.5 36.9 22.6 37 23.4 37.1 24.1 37 24.9L37 26.6 37 29.9C37 30.3 37.3 30.7 37.7 30.7L38.1 30.9 38.9 31C39 31.3 39 31.6 38.9 31.8 38.9 31.9 38.9 32 38.8 32.1L35.6 32 32.6 32C32.6 31.8 32.5 31.7 32.5 31.5 32.5 31.3 32.6 31.1 32.7 31L33 30.9 33.9 30.7C34.4 30.6 34.5 30.3 34.6 29.8 34.7 28.4 34.7 24.5 34.5 23.6 34.2 22 33.3 21.2 31.9 21.2 30.9 21.2 29.9 21.6 29.1 22.2 28.9 22.4 28.8 22.6 28.8 22.9L28.8 24.5C28.8 26.4 28.8 28.9 28.9 29.9 28.9 30.4 29.2 30.7 29.6 30.8L30.2 30.9 30.7 31C30.8 31.3 30.8 31.7 30.7 32L29.7 32 27.5 31.9 25.4 32 24.4 32" fill="#47474A"></path><path d="M55.3 20.7C54.8 20.7 54.2 20.8 53.8 21.1 52.7 21.8 52.2 23.1 52.2 25 52.2 28.5 53.9 31 56.5 31 57.2 31.1 57.9 30.8 58.4 30.4 59.2 29.7 59.6 28.4 59.6 26.6 59.6 23.1 57.9 20.7 55.3 20.7M55.8 32.4C51.2 32.4 49.5 29 49.5 25.8 49.5 23.7 50.5 21.8 52.2 20.6 53.5 19.9 54.9 19.4 56.4 19.4 59.9 19.4 62.4 22 62.4 25.6 62.4 28.1 61.4 30 59.5 31.2 58.4 31.9 57.1 32.3 55.8 32.4" fill="#47474A"></path><path d="M102.4 20.7C101.9 20.7 101.4 20.9 100.9 21.1 99.9 21.8 99.3 23.1 99.3 25 99.3 28.6 101.1 31.1 103.7 31.1 104.3 31.1 105 30.8 105.5 30.4 106.3 29.7 106.8 28.4 106.8 26.6 106.8 23.1 105 20.7 102.4 20.7M102.9 32.4C98.3 32.4 96.7 29 96.7 25.8 96.6 23.7 97.6 21.8 99.4 20.7 100.6 19.9 102 19.5 103.5 19.4 107 19.4 109.5 22 109.5 25.6 109.5 28.1 108.5 30 106.7 31.3 105.5 31.9 104.2 32.3 102.9 32.4" fill="#47474A"></path><path d="M86.8 20.6C85.4 20.6 84.5 21.7 84.5 23.4 84.5 25.1 85.3 27.2 87.5 27.2 88.1 27.2 88.6 27 88.9 26.7 89.5 26.2 89.8 25.2 89.8 24.1 89.8 21.9 88.7 20.5 86.8 20.5M86.7 32.6C86.2 32.6 85.9 32.7 85.5 32.9 84.4 33.6 83.8 34.3 83.8 35.2 83.8 36 84.2 36.7 84.8 37.1 85.6 37.8 86.7 38.1 88.1 38.1 90.8 38.1 92.1 36.7 92.1 35.2 92.1 33.7 91.5 33.5 90.5 33.1 89.3 32.7 88 32.5 86.7 32.6M86.8 39.7C85.2 39.7 84 39.3 82.9 38.5 82.1 37.9 81.6 36.9 81.5 35.8 81.5 35.3 81.7 34.8 82.1 34.4 82.8 33.7 83.7 33 84.6 32.4 84.6 32.4 84.7 32.3 84.6 32.2 84.6 32.2 84.6 32.2 84.6 32.2 83.3 31.7 82.9 30.9 82.8 30.4L82.8 30.4C82.7 30.2 82.8 30 82.9 29.9L83.7 29.4C84.2 29.2 84.6 28.9 84.9 28.6 85 28.5 85.1 28.4 85 28.3 85 28.3 85 28.3 84.9 28.3 83 27.6 82.1 26.2 82.1 24.1 82 22.7 82.7 21.5 83.8 20.7 85 19.9 86.3 19.4 87.7 19.3L87.8 19.3C88.8 19.4 89.8 19.6 90.7 20 91.3 20.2 91.9 20.3 92.5 20.3 93.2 20.4 93.9 20.1 94.4 19.6 94.5 19.8 94.5 20 94.5 20.1 94.5 20.6 94.4 21 94.2 21.4 93.9 21.7 93.4 21.9 93 21.9L92.8 21.9 92.1 21.8 92 21.8C92 21.9 92 21.9 92 22 92.1 22.4 92.2 22.8 92.2 23.2 92.2 25.4 91.3 26.4 90.4 27.1 89.4 27.8 88.3 28.2 87.2 28.3L86.4 28.3C86.2 28.4 85.7 28.7 85.7 29.1 85.7 29.6 85.9 30 87.1 30.1L87.8 30.1C89.4 30.2 91.3 30.4 92.2 30.7 93.4 31.1 94.3 32.3 94.2 33.6 94.2 35.6 92.8 37.5 90.4 38.7 89.3 39.2 88.1 39.5 86.8 39.5" fill="#47474A"></path><path d="M79.8 31C79.2 30.9 78.6 30.8 78 30.6 77.9 30.4 77.8 30.3 77.8 30.1 77.7 29.2 77.7 26.4 77.7 24.6 77.7 22.8 77.5 21.9 76.9 21 76.2 19.9 75 19.3 73.7 19.3 72.5 19.3 70.9 20.1 69.6 21.3 69.6 21.3 69.4 21.5 69.4 21.2 69.4 20.9 69.4 20.3 69.5 19.9 69.5 19.7 69.4 19.5 69.3 19.4 67.9 19.9 66.5 20.3 65.1 20.5 64.4 20.6 64.3 21.2 65 21.4 65.5 21.6 66.1 21.8 66.6 22.1 66.8 22.3 66.9 22.6 66.8 22.9 66.9 25 66.9 28.1 66.8 29.8 66.7 30.5 66.5 30.7 66.1 30.9L66.1 30.9 64.9 31.1C64.8 31.5 64.8 31.9 64.9 32.3 65.2 32.3 66.8 32.2 68.1 32.2 69.4 32.2 70.8 32.3 71.3 32.3 71.5 31.9 71.5 31.5 71.4 31.1 71 31.1 70.6 31 70.2 30.9 69.7 30.8 69.5 30.5 69.5 30 69.5 28.5 69.5 25.5 69.5 23.4 69.4 23 69.5 22.7 69.8 22.4 70.5 21.8 71.4 21.5 72.3 21.5 73 21.5 73.7 21.7 74.2 22.1 74.7 22.6 75 23.2 75.1 23.8 75.2 25 75.1 27.3 75.1 29.3 75.1 30.4 75.1 30.7 74.7 30.8 74.2 30.9 73.8 31 73.4 31 73.2 31.2 73.3 32.1 73.4 32.3 74.2 32.3 75.1 32.2 76.5 32.2 77.8 32.2 79.2 32.3 79.7 32.3 79.8 31.9 79.9 31.4 79.8 31" fill="#47474A"></path></g></g></svg>
