<svg id="Layer_1" data-name="Layer 1" xmlns="http://www.w3.org/2000/svg" viewBox="0 0 515.97 360"><defs><style>.cls-1{fill:#03363d;}</style></defs><title>golion-z-sourcefile-algae</title><polygon class="cls-1" points="250.22 93.22 250.22 206.08 156.74 206.08 250.22 93.22"/><path class="cls-1" d="M250.22,52.71a46.74,46.74,0,1,1-93.48,0h93.48Z"/><path class="cls-1" d="M265.62,206.08a46.74,46.74,0,0,1,93.48,0H265.62Z"/><polygon class="cls-1" points="265.62 165.57 265.62 52.71 359.11 52.71 265.62 165.57"/><path class="cls-1" d="M317.91,302.63a18.22,18.22,0,0,0,12.95-5l6.42,6.93c-4.24,4.36-10.12,7.6-19.26,7.6-15.67,0-25.79-10.39-25.79-24.46a24,24,0,0,1,24.37-24.47c15.56,0,24.38,11.84,23.61,28.26H303.43c1.3,6.82,6.09,11.17,14.47,11.17m11.21-19c-1-6.37-4.79-11.06-12.41-11.06-7.07,0-12,4-13.27,11.06h25.68Z"/><polygon class="cls-1" points="76.4 302.12 104.71 273.36 77.07 273.36 77.07 264.34 117.83 264.34 117.83 273.55 89.52 302.3 118.21 302.3 118.21 311.33 76.4 311.33 76.4 302.12"/><path class="cls-1" d="M150,302.63a18.22,18.22,0,0,0,12.95-5l6.42,6.93c-4.24,4.36-10.12,7.6-19.26,7.6-15.67,0-25.79-10.39-25.79-24.46a24,24,0,0,1,24.37-24.47c15.56,0,24.38,11.84,23.61,28.26H135.52c1.3,6.82,6.09,11.17,14.47,11.17m11.21-19c-1-6.37-4.79-11.06-12.41-11.06-7.07,0-12,4-13.27,11.06H161.2Z"/><path class="cls-1" d="M233.42,287.69c0-15,11.23-24.44,23.59-24.44a20.34,20.34,0,0,1,15.67,7.05V242.58h10v68.61h-10V304.7a20.1,20.1,0,0,1-15.76,7.42c-12,0-23.5-9.49-23.5-24.43m39.82-.09a14.92,14.92,0,1,0-14.91,15.32c8.59,0,14.91-6.86,14.91-15.32"/><path class="cls-1" d="M346.72,301.22l9.06-4.7a13.44,13.44,0,0,0,12.08,6.86c5.66,0,8.59-2.91,8.59-6.2,0-3.76-5.47-4.61-11.42-5.83-8-1.69-16.33-4.33-16.33-14,0-7.43,7.07-14.29,18.21-14.19,8.77,0,15.29,3.48,19,9.11l-8.4,4.61a12.19,12.19,0,0,0-10.57-5.36c-5.38,0-8.12,2.63-8.12,5.64,0,3.38,4.34,4.32,11.14,5.83,7.74,1.69,16.51,4.23,16.51,14,0,6.48-5.66,15.22-19.06,15.13-9.81,0-16.7-3.95-20.67-10.9"/><polygon class="cls-1" points="413.62 290.32 405.69 298.97 405.69 311.18 395.69 311.18 395.69 242.57 405.69 242.57 405.69 287.5 426.92 264.19 439.1 264.19 420.69 284.3 439.57 311.18 428.25 311.18 413.62 290.32"/><path class="cls-1" d="M203.19,263.24c-11.89,0-21.85,7.71-21.85,20.49v27.45h10.19V285c0-7.71,4.43-12.32,12-12.32s11.33,4.61,11.33,12.32v26.18H225V283.73c0-12.78-10-20.49-21.85-20.49"/></svg>