<?xml version="1.0" encoding="UTF-8" standalone="no"?>
<svg width="568px" height="159px" id="Layer_1" data-name="Layer 1" xmlns="http://www.w3.org/2000/svg" viewBox="0 0 713.46 200.39">
    <defs>
        <style>
            .cls-1 {
                fill: #fff;
            }
        </style>
    </defs>
    <g id="Layer_2" data-name="Layer 2">
        <g id="Layer_2-2" data-name="Layer 2-2">
            <path class="cls-1"
                d="M317.54,169.39h-15v-39c0-11.1-5.88-15.89-13.28-15.89-7,0-13.5,2.61-17.42,8.71a30.18,30.18,0,0,1,.21,4.35v41.59H257V128.89c0-10-5.88-14.15-13.28-14.15a20.18,20.18,0,0,0-18.08,9.79v45.08h-15v-66h15v7l.87.43a27.37,27.37,0,0,1,20.91-8.71,23.71,23.71,0,0,1,20.69,10.46,31.71,31.71,0,0,1,24.82-10.46c13.5,0,24.39,9.58,24.39,28.31Zm75.77-37.45v7.84h-49c1.09,12.19,8.06,18.07,22.65,18.51a50,50,0,0,0,19.59-3.92l2.83,11.32A49.9,49.9,0,0,1,367,170.92c-22.43,0-37.68-12.85-37.68-34.19,0-18.08,12.63-34.19,33.1-34.41C380.47,102.11,392.23,112.56,393.31,131.94ZM345,129.11h33.32c-.65-9.8-7.19-14.59-15.68-14.59C353,114.52,346.93,120.61,345,129.11Zm84.49,41.59c-15.46,0-23.73-7.19-23.73-21.12V73.36h15v75.13c0,6.09,3.92,8.93,10.24,9.14Zm2.18-67.07h10.23V82.51h15v21.12H475v11.76H456.9v30.7c0,7.84,4.35,11.11,10.45,11.11a22.79,22.79,0,0,0,9.36-1.53l2.62,11.54a30.23,30.23,0,0,1-13.72,2.62c-13.5,0-23.74-8.5-23.74-23.52V115.39H431.64Zm103,4.79.65-.22v-4.57h15v65.76h-15v-6.75l-.87-.22a26.48,26.48,0,0,1-20.69,8.28c-17.85,0-32.23-15.24-32.23-34.19a33.47,33.47,0,0,1,33.1-34.19H515c9.14-.21,15.24,2.4,19.6,6.1Zm.65,39.85V120A30.6,30.6,0,0,0,517,114.52c-11.11,0-20.47,9.58-20.47,21.77s9.15,21.78,20.47,21.78C524.62,158.29,531.59,155.67,535.29,148.27Zm31.79-44.86h15v8.06l.87.22c4.79-5.66,12.85-9.58,23.3-9.58,13.28,0,24.17,9.36,24.17,27.65v39.63h-15v-39c0-11.1-6.53-15.89-14.59-15.89a21.75,21.75,0,0,0-18.72,8.93v45.72h-15Zm110-1.3c20.47,0,35.93,15.24,35.93,34.18s-15.46,34.19-35.93,34.19-35.71-15.24-35.71-34.19,15.46-34.18,35.71-34.18Zm0,56.18c12,0,20.9-9.58,20.9-21.78s-9.14-21.77-20.9-21.77-20.91,9.58-20.91,21.77,9.15,21.78,20.91,21.78Z" />
            <path class="cls-1"
                d="M274.86,39.61C260.27,59.43,228.69,63.78,225.21,52S240,32.21,249.6,30.9c-55.75-15-45.73,25-76.65,29,17,8.49,34.84,22.21,46.81,24C240.23,87.08,269,75.76,274.86,39.61Z" />
            <path class="cls-1"
                d="M136.36,52c-3.26-1.74-6.53-3.7-9.58-5.66a10.35,10.35,0,0,1-3.92-11.54l1.31-2.61c.44.43,3.48,6.75,16.33,12.63,4.36,2,20.47,9.8,21.12,10,5.88,1.31,15.46-5,12.85-9.8-2-2.83-10.23-11.75-11.1-17-.88-4.14-.66-10.67-9.59-19-8.49-7.83-27-10-40.06-8.27,3.7,3.27,10,9.15,3.92,12.41a74.82,74.82,0,0,0-10,5.88c-10,8.06-10.89,25.48.87,35.93,8.93,7.84,19.82,19.6,7,33.1-8.93,9.36-30.49,4.57-44-9.15-15-15.24-16.55-44.2-2-66.63l2-3.05a7.62,7.62,0,0,0-2.17.44c-3.49,1.3-7,2.39-10.24,3.92a98,98,0,0,0-47.9,44.42c-5,9.58-24,53.57,5.22,97.77.65-14.37,5.23-28.31,10.24-35.71,5.44-7.84,17.2-14.81,28.3,0,7.19,9.36,8.71,23.73,17.64,23.73s10.89-14.37,17-23.73c10-15.24,23.51-9.15,28.52-1.31a52.33,52.33,0,0,1,6.1,37c-6.53,32-65.11,31.58-84.49,25,0,0,20.47,18.73,58.79,19.17,13.72.21,59-5.45,76.87-54C196.46,88.6,145.29,56.81,136.36,52Zm-3.48-35.27c8.93-9.59,22.21,3.26,21.56,18.94-11.54-12.19-17.21-13.28-26.35-9.58C127.87,23.28,131.57,18.05,132.88,16.75Z" />
        </g>
    </g>
</svg>
