<?xml version="1.0" encoding="UTF-8" standalone="no"?>
<svg width="568px" height="160px" viewBox="0 0 568 160" version="1.1" xmlns="http://www.w3.org/2000/svg" xmlns:xlink="http://www.w3.org/1999/xlink">
    <!-- Generator: Sketch 50.2 (55047) - http://www.bohemiancoding.com/sketch -->
    <title>Meltano Logo with Text - Black</title>
    <desc>Created with Sketch.</desc>
    <defs></defs>
    <g id="meltano-logo-with-text-black" stroke="none" stroke-width="1" fill="none" fill-rule="evenodd">
        <path d="M130,135 L30,135 C24.4771525,135 20,130.522681 20,124.999629 L20,39.0003713 C20,33.4773187 24.4771525,29 30,29 C32.6544898,29 35.2000622,30.0554504 37.0758102,31.9337867 L88.2487391,83.1773284 L122.68119,46.1943604 C124.572865,44.1625631 127.223973,43.0085663 130,43.0085663 C135.522847,43.0085663 140,47.485885 140,53.0089376 L140,124.999629 C140,130.522681 135.522847,135 130,135 Z M36,119.999443 L53.9660488,119.999443 L76.1898014,96.1295087 L36,55.9970666 L36,119.999443 Z M77.1401869,119.999443 L122,119.999443 L122,71.9976607 L77.1401869,119.999443 Z" id="Combined-Shape" fill="#000000"></path>
        <path d="M198.235815,125.022843 L181.041943,68.982868 L180.602327,68.982868 C181.221049,80.3830942 181.530405,87.9885596 181.530405,91.7994924 L181.530405,125.022843 L168,125.022843 L168,53.5926396 L188.613108,53.5926396 L205.513902,108.215736 L205.80698,108.215736 L223.733545,53.5926396 L244.346653,53.5926396 L244.346653,125.022843 L230.230093,125.022843 L230.230093,91.213198 C230.230093,89.6171663 230.254516,87.7768717 230.303363,85.6922589 C230.352209,83.6076461 230.572015,78.0704764 230.962787,69.0805838 L230.523171,69.0805838 L212.108143,125.022843 L198.235815,125.022843 Z M281.764817,79.9758883 C278.606078,79.9758883 276.131227,80.9774646 274.34019,82.9806472 C272.549153,84.9838298 271.523392,87.8257007 271.262878,91.5063452 L292.169063,91.5063452 C292.103934,87.8257007 291.143302,84.9838298 289.287136,82.9806472 C287.43097,80.9774646 284.923555,79.9758883 281.764817,79.9758883 Z M283.865204,126 C275.07284,126 268.201872,123.573417 263.252097,118.720178 C258.302321,113.866939 255.82747,106.994334 255.82747,98.1021574 C255.82747,88.9494043 258.115079,81.8732272 262.690365,76.8734137 C267.265651,71.8736002 273.591174,69.373731 281.667124,69.373731 C289.384867,69.373731 295.392893,71.572313 299.691382,75.9695431 C303.989871,80.3667733 306.139084,86.4413741 306.139084,94.1935279 L306.139084,101.424492 L270.920954,101.424492 C271.083776,105.658862 272.337483,108.964878 274.682114,111.34264 C277.026744,113.720401 280.315691,114.909264 284.549052,114.909264 C287.838047,114.909264 290.947893,114.567262 293.878681,113.883249 C296.809469,113.199235 299.870469,112.108087 303.061772,110.609772 L303.061772,122.140228 C300.456627,123.443111 297.672419,124.412116 294.709067,125.047272 C291.745714,125.682427 288.13113,126 283.865204,126 Z M331.150306,125.022843 L316.252207,125.022843 L316.252207,49 L331.150306,49 L331.150306,125.022843 Z M367.78693,114.127538 C370.392075,114.127538 373.518203,113.557535 377.165406,112.417513 L377.165406,123.508249 C373.453074,125.169425 368.894138,126 363.488462,126 C357.529193,126 353.190063,124.493564 350.470943,121.480647 C347.751823,118.46773 346.392283,113.948423 346.392283,107.922589 L346.392283,81.588198 L339.260734,81.588198 L339.260734,75.285533 L347.4669,70.3020305 L351.765368,58.7715736 L361.290382,58.7715736 L361.290382,70.3997462 L376.579251,70.3997462 L376.579251,81.588198 L361.290382,81.588198 L361.290382,107.922589 C361.290382,110.039774 361.884672,111.60321 363.073269,112.612944 C364.261867,113.622678 365.833071,114.127538 367.78693,114.127538 Z M420.884733,125.022843 L418.002806,117.596447 L417.612036,117.596447 C415.104584,120.755938 412.5239,122.946377 409.869909,124.16783 C407.215917,125.389283 403.756011,126 399.490085,126 C394.247231,126 390.119766,124.501707 387.107567,121.505076 C384.095368,118.508445 382.589291,114.241567 382.589291,108.704315 C382.589291,102.906485 384.616389,98.6314647 388.670646,95.8791244 C392.724903,93.126784 398.838762,91.6040624 407.012404,91.3109137 L416.488572,91.0177665 L416.488572,88.623731 C416.488572,83.0864782 413.65552,80.3178934 407.989329,80.3178934 C403.625711,80.3178934 398.496908,81.6370426 392.602767,84.2753807 L387.669299,74.2106599 C393.954211,70.9208803 400.92287,69.2760152 408.575484,69.2760152 C415.902454,69.2760152 421.519714,70.872023 425.427432,74.0640863 C429.33515,77.2561496 431.288979,82.109316 431.288979,88.623731 L431.288979,125.022843 L420.884733,125.022843 Z M416.488572,99.714467 L410.724718,99.9098985 C406.393664,100.040187 403.169845,100.821905 401.053165,102.255076 C398.936484,103.688247 397.87816,105.870544 397.87816,108.80203 C397.87816,113.003828 400.287883,115.104695 405.107402,115.104695 C408.559219,115.104695 411.319003,114.111262 413.386837,112.124365 C415.454671,110.137469 416.488572,107.49917 416.488572,104.209391 L416.488572,99.714467 Z M495.035259,125.022843 L480.13716,125.022843 L480.13716,93.1186548 C480.13716,89.1774338 479.437038,86.2215623 478.036772,84.2509518 C476.636507,82.2803412 474.405885,81.2950508 471.344839,81.2950508 C467.176607,81.2950508 464.164453,82.6874861 462.308287,85.4723985 C460.452121,88.2573109 459.524052,92.8743332 459.524052,99.3236041 L459.524052,125.022843 L444.625953,125.022843 L444.625953,70.3997462 L456.007124,70.3997462 L458.009819,77.3864213 L458.840205,77.3864213 C460.500985,74.7480833 462.788594,72.7530736 465.7031,71.4013325 C468.617606,70.0495914 471.930975,69.373731 475.643307,69.373731 C481.993349,69.373731 486.812795,71.0918821 490.101791,74.528236 C493.390786,77.9645899 495.035259,82.923614 495.035259,89.4054569 L495.035259,125.022843 Z M520.241866,97.6135787 C520.241866,103.020543 521.129231,107.108277 522.903986,109.876904 C524.678741,112.64553 527.568781,114.029822 531.574191,114.029822 C535.547037,114.029822 538.404513,112.653673 540.146704,109.901332 C541.888895,107.148992 542.759977,103.053115 542.759977,97.6135787 C542.759977,92.2066143 541.880754,88.1514518 540.122281,85.4479695 C538.363808,82.7444873 535.481909,81.3927665 531.476499,81.3927665 C527.503652,81.3927665 524.638036,82.7363444 522.879563,85.4235406 C521.12109,88.1107368 520.241866,92.1740422 520.241866,97.6135787 Z M558,97.6135787 C558,106.505755 555.655405,113.459789 550.966143,118.475888 C546.276882,123.491988 539.747835,126 531.378806,126 C526.135952,126 521.511888,124.851852 517.506478,122.55552 C513.501067,120.259189 510.423786,116.961316 508.274541,112.661802 C506.125296,108.362288 505.05069,103.346264 505.05069,97.6135787 C505.05069,88.6888302 507.379003,81.7510823 512.0357,76.8001269 C516.692397,71.8491715 523.237726,69.373731 531.671884,69.373731 C536.914738,69.373731 541.538801,70.5137365 545.544212,72.7937817 C549.549623,75.073827 552.626904,78.3472714 554.776149,82.6142132 C556.925394,86.881155 558,91.8808935 558,97.6135787 Z" id="Meltano-Copy" fill="#000000"></path>
    </g>
</svg>