<svg xmlns="http://www.w3.org/2000/svg" viewBox="0 0 239.78 207.39"><g id="Layer_2" data-name="Layer 2"><g id="Layer_2-2" data-name="Layer 2"><path d="M50.84,206.77H43.7V188.59c0-5.16-2.8-7.37-6.3-7.37-3.32,0-6.5,1.17-8.35,4.12.06.67.13,1.35.13,2v19.41H22V187.86c0-4.67-2.8-6.64-6.3-6.64a9.62,9.62,0,0,0-8.6,4.55v21H0V176.06H7.14v3.26l.38.18a13.1,13.1,0,0,1,10-4.05,11.28,11.28,0,0,1,9.81,4.91,15.32,15.32,0,0,1,11.85-4.91c6.5,0,11.66,4.42,11.66,13.14Zm36.25-17.44V193H63.64c.51,5.71,3.89,8.47,10.77,8.59a23.06,23.06,0,0,0,9.36-1.84L85.11,205a24.68,24.68,0,0,1-10.7,2.4c-10.71,0-18-6-18-15.91,0-8.42,6.05-15.91,15.8-16C80.91,175.45,86.51,180.3,87.09,189.33ZM64,188H79.89c-.32-4.55-3.44-6.76-7.46-6.76A8.29,8.29,0,0,0,64,188Zm40.34,19.35C96.91,207.33,93,204,93,197.5V161.93h7.14V197c0,2.82,1.91,4.11,4.84,4.3Zm1.07-31.27h4.91v-9.83h7.13v9.83h8.67v5.53h-8.67V195.9c0,3.63,2.1,5.16,5,5.16a12.48,12.48,0,0,0,4.52-.67l1.28,5.4a15.8,15.8,0,0,1-6.56,1.29c-6.44,0-11.34-3.93-11.34-10.93V181.59h-4.91Zm49.26,2.28.32-.13v-2.15h7.14v30.71H155v-3.13l-.38-.12a13.18,13.18,0,0,1-9.88,3.87c-8.53,0-15.35-7.07-15.35-16a15.87,15.87,0,0,1,16-16C149.6,175.45,152.53,176.61,154.63,178.34ZM155,197V183.8a14.73,14.73,0,0,0-8.73-2.58,10.21,10.21,0,0,0,0,20.39C149.79,201.61,153.1,200.32,155,197Zm15.2-20.89h7.14v3.75l.38.12c2.29-2.64,6.11-4.48,11.15-4.48,6.31,0,11.53,4.36,11.53,12.9v18.42h-7.14V188.59c0-5.16-3.12-7.37-6.94-7.37-3.63,0-7,1.35-9,4.18v21.37h-7.14Zm52.49-.61c9.75,0,17.14,7.06,17.14,16s-7.39,16-17.14,16-17.07-7.07-17.07-16S213,175.45,222.64,175.45Zm0,26.16a10.2,10.2,0,1,0-9.94-10.19A9.92,9.92,0,0,0,222.64,201.61Z"/><path d="M224.31,26.67C214.16,40,192.34,43,189.87,35.05s10.23-13.43,16.91-14.21c-38.63-10.21-31.63,17-53,19.59,11.81,5.66,24.06,15.08,32.38,16.23C200.39,58.65,220.31,51,224.31,26.67Z"/><path d="M128.48,35a57.13,57.13,0,0,1-6.61-3.87,6.66,6.66,0,0,1-2.65-7.75,11.76,11.76,0,0,1,.9-1.82c.33.3,2.4,4.56,11.23,8.54,3.06,1.37,14.21,6.65,14.6,6.74,4.05.9,10.65-3.34,8.83-6.61-1.29-1.87-7.07-8-7.74-11.47-.55-2.83-.47-7.23-6.69-12.78C134.41.65,121.61-.86,112.63.44c2.57,2.24,7,6.25,2.76,8.31a43,43,0,0,0-7,4c-6.9,5.47-7.6,17.21.58,24.25,6.23,5.36,13.76,13.24,4.78,22.39-6.18,6.28-21.16,3.11-30.45-6.21C73,42.84,71.92,23.36,82,8.17l1.38-2.1a11.1,11.1,0,0,0-1.56.3C79.42,7.22,77,8,74.69,9A67.69,67.69,0,0,0,41.86,39.11c-3.53,6.5-16.63,36.14,3.64,66C46,95.45,49,85.93,52.58,81c3.81-5.28,12-10,19.6,0,4.91,6.38,5.92,16,12.19,16S92,87.29,96.18,81c6.91-10.27,16.31-6.26,19.69-.94a33.91,33.91,0,0,1,4.16,25c-4.54,21.64-45,21.27-58.46,17,0,0,14.15,12.69,40.68,13,9.46.1,40.87-3.64,53.2-36.48C170.05,59.72,134.62,38.3,128.48,35Zm-2.41-23.81c6.2-6.49,15.41,2.22,15,12.72-8.06-8.23-11.9-9-18.29-6.48C122.6,15.52,125.17,12.09,126.07,11.16Z"/></g></g></svg>
