<svg width="32" height="32" viewBox="0 0 32 32" fill="none" xmlns="http://www.w3.org/2000/svg">
<path d="M3 19.9999C3 21.5912 3.63214 23.1173 4.75736 24.2425C5.88258 25.3678 7.4087 25.9999 9 25.9999H24C25.1704 26.0012 26.3042 25.5918 27.2039 24.8431C28.1035 24.0944 28.712 23.0538 28.9233 21.9026C29.1346 20.7514 28.9353 19.5625 28.3602 18.5431C27.7851 17.5237 26.8706 16.7384 25.776 16.3239C26.0234 15.6202 26.0691 14.8614 25.908 14.133C25.7469 13.4047 25.3853 12.736 24.8641 12.2024C24.343 11.6687 23.683 11.2914 22.9587 11.1131C22.2344 10.9348 21.4747 10.9625 20.7653 11.1932C20.3065 9.43326 19.1807 7.92096 17.6263 6.97658C16.072 6.03221 14.211 5.72991 12.4376 6.1337C10.6642 6.53749 9.11761 7.61567 8.12531 9.13992C7.13301 10.6642 6.77293 12.5148 7.12133 14.2999C5.92211 14.6957 4.87826 15.4596 4.13832 16.483C3.39838 17.5064 3.00005 18.737 3 19.9999Z" stroke="#3A64FA" stroke-width="1.5" stroke-linecap="round" stroke-linejoin="round"/>
</svg>
