<svg width="32" height="32" viewBox="0 0 32 32" fill="none" xmlns="http://www.w3.org/2000/svg">
<path d="M16 16C19.3137 16 22 13.3137 22 10C22 6.68629 19.3137 4 16 4C12.6863 4 10 6.68629 10 10C10 13.3137 12.6863 16 16 16Z" stroke="#3A64FA" stroke-width="1.5" stroke-linecap="round" stroke-linejoin="round"/>
<path d="M4 28C4 23.5817 9.37258 20 16 20C22.6274 20 28 23.5817 28 28" stroke="#3A64FA" stroke-width="1.5" stroke-linecap="round" stroke-linejoin="round"/>
<path d="M6 17C8.20914 17 10 15.2091 10 13C10 10.7909 8.20914 9 6 9" stroke="#3A64FA" stroke-width="1.5" stroke-linecap="round" stroke-linejoin="round"/>
<path d="M2.5 25C2.5 22.7909 4.29086 21 6.5 21C7.71 21 8.8 21.55 9.5 22.43" stroke="#3A64FA" stroke-width="1.5" stroke-linecap="round" stroke-linejoin="round"/>
<path d="M26 17C23.7909 17 22 15.2091 22 13C22 10.7909 23.7909 9 26 9" stroke="#3A64FA" stroke-width="1.5" stroke-linecap="round" stroke-linejoin="round"/>
<path d="M29.5 25C29.5 22.7909 27.7091 21 25.5 21C24.29 21 23.2 21.55 22.5 22.43" stroke="#3A64FA" stroke-width="1.5" stroke-linecap="round" stroke-linejoin="round"/>
</svg>
