<svg width="64" height="61" viewBox="0 0 64 61" fill="none" xmlns="http://www.w3.org/2000/svg">
<path d="M64 12.1745C61.543 15.5018 56.2563 16.2482 55.6659 14.266C55.0673 12.2839 58.1419 10.9115 59.7608 10.7201C50.4063 8.17201 52.1015 14.9523 46.929 15.6057C49.786 17.0191 52.7572 19.3676 54.7652 19.6547C58.2099 20.1523 63.0341 18.2494 64 12.1691" fill="#3A64FA"/>
<path fill-rule="evenodd" clip-rule="evenodd" d="M27.1017 3.65818C26.9221 2.6056 26.1929 2.26932 25.0257 1.80181L25.0175 1.80455C32.6116 -1.77422 37.4575 0.803911 39.4111 2.41696C40.4953 3.31218 40.9066 4.16361 41.2951 4.96799C41.6067 5.61296 41.9036 6.22768 42.5211 6.81045C43.4462 7.68534 45.1697 8.93307 45.8617 9.43407C45.9309 9.48416 45.9898 9.52678 46.0365 9.56083C46.5508 9.93538 46.7684 10.9743 46.3004 11.6824C45.8325 12.3905 44.5917 13.8422 43.1034 13.5989C41.615 13.3556 38.3527 12.7924 35.6644 12.3249C32.9762 11.8574 31.1123 10.3564 31.1123 10.3564C30.7749 12.2456 31.9123 13.9215 34.0536 14.482C34.4694 14.5904 34.9679 14.7034 35.5283 14.8305C38.0489 15.4019 41.8209 16.257 44.9373 18.2521C49.171 20.9615 52.5232 25.2374 53.8319 31.8126C55.1407 38.3878 53.5054 52.312 41.8817 58.0287C30.258 63.7454 19.2464 59.3164 19.2464 59.3164C29.6648 58.8297 35.7651 54.5948 38.0942 51.7816C39.7267 49.8076 41.2722 46.2562 40.3308 42.158C39.3023 37.6715 35.5175 34.265 31.662 34.8364C27.8064 35.4078 26.1739 39.5798 25.4501 41.6057C24.7264 43.6316 23.5999 45.1271 22.6149 45.2911C21.63 45.4551 20.2151 45.5071 18.9744 42.5107C17.7336 39.5142 14.4196 34.1447 10.028 36.1596C5.63646 38.1746 4.84196 47.5084 4.84196 47.5084C-0.537282 38.9046 -1.9059 27.8648 3.15227 17.1449C8.21044 6.42496 18.7676 2.47437 18.7676 2.47437C16.8793 4.92401 14.7923 12.3413 16.9146 19.0122C19.0369 25.6831 24.2774 29.0267 27.2813 29.4805C30.2852 29.9344 33.8659 28.1518 33.67 24.491C33.5095 21.4864 30.9273 19.3512 28.1928 18.1018C26.2419 17.2105 24.3101 15.1545 24.174 11.9941C24.038 8.83359 25.4229 6.83505 26.0977 6.0422C26.6283 5.41612 27.2541 4.55219 27.1017 3.65818ZM34.7202 6.69012C32.5026 6.69012 31.4932 7.81652 31.4932 7.81652H31.4904C31.4977 7.75931 31.5055 7.69361 31.5141 7.6207C31.6081 6.82253 31.8039 5.16174 32.6142 4.35257C33.4985 3.4695 35.0031 2.80788 37.1118 4.35257C39.2205 5.89727 39.8844 8.71326 39.8844 8.71326C39.1444 8.08718 36.9377 6.69012 34.7202 6.69012Z" fill="#3A64FA"/>
</svg>
