<svg width="32" height="32" viewBox="0 0 32 32" fill="none" xmlns="http://www.w3.org/2000/svg">
<path fill-rule="evenodd" clip-rule="evenodd" d="M15.7808 18.8493C16.265 18.8493 16.6575 19.2418 16.6575 19.726V23.6712C16.6575 24.1554 16.265 24.5479 15.7808 24.5479C15.2966 24.5479 14.9041 24.1554 14.9041 23.6712V19.726C14.9041 19.2418 15.2966 18.8493 15.7808 18.8493Z" fill="url(#paint0_linear_3323_39189)"/>
<path fill-rule="evenodd" clip-rule="evenodd" d="M25.8635 19.2969L26.1213 17.9549C26.3675 16.6735 26.3675 15.3265 26.1213 14.0451L25.8698 12.7356L29.3568 11.0068C28.8252 9.62841 27.8034 8.28022 26.6112 6.88713L23.4627 8.7172L22.5161 7.89585C21.5349 7.04458 20.3619 6.37033 19.1283 5.94222L17.9497 5.53321V1.94008C16.3791 1.69495 14.7449 1.69126 13.1724 1.92901V5.55289L11.9692 5.95056C10.7023 6.3693 9.60515 7.02899 8.60602 7.89585L7.65935 8.7172L4.52112 6.89307C4.50512 6.88561 4.49696 6.88449 4.49696 6.88449C4.49696 6.88449 4.49421 6.88397 4.48836 6.88504C4.47835 6.88689 4.45054 6.89507 4.41392 6.92137C3.29637 8.31031 2.30557 9.62334 1.7765 10.978L5.24918 12.7518L5.00076 14.0451C4.75459 15.3265 4.75459 16.6735 5.00076 17.9549L5.25548 19.281L1.77644 20.9535C2.31031 22.3895 3.32706 23.73 4.44648 25.0501C4.45104 25.0543 4.4548 25.0566 4.45762 25.0582C4.46221 25.0606 4.46668 25.062 4.4705 25.0626C4.47195 25.0629 4.47396 25.063 4.47396 25.063L4.49856 25.0483L7.64397 23.3276L8.55698 24.0631C9.58426 24.8908 10.6983 25.5579 11.9692 25.978L13.1724 26.3757V30.0599C14.774 30.3099 16.4331 30.3076 17.9497 30.0602V26.3954L19.1283 25.9864C20.3642 25.5574 21.5573 24.8751 22.5651 24.0631L23.504 23.3068L26.5506 25.0777C26.5537 25.0784 26.5573 25.079 26.5611 25.0795C26.5665 25.0803 26.5717 25.0806 26.5764 25.0807L26.6135 25.0396C27.7927 23.7328 28.8238 22.3747 29.3557 20.9264L25.8635 19.2969ZM30.2925 19.4286C31.0129 19.8571 31.301 20.7143 31.0129 21.5C30.3645 23.2857 29.1399 24.8571 27.9153 26.2143C27.411 26.8571 26.4746 27 25.7542 26.6429L23.6651 25.4286C22.5126 26.3571 21.1439 27.1429 19.7031 27.6429V30.0714C19.7031 30.9286 19.1268 31.6429 18.2624 31.7857C16.5335 32.0714 14.6606 32.0714 12.8597 31.7857C11.9952 31.6429 11.4189 30.9286 11.4189 30.0714V27.6429C9.90617 27.1429 8.60951 26.3571 7.45693 25.4286L5.36787 26.5714C4.64751 27 3.71103 26.8571 3.13474 26.2143C1.98216 24.8571 0.757536 23.2857 0.109208 21.5C-0.178938 20.7857 0.109208 19.8571 0.901609 19.4286L3.27881 18.2857C2.99067 16.7857 2.99067 15.2143 3.27881 13.7143L0.901609 12.5C0.109208 12.0714 -0.178938 11.2143 0.109208 10.4286C0.757536 8.71429 1.98216 7.14286 3.13474 5.71429C3.71103 5.14286 4.57547 4.92857 5.36787 5.35714L7.45693 6.57143C8.60951 5.57143 9.90617 4.78571 11.4189 4.28571V1.92857C11.4189 1.07143 11.9952 0.357143 12.7876 0.214286C14.5885 -0.0714286 16.4615 -0.0714286 18.2624 0.214286C19.1268 0.357143 19.7031 1.07143 19.7031 1.92857V4.28571C21.1439 4.78571 22.5126 5.57143 23.6651 6.57143L25.7542 5.35714C26.4746 4.92857 27.411 5.07143 27.9153 5.71429C29.1399 7.14286 30.3645 8.71429 31.0129 10.4286C31.301 11.2143 31.0129 12.0714 30.2925 12.5L27.8433 13.7143C28.1314 15.2143 28.1314 16.7857 27.8433 18.2857L30.2925 19.4286ZM1.71746 10.9461L1.71787 10.9464L1.71746 10.9461Z" fill="url(#paint1_linear_3323_39189)"/>
<path fill-rule="evenodd" clip-rule="evenodd" d="M15.5616 18.411C16.6511 18.411 17.5342 17.5278 17.5342 16.4384C17.5342 15.3489 16.6511 14.4658 15.5616 14.4658C14.4722 14.4658 13.589 15.3489 13.589 16.4384C13.589 17.5278 14.4722 18.411 15.5616 18.411ZM15.5616 20.1644C17.6195 20.1644 19.2877 18.4962 19.2877 16.4384C19.2877 14.3805 17.6195 12.7123 15.5616 12.7123C13.5038 12.7123 11.8356 14.3805 11.8356 16.4384C11.8356 18.4962 13.5038 20.1644 15.5616 20.1644Z" fill="url(#paint2_linear_3323_39189)"/>
<path fill-rule="evenodd" clip-rule="evenodd" d="M15.7808 7.89041C16.265 7.89041 16.6575 8.28293 16.6575 8.76712V12.7123C16.6575 13.1965 16.265 13.589 15.7808 13.589C15.2966 13.589 14.9041 13.1965 14.9041 12.7123V8.76712C14.9041 8.28293 15.2966 7.89041 15.7808 7.89041Z" fill="url(#paint3_linear_3323_39189)"/>
<path fill-rule="evenodd" clip-rule="evenodd" d="M13.0581 17.5805C13.2747 18.0136 13.0991 18.5402 12.666 18.7568L9.1592 20.5102C8.72612 20.7267 8.19951 20.5512 7.98297 20.1181C7.76643 19.685 7.94197 19.1584 8.37504 18.9419L11.8819 17.1884C12.315 16.9719 12.8416 17.1474 13.0581 17.5805Z" fill="url(#paint4_linear_3323_39189)"/>
<path fill-rule="evenodd" clip-rule="evenodd" d="M17.6268 17.1422C17.4103 17.5752 17.5858 18.1019 18.0189 18.3184L22.4024 20.5102C22.8355 20.7267 23.3621 20.5512 23.5787 20.1181C23.7952 19.685 23.6197 19.1584 23.1866 18.9419L18.803 16.7501C18.37 16.5336 17.8433 16.7091 17.6268 17.1422Z" fill="url(#paint5_linear_3323_39189)"/>
<path fill-rule="evenodd" clip-rule="evenodd" d="M8.4391 12.2866C8.67424 11.8633 9.20799 11.7108 9.63125 11.9459L13.5765 14.1377C13.9997 14.3729 14.1522 14.9066 13.9171 15.3299C13.6819 15.7531 13.1482 15.9056 12.7249 15.6705L8.77971 13.4787C8.35645 13.2436 8.20395 12.7098 8.4391 12.2866Z" fill="url(#paint6_linear_3323_39189)"/>
<path fill-rule="evenodd" clip-rule="evenodd" d="M23.1226 12.2866C22.8874 11.8633 22.3537 11.7108 21.9304 11.9459L17.9852 14.1377C17.5619 14.3729 17.4094 14.9066 17.6446 15.3299C17.8797 15.7531 18.4135 15.9056 18.8367 15.6705L22.7819 13.4787C23.2052 13.2436 23.3577 12.7098 23.1226 12.2866Z" fill="url(#paint7_linear_3323_39189)"/>
<defs>
<linearGradient id="paint0_linear_3323_39189" x1="24.9361" y1="24.2162" x2="1.45371" y2="19.0518" gradientUnits="userSpaceOnUse">
<stop stop-color="#3A64FA"/>
<stop offset="0.942707" stop-color="#F963BC"/>
</linearGradient>
<linearGradient id="paint1_linear_3323_39189" x1="24.9361" y1="24.2162" x2="1.45371" y2="19.0518" gradientUnits="userSpaceOnUse">
<stop stop-color="#3A64FA"/>
<stop offset="0.942707" stop-color="#F963BC"/>
</linearGradient>
<linearGradient id="paint2_linear_3323_39189" x1="24.9361" y1="24.2162" x2="1.45371" y2="19.0518" gradientUnits="userSpaceOnUse">
<stop stop-color="#3A64FA"/>
<stop offset="0.942707" stop-color="#F963BC"/>
</linearGradient>
<linearGradient id="paint3_linear_3323_39189" x1="24.9361" y1="24.2162" x2="1.45371" y2="19.0518" gradientUnits="userSpaceOnUse">
<stop stop-color="#3A64FA"/>
<stop offset="0.942707" stop-color="#F963BC"/>
</linearGradient>
<linearGradient id="paint4_linear_3323_39189" x1="24.9361" y1="24.2162" x2="1.45371" y2="19.0518" gradientUnits="userSpaceOnUse">
<stop stop-color="#3A64FA"/>
<stop offset="0.942707" stop-color="#F963BC"/>
</linearGradient>
<linearGradient id="paint5_linear_3323_39189" x1="24.9361" y1="24.2162" x2="1.45371" y2="19.0518" gradientUnits="userSpaceOnUse">
<stop stop-color="#3A64FA"/>
<stop offset="0.942707" stop-color="#F963BC"/>
</linearGradient>
<linearGradient id="paint6_linear_3323_39189" x1="24.9361" y1="24.2162" x2="1.45371" y2="19.0518" gradientUnits="userSpaceOnUse">
<stop stop-color="#3A64FA"/>
<stop offset="0.942707" stop-color="#F963BC"/>
</linearGradient>
<linearGradient id="paint7_linear_3323_39189" x1="24.9361" y1="24.2162" x2="1.45371" y2="19.0518" gradientUnits="userSpaceOnUse">
<stop stop-color="#3A64FA"/>
<stop offset="0.942707" stop-color="#F963BC"/>
</linearGradient>
</defs>
</svg>
