<svg width="32" height="32" viewBox="0 0 32 32" fill="none" xmlns="http://www.w3.org/2000/svg">
<path d="M20.7867 19.16C21.0643 20.3348 21.0725 21.5571 20.8106 22.7355C20.5488 23.9139 20.0236 25.0177 19.2745 25.9643C18.5255 26.9109 17.5719 27.6757 16.4853 28.2015C15.3986 28.7272 14.2071 29.0002 13 29V22.6M20.7867 19.16C23.3332 17.305 25.4048 14.874 26.8322 12.0654C28.2597 9.25689 29.0025 6.15049 29 3.00001C25.8497 2.99773 22.7436 3.74065 19.9353 5.16809C17.127 6.59553 14.6962 8.66701 12.8413 11.2133M20.7867 19.16C18.4692 20.855 15.8138 22.0286 13 22.6M13 22.6C12.8627 22.628 12.724 22.6547 12.5853 22.68C11.3757 21.7208 10.2805 20.6256 9.32133 19.416C9.34652 19.2771 9.37186 19.1384 9.4 19M12.8413 11.2133C11.6665 10.9355 10.444 10.9271 9.26542 11.1889C8.08688 11.4506 6.98286 11.9757 6.0361 12.7248C5.08934 13.4739 4.3244 14.4276 3.7986 15.5143C3.2728 16.6011 2.99978 17.7927 3 19H9.4M12.8413 11.2133C11.1465 13.5304 9.97167 16.1867 9.4 19M6.41467 22.1867C5.53757 22.8389 4.85564 23.7186 4.4427 24.7307C4.02976 25.7427 3.90157 26.8484 4.072 27.928C5.15177 28.0983 6.25755 27.9699 7.26957 27.5567C8.28159 27.1435 9.16127 26.4613 9.81333 25.584M22 12C22 12.5304 21.7893 13.0391 21.4142 13.4142C21.0391 13.7893 20.5304 14 20 14C19.4696 14 18.9609 13.7893 18.5858 13.4142C18.2107 13.0391 18 12.5304 18 12C18 11.4696 18.2107 10.9609 18.5858 10.5858C18.9609 10.2107 19.4696 10 20 10C20.5304 10 21.0391 10.2107 21.4142 10.5858C21.7893 10.9609 22 11.4696 22 12Z" stroke="#3A64FA" stroke-width="1.5" stroke-linecap="round" stroke-linejoin="round"/>
</svg>
