<svg width="31" height="32" viewBox="0 0 31 32" fill="none" xmlns="http://www.w3.org/2000/svg">
<path fill-rule="evenodd" clip-rule="evenodd" d="M15.2301 0L30.4603 4.19381V11.7145C30.4603 14.6342 29.867 18.5955 27.689 22.3798C25.5006 26.1821 21.74 29.7552 15.5022 31.9062L15.2301 32L14.9581 31.9062C8.72027 29.7552 4.95968 26.1821 2.7713 22.3798C0.59331 18.5955 0 14.6342 0 11.7145V4.19381L15.2301 0ZM1.66906 5.46539V11.7145C1.66906 14.4278 2.22322 18.0815 4.21788 21.5472C6.17125 24.9412 9.53269 28.2035 15.2301 30.233C20.9276 28.2035 24.289 24.9412 26.2424 21.5472C28.2371 18.0815 28.7912 14.4278 28.7912 11.7145V5.46539L15.2301 1.73118L1.66906 5.46539Z" fill="url(#paint0_linear_3227_37376)"/>
<path fill-rule="evenodd" clip-rule="evenodd" d="M15.2302 5.36361L24.6247 7.80459V14.6353C24.6247 15.0962 24.2511 15.4698 23.7902 15.4698C23.3293 15.4698 22.9557 15.0962 22.9557 14.6353V9.0954L15.2302 7.08808L7.50464 9.0954V14.6353C7.50464 15.0962 7.13101 15.4698 6.67012 15.4698C6.20922 15.4698 5.83559 15.0962 5.83559 14.6353V7.80459L15.2302 5.36361Z" fill="url(#paint1_linear_3227_37376)"/>
<path fill-rule="evenodd" clip-rule="evenodd" d="M15.2302 11.2695L24.6247 13.7105V20.0597C24.6247 20.5206 24.2511 20.8943 23.7902 20.8943C23.3293 20.8943 22.9557 20.5206 22.9557 20.0597V15.0013L15.2302 12.994L7.50464 15.0013V20.0597C7.50464 20.5206 7.13101 20.8943 6.67012 20.8943C6.20922 20.8943 5.83559 20.5206 5.83559 20.0597V13.7105L15.2302 11.2695Z" fill="url(#paint2_linear_3227_37376)"/>
<path fill-rule="evenodd" clip-rule="evenodd" d="M15.2302 17.1112L24.0001 19.3899C24.4461 19.5058 24.7138 19.9614 24.5979 20.4074C24.482 20.8535 24.0264 21.1212 23.5803 21.0053L15.2302 18.8357L6.87998 21.0053C6.4339 21.1212 5.97831 20.8535 5.86241 20.4074C5.7465 19.9614 6.01416 19.5058 6.46025 19.3899L15.2302 17.1112Z" fill="url(#paint3_linear_3227_37376)"/>
<path fill-rule="evenodd" clip-rule="evenodd" d="M15.2301 23.3424L6.46023 21.0638C6.01415 20.9479 5.74648 20.4923 5.86239 20.0462C5.97829 19.6001 6.43388 19.3324 6.87996 19.4483L15.2301 21.618L23.5803 19.4483C24.0264 19.3324 24.482 19.6001 24.5979 20.0462C24.7138 20.4923 24.4461 20.9479 24 21.0638L15.2301 23.3424Z" fill="url(#paint4_linear_3227_37376)"/>
<defs>
<linearGradient id="paint0_linear_3227_37376" x1="24.4049" y1="24.2162" x2="1.37797" y2="19.2599" gradientUnits="userSpaceOnUse">
<stop stop-color="#3A64FA"/>
<stop offset="0.942707" stop-color="#F963BC"/>
</linearGradient>
<linearGradient id="paint1_linear_3227_37376" x1="24.4049" y1="24.2162" x2="1.37797" y2="19.2599" gradientUnits="userSpaceOnUse">
<stop stop-color="#3A64FA"/>
<stop offset="0.942707" stop-color="#F963BC"/>
</linearGradient>
<linearGradient id="paint2_linear_3227_37376" x1="24.4049" y1="24.2162" x2="1.37797" y2="19.2599" gradientUnits="userSpaceOnUse">
<stop stop-color="#3A64FA"/>
<stop offset="0.942707" stop-color="#F963BC"/>
</linearGradient>
<linearGradient id="paint3_linear_3227_37376" x1="24.4049" y1="24.2162" x2="1.37797" y2="19.2599" gradientUnits="userSpaceOnUse">
<stop stop-color="#3A64FA"/>
<stop offset="0.942707" stop-color="#F963BC"/>
</linearGradient>
<linearGradient id="paint4_linear_3227_37376" x1="24.4049" y1="24.2162" x2="1.37797" y2="19.2599" gradientUnits="userSpaceOnUse">
<stop stop-color="#3A64FA"/>
<stop offset="0.942707" stop-color="#F963BC"/>
</linearGradient>
</defs>
</svg>
