<svg width="64" height="64" viewBox="0 0 64 64" fill="none" xmlns="http://www.w3.org/2000/svg">
<path d="M23.4683 0C19.9281 0 17.0758 2.8625 17.0758 6.4C17.0758 8.0875 17.7514 9.725 18.9398 10.925C20.1407 12.125 21.767 12.8 23.4683 12.8H29.8608V6.4C29.8608 2.875 27.0086 0.0125 23.4683 0ZM23.4683 17.0625H6.39249C2.85223 17.0625 0 19.925 0 23.4625C0 27 2.86474 29.8625 6.39249 29.8625H23.4558C26.9961 29.8625 29.8483 27 29.8483 23.4625C29.8608 19.9375 26.9961 17.0625 23.4683 17.0625ZM40.5317 29.8625C44.0719 29.8625 46.9367 27 46.9242 23.4625V6.4C46.9242 2.8625 44.0594 0 40.5317 0C37.0039 0 34.1392 2.8625 34.1392 6.4V23.4625C34.1392 27.0125 36.9914 29.8625 40.5317 29.8625ZM64 23.4625C64 19.925 61.1353 17.0625 57.6075 17.0625C54.0798 17.0625 51.215 19.925 51.215 23.4625V29.8625H57.6075C61.1353 29.8625 64 27 64 23.4625ZM57.595 34.1375H40.5317C36.9914 34.1375 34.1392 37 34.1392 40.5375C34.1392 42.225 34.8147 43.8625 36.0031 45.0625C37.2041 46.2625 38.8303 46.9375 40.5317 46.9375H57.595C61.1353 46.9375 63.9875 44.075 63.9875 40.5375C64 37 61.1353 34.1375 57.595 34.1375ZM40.5317 51.2H34.1392V57.6C34.1392 61.1375 37.0039 64 40.5317 64C44.0594 64 46.9367 61.1375 46.9242 57.6C46.9367 54.0625 44.0719 51.2125 40.5317 51.2ZM23.4683 34.1375C19.9281 34.1375 17.0758 37 17.0758 40.5375V57.6C17.0758 61.1375 19.9406 64 23.4683 64C26.9961 64 29.8733 61.1375 29.8608 57.6V40.5375C29.8608 38.85 29.1853 37.2125 27.9969 36.0125C26.7959 34.8125 25.1572 34.1375 23.4683 34.1375ZM0 40.5375C0 42.225 0.675528 43.8625 1.86396 45.0625C3.06489 46.2625 4.69116 46.9375 6.39249 46.9375C9.93276 46.9375 12.7975 44.075 12.785 40.5375V34.1375H6.39249C2.86474 34.1375 0 37 0 40.5375Z" fill="#3A64FA"/>
</svg>
