<svg width="64" height="64" viewBox="0 0 64 64" fill="none" xmlns="http://www.w3.org/2000/svg">
<path d="M48 5.33325C50.9456 5.33325 53.3334 7.72107 53.3334 10.6666V53.3332C53.3334 56.2788 50.9456 58.6666 48 58.6666H16C13.0545 58.6666 10.6667 56.2788 10.6667 53.3332V10.6666C10.6667 7.72107 13.0545 5.33325 16 5.33325H48ZM32 34.6666H24C22.5273 34.6666 21.3334 35.8605 21.3334 37.3333C21.3334 38.806 22.5273 39.9999 24 39.9999H32C33.4728 39.9999 34.6667 38.806 34.6667 37.3333C34.6667 35.8605 33.4728 34.6666 32 34.6666ZM40 21.3333H24C22.5273 21.3333 21.3334 22.5272 21.3334 23.9999C21.3334 25.3675 22.3628 26.4946 23.689 26.6486L24 26.6666H40C41.4728 26.6666 42.6667 25.4727 42.6667 23.9999C42.6667 22.6324 41.6373 21.5052 40.311 21.3512L40 21.3333Z" fill="#3A64FA"/>
</svg>
