<svg width="798" height="186" viewBox="0 0 798 186" fill="none" xmlns="http://www.w3.org/2000/svg">
<path d="M455.935 141.168C453.567 138.468 451.852 135.383 450.811 131.892C449.75 128.402 449.239 123.693 449.239 117.787V29.2979H468.817V115.697C468.817 122.414 469.552 127.59 471.042 131.243C472.532 134.815 474.451 137.859 476.819 140.396V141.188H455.915L455.935 141.168Z" fill="white"/>
<path d="M500.052 141.169C498.031 138.814 496.418 135.993 495.193 132.685C494.05 129.377 493.478 124.404 493.478 117.788V78.2318H482.699V62.7868H493.744V41.0907H512.811V62.7868H525.815V78.2318H512.933V115.576C512.933 122.537 513.73 127.855 515.301 131.508C516.873 135.08 518.772 138.043 520.956 140.397V141.189H500.052V141.169Z" fill="white"/>
<path d="M230.025 62.7045H248.623V72.2435H249.664C253.114 66.2766 260.321 60.7561 271.12 60.7561C281.92 60.7561 290.024 65.3836 294.536 72.69H295.74C301.15 64.4905 308.949 60.7561 319.156 60.7561C336.57 60.7561 347.961 72.5479 347.961 89.0889V141.147H328.465V95.8068C328.465 85.0704 323.504 78.9411 314.216 78.9411C304.927 78.9411 298.905 85.6589 298.905 96.2533V141.147H279.388V94.6093C279.388 85.0704 273.692 78.9411 264.69 78.9411C255.687 78.9411 249.542 86.1054 249.542 96.0909V141.147H230.046V62.7045H230.025Z" fill="white"/>
<path d="M359.211 102.383C359.211 77.6218 375.869 60.7561 398.978 60.7561C424.334 60.7561 438.134 79.4079 438.134 101.49V107.599H378.115C378.707 119.532 386.975 127.59 399.571 127.59C409.165 127.59 416.535 123.104 419.23 116.691H437.379C433.479 132.664 419.373 143.096 398.958 143.096C375.706 143.096 359.19 125.783 359.19 102.362L359.211 102.383ZM419.536 93.8787C418.638 83.2843 410.39 76.2823 398.978 76.2823C387.567 76.2823 379.625 84.0353 378.421 93.8787H419.536Z" fill="white"/>
<path d="M534.899 102.383C534.899 77.7639 549.904 60.7561 571.503 60.7561C585.16 60.7561 592.816 68.8135 595.51 72.8321H596.552V62.6842H616.068V141.147H596.858V131.162H595.817C593.571 134.45 586.508 143.096 572.115 143.096C550.067 143.096 534.899 126.697 534.899 102.362V102.383ZM597.021 102.078C597.021 87.3029 588.018 78.3525 575.708 78.3525C563.398 78.3525 554.702 88.1959 554.702 102.078C554.702 115.96 563.255 125.641 575.851 125.641C588.447 125.641 597.001 115.209 597.001 102.078H597.021Z" fill="white"/>
<path d="M632.298 62.7045H650.896V72.2435H651.937C655.081 66.4186 662.899 60.7561 674.148 60.7561C691.847 60.7561 702.647 73.1365 702.647 89.8398V141.147H683.151V94.8935C683.151 85.3545 677.006 78.9208 668.003 78.9208C658.551 78.9208 651.794 86.3896 651.794 96.233V141.127H632.298V62.7045Z" fill="white"/>
<path d="M713.916 101.936C713.916 78.6569 731.023 60.7561 755.929 60.7561C780.835 60.7561 797.943 78.6569 797.943 101.936C797.943 125.215 780.529 143.116 755.929 143.116C731.329 143.116 713.916 125.357 713.916 101.936ZM778.14 101.936C778.14 88.3583 768.831 78.3728 755.929 78.3728C743.027 78.3728 733.718 88.3583 733.718 101.936C733.718 115.514 743.027 125.499 755.929 125.499C768.831 125.499 778.14 115.656 778.14 101.936Z" fill="white"/>
<path d="M194.81 37.0195C187.331 47.1368 171.239 49.4063 169.441 43.3792C167.619 37.352 176.978 33.1788 181.906 32.5968C153.432 24.8489 158.592 45.4658 142.847 47.4527C151.544 51.7506 160.588 58.8917 166.7 59.7646C177.185 61.2776 191.87 55.4916 194.81 37.0029" fill="white"/>
<path fill-rule="evenodd" clip-rule="evenodd" d="M82.495 11.1235C81.9484 7.92292 79.7287 6.90039 76.1757 5.47882L76.1508 5.48713C99.2664 -5.39494 114.017 2.44448 119.964 7.34931C123.264 10.0714 124.516 12.6604 125.698 15.1063C126.647 17.0675 127.55 18.9367 129.43 20.7087C132.246 23.369 137.492 27.163 139.599 28.6865C139.809 28.8388 139.988 28.9684 140.131 29.0719C141.696 30.2108 142.359 33.3698 140.934 35.523C139.51 37.6761 135.733 42.0905 131.202 41.3506C126.672 40.6107 116.742 38.8982 108.559 37.4766C100.376 36.055 94.7029 31.491 94.7029 31.491C93.6759 37.2355 97.1379 42.3315 103.656 44.0358C104.921 44.3654 106.439 44.7091 108.145 45.0954C115.817 46.8329 127.299 49.4331 136.785 55.4998C149.672 63.7382 159.875 76.7402 163.859 96.7336C167.843 116.727 162.865 159.066 127.484 176.45C92.1023 193.833 58.5843 180.365 58.5843 180.365C90.2968 178.885 108.865 166.008 115.955 157.454C120.924 151.452 125.629 140.653 122.763 128.191C119.632 114.549 108.112 104.191 96.3759 105.928C84.6401 107.666 79.6708 120.352 77.4677 126.512C75.2646 132.672 71.8358 137.219 68.8377 137.718C65.8395 138.217 61.5328 138.375 57.7561 129.263C53.9794 120.152 43.8917 103.825 30.5243 109.952C17.1568 116.079 14.7384 144.46 14.7384 144.46C-1.63544 118.298 -5.80137 84.7292 9.59521 52.1329C24.9918 19.5366 57.1267 7.52388 57.1267 7.52388C51.3788 14.9726 45.0264 37.5265 51.4865 57.8109C57.9466 78.0952 73.8981 88.2624 83.0416 89.6424C92.1851 91.0224 103.084 85.6021 102.488 74.4706C102 65.3344 94.1397 58.8417 85.8161 55.0425C79.8778 52.3324 73.9975 46.0808 73.5834 36.4707C73.1692 26.8606 77.3849 20.7836 79.4389 18.3727C81.0539 16.469 82.9588 13.842 82.495 11.1235ZM105.685 20.3428C98.9348 20.3428 95.8621 23.7679 95.8621 23.7679H95.8538C95.876 23.594 95.8996 23.3942 95.9257 23.1725C96.2121 20.7455 96.8079 15.6954 99.2744 13.235C101.966 10.5498 106.546 8.538 112.965 13.235C119.384 17.932 121.404 26.4947 121.404 26.4947C119.152 24.5909 112.435 20.3428 105.685 20.3428Z" fill="white"/>
</svg>
