<svg id="Layer_1" data-name="Layer 1" xmlns="http://www.w3.org/2000/svg" viewBox="0 0 250 219"><defs><style>.cls-1{fill:#3438bf;}</style></defs><g id="Layer_2" data-name="Layer 2"><g id="Layer_2-2" data-name="Layer 2-2"><path class="cls-1" d="M72.22,189H66.79v-14c0-4-2.14-5.7-4.81-5.7a7.34,7.34,0,0,0-6.42,3.16,10.46,10.46,0,0,1,.08,1.54v15H50.22V174.33c0-3.63-2.14-5.09-4.82-5.09a7.19,7.19,0,0,0-6.57,3.54V189H33.41V165.3h5.42v2.55l.31.15a10.16,10.16,0,0,1,7.64-3.16,8.55,8.55,0,0,1,7.48,3.78,11.54,11.54,0,0,1,9-3.78c5,0,8.94,3.39,8.94,10.1Zm27.72-13.5v2.85H82c.39,4.4,3,6.56,8.25,6.64a19.27,19.27,0,0,0,7.18-1.39l1,4a18.73,18.73,0,0,1-8.18,1.85c-8.17,0-13.75-4.63-13.75-12.26,0-6.48,4.59-12.26,12.07-12.34C95.21,164.76,99.49,168.54,99.94,175.48Zm-17.64-1H94.44c-.22-3.55-2.59-5.24-5.72-5.24A6.4,6.4,0,0,0,82.3,174.48Zm30.78,15c-5.65,0-8.63-2.62-8.63-7.64V154.35h5.43v27.07c0,2.16,1.45,3.16,3.66,3.31Zm.84-24.14h3.75v-7.55h5.42v7.55h6.65v4.24h-6.65v11c0,2.78,1.6,4,3.82,4a8.57,8.57,0,0,0,3.44-.54l1,4.16a12.4,12.4,0,0,1-5,1c-4.89,0-8.63-3-8.63-8.41V169.54h-3.75Zm37.66,1.78.23-.08v-1.62h5.43v23.67h-5.43v-2.39l-.3-.07a10.27,10.27,0,0,1-7.57,3,12,12,0,0,1-11.76-12.33,12.17,12.17,0,0,1,12-12.34h.23a9.88,9.88,0,0,1,7.18,2.16Zm.23,14.34V171.24a10.85,10.85,0,0,0-6.64-2,7.84,7.84,0,0,0,0,15.65A7,7,0,0,0,151.81,181.42Zm11.61-16.12h5.43v2.93l.3.08a11,11,0,0,1,8.48-3.47c4.81,0,8.79,3.39,8.79,9.95V189H181v-14c0-4-2.37-5.7-5.27-5.7a8.24,8.24,0,0,0-6.87,3.23V189h-5.43Zm40.11-.46c7.48,0,13.06,5.48,13.06,12.34s-5.65,12.34-13.06,12.34-13.07-5.48-13.07-12.34,5.66-12.42,13.07-12.34Zm0,20.2A7.87,7.87,0,1,0,196,177v.23a7.58,7.58,0,0,0,7.41,7.79.27.27,0,0,1,.16.07Z"/><path class="cls-1" d="M204.75,50.1c-7.72,10.26-24.44,12.57-26.28,6.4s7.79-10.33,12.91-11c-29.48-7.86-24.14,13.11-40.48,15.11,9,4.4,18.41,11.65,24.75,12.5C186.49,74.78,201.69,68.84,204.75,50.1Z"/><path class="cls-1" d="M131.57,56.5a33.06,33.06,0,0,1-5-3,5.28,5.28,0,0,1-2.06-6,5.94,5.94,0,0,1,.68-1.39c.23.23,1.84,3.55,8.56,6.55,2.37,1.08,10.85,5.17,11.15,5.17,3.13.7,8.1-2.54,6.72-5.09-1-1.46-5.42-6.17-5.88-8.87-.46-2.15-.38-5.55-5.12-9.87-4.5-4.08-14.28-5.24-21.16-4.24,2,1.7,5.35,4.78,2.14,6.4a33.15,33.15,0,0,0-5.34,3.09c-5.28,4.24-5.81,13.26.45,18.66,4.74,4.16,10.55,10.18,3.67,17.27-4.74,4.86-16.19,2.39-23.22-4.78-8-7.86-8.79-22.82-1.07-34.55l1.07-1.61-1.22.23c-1.84.61-3.67,1.23-5.43,2a51.87,51.87,0,0,0-25,23.21c-2.68,5-12.68,27.84,2.75,50.89.38-7.47,2.67-14.8,5.42-18.58,2.9-4.09,9.17-7.71,15,0,3.75,4.94,4.51,12.34,9.32,12.34s5.81-7.48,9-12.34c5.27-7.94,12.45-4.86,15-.69a26.18,26.18,0,0,1,3.21,19.27c-3.43,16.66-34.37,16.43-44.68,13.11,0,0,10.84,9.8,31.09,10,7.25.08,31.24-2.78,40.63-28.15C163.35,75.55,136.23,59.05,131.57,56.5Zm-1.83-18.35c4.73-5,11.76,1.69,11.45,9.79-6.18-6.32-9.09-6.94-14-5-.16-1.47,1.83-4.09,2.52-4.78Z"/></g></g></svg>