<svg id="Layer_1" data-name="Layer 1" xmlns="http://www.w3.org/2000/svg" viewBox="0 0 600 200"><defs><style>.cls-1{fill:#fff;}</style></defs><g id="Layer_2" data-name="Layer 2"><g id="Layer_2-2" data-name="Layer 2-2"><path class="cls-1" d="M271.59,154.2H259.86V123.78c0-8.67-4.59-12.41-10.37-12.41-5.44,0-10.54,2-13.6,6.8a22.78,22.78,0,0,1,.17,3.4V154H224.34V122.59c0-7.82-4.59-11-10.37-11a15.75,15.75,0,0,0-14.11,7.65v35.18H188.13V102.88h11.73v5.43l.68.34a21.36,21.36,0,0,1,16.32-6.79A18.49,18.49,0,0,1,233,110a24.74,24.74,0,0,1,19.37-8.15c10.54,0,19,7.47,19,22.09ZM330.73,125v6.12H292.49c.85,9.52,6.29,14.11,17.68,14.45a39,39,0,0,0,15.3-3.06l2.21,8.84a39.08,39.08,0,0,1-17.51,4.07c-17.51,0-29.4-10-29.4-26.68,0-14.11,9.85-26.68,25.83-26.85C320.71,101.69,329.88,109.84,330.73,125ZM293,122.76h26c-.51-7.65-5.61-11.39-12.24-11.39C299.29,111.37,294.53,116.13,293,122.76ZM359,155.22c-12.07,0-18.53-5.6-18.53-16.48V79.25h11.73v58.64c0,4.76,3.06,7,8,7.14Zm1.7-52.34h8V86.39h11.72v16.49h14.11v9.17H380.36v24c0,6.12,3.4,8.67,8.16,8.67a17.88,17.88,0,0,0,7.31-1.19l2,9a23.59,23.59,0,0,1-10.71,2c-10.53,0-18.52-6.62-18.52-18.35V112.05h-8ZM441,106.62l.51-.17v-3.57h11.73V154.2H441.55v-5.26l-.68-.17a20.67,20.67,0,0,1-16.15,6.45c-13.93,0-25.15-11.89-25.15-26.68a26.11,26.11,0,0,1,25.83-26.68h.34c7.14-.17,11.9,1.87,15.3,4.76Zm.51,31.1v-22.1a23.9,23.9,0,0,0-14.28-4.25c-8.66,0-16,7.48-16,17s7.14,17,16,17C433.22,145.54,438.66,143.5,441.55,137.72Zm24.82-35h11.72V109l.68.17c3.74-4.41,10-7.47,18.19-7.47,10.37,0,18.87,7.3,18.87,21.58V154.2H504.1V123.78c0-8.67-5.1-12.41-11.39-12.41a17,17,0,0,0-14.62,7V154H466.37Zm85.83-1c16,0,28,11.89,28,26.68s-12.07,26.68-28,26.68-27.88-11.89-27.88-26.68,12.07-26.68,27.88-26.68Zm0,43.85c9.35,0,16.31-7.48,16.31-17s-7.13-17-16.31-17-16.32,7.48-16.32,17,7.14,17,16.32,17Z"/><path class="cls-1" d="M238.27,52.91c-11.38,15.46-36,18.86-38.75,9.68s11.56-15.46,19-16.48c-43.51-11.73-35.69,19.54-59.83,22.6,13.26,6.63,27.2,17.34,36.54,18.7C211.25,90,233.69,81.12,238.27,52.91Z"/><path class="cls-1" d="M130.18,62.59c-2.55-1.36-5.1-2.89-7.48-4.41a8.07,8.07,0,0,1-3.06-9l1-2c.34.34,2.72,5.27,12.75,9.86,3.4,1.53,16,7.64,16.48,7.81,4.59,1,12.07-3.91,10-7.64-1.53-2.21-8-9.18-8.67-13.26-.68-3.23-.51-8.33-7.48-14.79-6.62-6.12-21.07-7.82-31.27-6.46,2.89,2.55,7.82,7.14,3.06,9.69a59,59,0,0,0-7.82,4.59c-7.82,6.29-8.5,19.89.68,28,7,6.12,15.47,15.3,5.44,25.84-7,7.31-23.79,3.57-34.33-7.14-11.73-11.9-12.92-34.5-1.53-52l1.53-2.38a6,6,0,0,0-1.7.34c-2.72,1-5.44,1.87-8,3.06A76.53,76.53,0,0,0,32.45,67.35c-3.91,7.48-18.7,41.81,4.08,76.32.51-11.22,4.08-22.1,8-27.88,4.24-6.12,13.42-11.55,22.09,0,5.61,7.31,6.8,18.53,13.77,18.53s8.5-11.22,13.25-18.53c7.82-11.89,18.36-7.14,22.27-1a40.86,40.86,0,0,1,4.76,28.9c-5.1,25-50.82,24.64-65.95,19.54,0,0,16,14.62,45.89,15,10.71.17,46.06-4.25,60-42.15C177.09,91.15,137.15,66.33,130.18,62.59Zm-2.72-27.53c7-7.48,17.33,2.55,16.82,14.79-9-9.52-13.42-10.37-20.56-7.48C123.55,40.16,126.44,36.08,127.46,35.06Z"/></g></g></svg>