<?xml version="1.0" encoding="utf-8"?>
<!-- Generator: Adobe Illustrator 17.1.0, SVG Export Plug-In . SVG Version: 6.00 Build 0)  -->
<!DOCTYPE svg PUBLIC "-//W3C//DTD SVG 1.1//EN" "http://www.w3.org/Graphics/SVG/1.1/DTD/svg11.dtd">
<svg version="1.1" id="Layer_1" xmlns="http://www.w3.org/2000/svg" xmlns:xlink="http://www.w3.org/1999/xlink" x="0px" y="0px"
	 viewBox="0 0 16 16" enable-background="new 0 0 16 16" xml:space="preserve">
<path id="XMLID_234_" d="M8,16v-3.1c3.3,0,5.8-3.2,4.6-6.7c-0.5-1.3-1.5-2.3-2.8-2.8C6.3,2.2,3.1,4.7,3.1,8l0,0H0
	c0-5.2,5.1-9.3,10.5-7.6c2.4,0.7,4.3,2.7,5.1,5.1C17.3,10.9,13.2,16,8,16z"/>
<polygon id="XMLID_232_" points="8,13 5,13 5,9.9 5,9.9 8,9.9 8,9.9 "/>
<polygon id="XMLID_226_" points="2.6,13 0.5,13 0.5,13 0.5,10.9 0.5,10.9 2.6,10.9 2.6,10.9 "/>
<rect x="2.6" y="13" width="2.4" height="2.4"/>
</svg>
